<svg width="80" height="80" viewBox="0 0 80 80" fill="none" xmlns="http://www.w3.org/2000/svg">
<path d="M19.5152 53.3274C20.2126 53.1273 20.9193 52.9611 21.6328 52.8293C19.3916 50.3048 17.6474 47.3797 16.4919 44.2079C18.7471 43.8626 24.2966 43.3764 29.1909 45.7703C29.1147 45.0623 29.0698 44.3431 29.0562 43.6126C22.4228 40.8341 15.3485 42.4631 15.0166 42.5426C14.8917 42.5724 14.774 42.6272 14.6707 42.7037C14.5675 42.7802 14.4808 42.8767 14.4158 42.9876C14.3508 43.0985 14.309 43.2213 14.2928 43.3488C14.2766 43.4763 14.2863 43.6057 14.3214 43.7293C15.4204 47.2325 17.1838 50.4912 19.5152 53.3274ZM63.5071 44.2083C62.3471 47.3951 60.5922 50.3324 58.3357 52.8641C59.0614 53.0007 59.7671 53.1707 60.4524 53.365C62.7996 50.5204 64.574 47.2483 65.6776 43.7293C65.7127 43.6057 65.7224 43.4763 65.7062 43.3488C65.69 43.2213 65.6482 43.0985 65.5832 42.9876C65.5182 42.8767 65.4315 42.7802 65.3283 42.7037C65.225 42.6272 65.1073 42.5724 64.9824 42.5426C64.6505 42.4631 57.5757 40.8341 50.9428 43.6126C50.9308 44.3428 50.8858 45.062 50.8081 45.7703C55.7028 43.3764 61.2524 43.8626 63.5071 44.2083ZM39.9995 40.1064C39.246 40.1064 38.5095 40.3299 37.883 40.7485C37.2566 41.1671 36.7683 41.762 36.48 42.4581C36.1916 43.1542 36.1162 43.9202 36.2632 44.6592C36.4102 45.3981 36.773 46.0769 37.3058 46.6097C37.8385 47.1425 38.5173 47.5053 39.2563 47.6523C39.9953 47.7993 40.7612 47.7238 41.4573 47.4355C42.1534 47.1472 42.7484 46.6589 43.167 46.0324C43.5856 45.406 43.809 44.6694 43.809 43.916C43.8078 42.906 43.406 41.9378 42.6919 41.2236C41.9777 40.5095 41.0095 40.1077 39.9995 40.1064ZM39.9995 45.8207C39.6228 45.8207 39.2545 45.709 38.9413 45.4997C38.628 45.2904 38.3839 44.9929 38.2397 44.6449C38.0956 44.2968 38.0578 43.9139 38.1313 43.5444C38.2048 43.1749 38.3862 42.8355 38.6526 42.5691C38.919 42.3027 39.2584 42.1213 39.6279 42.0478C39.9974 41.9743 40.3804 42.012 40.7284 42.1562C41.0765 42.3004 41.374 42.5445 41.5833 42.8577C41.7926 43.171 41.9043 43.5392 41.9043 43.916C41.9038 44.421 41.7029 44.9052 41.3458 45.2623C40.9887 45.6194 40.5045 45.8202 39.9995 45.8207Z" fill="#484B4F" fill-opacity="0.9"/>
<path d="M41.4288 16.695C41.7113 16.695 41.9875 16.6112 42.2225 16.4542C42.4574 16.2973 42.6405 16.0741 42.7486 15.8131C42.8567 15.5521 42.885 15.2648 42.8299 14.9877C42.7748 14.7106 42.6387 14.4561 42.4389 14.2563C42.2392 14.0565 41.9846 13.9204 41.7075 13.8653C41.4304 13.8102 41.1431 13.8385 40.8821 13.9466C40.6211 14.0547 40.398 14.2378 40.241 14.4727C40.084 14.7077 40.0002 14.9839 40.0002 15.2664C40.0006 15.6452 40.1512 16.0083 40.4191 16.2762C40.6869 16.544 41.05 16.6946 41.4288 16.695ZM41.4288 14.5521C41.5701 14.5521 41.7082 14.594 41.8256 14.6725C41.9431 14.751 42.0346 14.8626 42.0887 14.9931C42.1428 15.1236 42.1569 15.2672 42.1294 15.4058C42.1018 15.5443 42.0338 15.6716 41.9339 15.7715C41.834 15.8714 41.7067 15.9394 41.5681 15.967C41.4296 15.9945 41.286 15.9804 41.1554 15.9263C41.0249 15.8723 40.9134 15.7807 40.8349 15.6633C40.7564 15.5458 40.7145 15.4077 40.7145 15.2664C40.7146 15.077 40.7899 14.8954 40.9239 14.7615C41.0578 14.6276 41.2394 14.5523 41.4288 14.5521ZM73.175 25.9807C72.9866 25.9807 72.8025 26.0366 72.6459 26.1412C72.4893 26.2459 72.3672 26.3946 72.2951 26.5686C72.223 26.7427 72.2042 26.9341 72.2409 27.1189C72.2777 27.3036 72.3684 27.4733 72.5016 27.6065C72.6348 27.7397 72.8045 27.8304 72.9892 27.8672C73.1739 27.9039 73.3654 27.8851 73.5395 27.813C73.7135 27.7409 73.8622 27.6188 73.9669 27.4622C74.0715 27.3056 74.1274 27.1214 74.1274 26.9331C74.1271 26.6806 74.0267 26.4385 73.8481 26.2599C73.6696 26.0814 73.4275 25.981 73.175 25.9807ZM73.175 27.4093C73.0808 27.4093 72.9887 27.3813 72.9104 27.329C72.8321 27.2767 72.7711 27.2023 72.735 27.1153C72.699 27.0283 72.6896 26.9326 72.7079 26.8402C72.7263 26.7478 72.7717 26.663 72.8383 26.5964C72.9049 26.5298 72.9897 26.4844 73.0821 26.466C73.1745 26.4477 73.2702 26.4571 73.3572 26.4931C73.4442 26.5292 73.5186 26.5902 73.5709 26.6685C73.6233 26.7468 73.6512 26.8389 73.6512 26.9331C73.6511 27.0593 73.6008 27.1804 73.5116 27.2697C73.4223 27.3589 73.3012 27.4092 73.175 27.4093ZM53.9683 30.2664C53.78 30.2664 53.5958 30.3223 53.4392 30.4269C53.2826 30.5316 53.1605 30.6803 53.0884 30.8543C53.0163 31.0284 52.9975 31.2199 53.0342 31.4046C53.071 31.5893 53.1617 31.759 53.2949 31.8922C53.4281 32.0254 53.5978 32.1161 53.7825 32.1529C53.9673 32.1896 54.1588 32.1708 54.3328 32.0987C54.5068 32.0266 54.6555 31.9045 54.7602 31.7479C54.8648 31.5913 54.9207 31.4072 54.9207 31.2188C54.9204 30.9663 54.82 30.7242 54.6415 30.5456C54.4629 30.3671 54.2208 30.2667 53.9683 30.2664ZM53.9683 31.695C53.8741 31.695 53.7821 31.6671 53.7038 31.6147C53.6255 31.5624 53.5644 31.488 53.5284 31.401C53.4923 31.314 53.4829 31.2183 53.5013 31.1259C53.5196 31.0335 53.565 30.9487 53.6316 30.8821C53.6982 30.8155 53.783 30.7701 53.8754 30.7518C53.9678 30.7334 54.0635 30.7428 54.1505 30.7789C54.2376 30.8149 54.3119 30.8759 54.3643 30.9542C54.4166 31.0326 54.4445 31.1246 54.4445 31.2188C54.4444 31.3451 54.3942 31.4661 54.3049 31.5554C54.2156 31.6447 54.0946 31.6949 53.9683 31.695ZM75.8731 5.66309C75.6847 5.66309 75.5006 5.71894 75.344 5.82359C75.1874 5.92824 75.0653 6.07698 74.9932 6.25101C74.9211 6.42503 74.9023 6.61652 74.939 6.80127C74.9758 6.98601 75.0665 7.15571 75.1997 7.2889C75.3328 7.42209 75.5025 7.5128 75.6873 7.54955C75.872 7.5863 76.0635 7.56744 76.2375 7.49535C76.4116 7.42327 76.5603 7.3012 76.665 7.14458C76.7696 6.98796 76.8255 6.80383 76.8255 6.61547C76.8252 6.36296 76.7248 6.12086 76.5462 5.94231C76.3677 5.76376 76.1256 5.66334 75.8731 5.66309ZM75.8731 7.09166C75.7789 7.09166 75.6868 7.06373 75.6085 7.0114C75.5302 6.95908 75.4692 6.88471 75.4331 6.7977C75.3971 6.71068 75.3877 6.61494 75.406 6.52257C75.4244 6.43019 75.4698 6.34535 75.5364 6.27875C75.603 6.21215 75.6878 6.1668 75.7802 6.14843C75.8726 6.13005 75.9683 6.13948 76.0553 6.17552C76.1423 6.21157 76.2167 6.2726 76.269 6.35091C76.3214 6.42922 76.3493 6.52129 76.3493 6.61547C76.3491 6.74172 76.2989 6.86277 76.2097 6.95204C76.1204 7.04132 75.9993 7.09153 75.8731 7.09166ZM8.2407 13.4407C8.2407 13.2523 8.18484 13.0682 8.08019 12.9116C7.97555 12.755 7.8268 12.6329 7.65278 12.5608C7.47875 12.4887 7.28726 12.4699 7.10252 12.5066C6.91777 12.5434 6.74808 12.6341 6.61488 12.7673C6.48169 12.9005 6.39099 13.0702 6.35424 13.2549C6.31749 13.4396 6.33635 13.6311 6.40843 13.8052C6.48052 13.9792 6.60259 14.1279 6.7592 14.2326C6.91582 14.3372 7.09996 14.3931 7.28832 14.3931C7.54083 14.3928 7.78292 14.2924 7.96148 14.1139C8.14003 13.9353 8.24045 13.6932 8.2407 13.4407ZM6.81213 13.4407C6.81213 13.3465 6.84006 13.2545 6.89238 13.1761C6.94471 13.0978 7.01908 13.0368 7.10609 13.0008C7.1931 12.9647 7.28885 12.9553 7.38122 12.9737C7.47359 12.992 7.55844 13.0374 7.62504 13.104C7.69163 13.1706 7.73699 13.2554 7.75536 13.3478C7.77373 13.4402 7.7643 13.5359 7.72826 13.6229C7.69222 13.7099 7.63119 13.7843 7.55288 13.8366C7.47457 13.889 7.3825 13.9169 7.28832 13.9169C7.16206 13.9168 7.04102 13.8666 6.95174 13.7773C6.86246 13.688 6.81225 13.567 6.81213 13.4407Z" fill="#484B4F" fill-opacity="0.9"/>
<path d="M5.18454 32.9691L5.89263 32.0381L5.44549 31.7848L4.99073 32.8276H4.97597L4.51406 31.7919L4.0593 32.0529L4.75978 32.9619V32.9767L3.66406 32.8352V33.3419L4.76692 33.2005V33.2152L4.0593 34.1238L4.48359 34.3924L4.96835 33.3419H4.98311L5.43025 34.3848L5.89978 34.1167L5.18454 33.2224V33.2076L6.3093 33.3419V32.8352L5.18454 32.9843V32.9691ZM30.0769 5.47811L29.6693 6.00144L29.9136 6.15573L30.1926 5.55096H30.2012L30.4588 6.15144L30.7293 5.99715L30.3174 5.48239V5.47382L30.965 5.55096V5.25906L30.3174 5.34477V5.3362L30.725 4.80001L30.4674 4.6543L30.206 5.25477H30.1969L29.9312 4.65858L29.6693 4.80858L30.0726 5.33192V5.34049L29.4417 5.25906V5.55096L30.0769 5.46954V5.47811ZM59.1983 7.61477V7.11811L58.095 7.2643V7.24954L58.7893 6.3362L58.3507 6.08763L57.905 7.11049H57.8903L57.4374 6.09477L56.9912 6.35096L57.6783 7.24239V7.25715L56.6036 7.11811V7.61477L57.6855 7.4762V7.49096L56.9912 8.38239L57.4079 8.64573L57.8831 7.61477H57.8974L58.336 8.63811L58.7964 8.37525L58.095 7.49811V7.48334L59.1983 7.61477ZM26.3488 29.2576L26.9479 28.4695L26.5698 28.2552L26.185 29.1376H26.1726L25.7817 28.2614L25.3969 28.4824L25.9898 29.2514V29.2638L25.0626 29.1443V29.5729L25.996 29.4533V29.4657L25.3969 30.2348L25.756 30.4619L26.1664 29.5729H26.1783L26.5569 30.4552L26.9541 30.2286L26.3488 29.4719V29.4595L27.3007 29.5729V29.1443L26.3488 29.27V29.2576Z" fill="#484B4F" fill-opacity="0.9"/>
<path d="M0.952381 68.6782C1.47837 68.6782 1.90476 68.2518 1.90476 67.7258C1.90476 67.1998 1.47837 66.7734 0.952381 66.7734C0.426395 66.7734 0 67.1998 0 67.7258C0 68.2518 0.426395 68.6782 0.952381 68.6782Z" fill="#484B4F" fill-opacity="0.9"/>
<path d="M5.23837 66.7734H3.8098C3.55722 66.7734 3.31497 66.8738 3.13637 67.0524C2.95776 67.231 2.85742 67.4732 2.85742 67.7258C2.85742 67.9784 2.95776 68.2206 3.13637 68.3993C3.31497 68.5779 3.55722 68.6782 3.8098 68.6782H5.23837C5.49096 68.6782 5.7332 68.5779 5.91181 68.3993C6.09042 68.2206 6.19076 67.9784 6.19076 67.7258C6.19076 67.4732 6.09042 67.231 5.91181 67.0524C5.7332 66.8738 5.49096 66.7734 5.23837 66.7734ZM76.1908 66.7734H74.7622C74.5096 66.7734 74.2674 66.8738 74.0887 67.0524C73.9101 67.231 73.8098 67.4732 73.8098 67.7258C73.8098 67.9784 73.9101 68.2206 74.0887 68.3993C74.2674 68.5779 74.5096 68.6782 74.7622 68.6782H76.1908C76.4433 68.6782 76.6856 68.5779 76.8642 68.3993C77.0428 68.2206 77.1431 67.9784 77.1431 67.7258C77.1431 67.4732 77.0428 67.231 76.8642 67.0524C76.6856 66.8738 76.4433 66.7734 76.1908 66.7734Z" fill="#484B4F" fill-opacity="0.9"/>
<path d="M79.0481 68.6782C79.5741 68.6782 80.0005 68.2518 80.0005 67.7258C80.0005 67.1998 79.5741 66.7734 79.0481 66.7734C78.5221 66.7734 78.0957 67.1998 78.0957 67.7258C78.0957 68.2518 78.5221 68.6782 79.0481 68.6782Z" fill="#484B4F" fill-opacity="0.9"/>
<path d="M56.2645 70.583H52.3083C52.0685 70.6016 51.8445 70.71 51.6811 70.8866C51.5177 71.0631 51.4269 71.2948 51.4269 71.5354C51.4269 71.776 51.5177 72.0077 51.6811 72.1842C51.8445 72.3608 52.0685 72.4692 52.3083 72.4878H56.2645C56.5043 72.4692 56.7283 72.3608 56.8917 72.1842C57.0551 72.0077 57.1459 71.776 57.1459 71.5354C57.1459 71.2948 57.0551 71.0631 56.8917 70.8866C56.7283 70.71 56.5043 70.6016 56.2645 70.583ZM27.6931 70.583H23.7369C23.497 70.6016 23.273 70.71 23.1096 70.8866C22.9462 71.0631 22.8555 71.2948 22.8555 71.5354C22.8555 71.776 22.9462 72.0077 23.1096 72.1842C23.273 72.3608 23.497 72.4692 23.7369 72.4878H27.6931C27.9329 72.4692 28.1569 72.3608 28.3203 72.1842C28.4837 72.0077 28.5745 71.776 28.5745 71.5354C28.5745 71.2948 28.4837 71.0631 28.3203 70.8866C28.1569 70.71 27.9329 70.6016 27.6931 70.583ZM49.5245 70.583H30.4769C30.2243 70.583 29.982 70.6833 29.8034 70.862C29.6248 71.0406 29.5245 71.2828 29.5245 71.5354C29.5245 71.788 29.6248 72.0302 29.8034 72.2088C29.982 72.3874 30.2243 72.4878 30.4769 72.4878H38.0674V73.4402H34.2864C34.0338 73.4402 33.7916 73.5405 33.613 73.7191C33.4344 73.8977 33.334 74.1399 33.334 74.3925C33.334 74.6451 33.4344 74.8874 33.613 75.066C33.7916 75.2446 34.0338 75.3449 34.2864 75.3449H46.1912C46.4438 75.3449 46.686 75.2446 46.8646 75.066C47.0432 74.8874 47.1435 74.6451 47.1435 74.3925C47.1435 74.1399 47.0432 73.8977 46.8646 73.7191C46.686 73.5405 46.4438 73.4402 46.1912 73.4402H41.934V72.4878H49.5245C49.7771 72.4878 50.0193 72.3874 50.1979 72.2088C50.3765 72.0302 50.4769 71.788 50.4769 71.5354C50.4769 71.2828 50.3765 71.0406 50.1979 70.862C50.0193 70.6833 49.7771 70.583 49.5245 70.583Z" fill="#484B4F" fill-opacity="0.9"/>
<path d="M71.7713 66.7741H62.7599C65.4578 65.5972 67.9577 64.0107 70.1713 62.0707C70.2686 61.9804 70.3459 61.8707 70.3983 61.7486C70.4507 61.6266 70.477 61.495 70.4755 61.3622C70.4741 61.2295 70.4448 61.0985 70.3897 60.9777C70.3346 60.8568 70.2549 60.7489 70.1556 60.6607C69.8651 60.4026 62.9984 54.3888 54.4165 54.3888C54.3523 54.3888 54.287 54.3888 54.2227 54.3898C51.0226 54.467 47.8818 55.2697 45.037 56.7374C47.0699 53.2612 49.047 48.5241 49.047 43.226C49.047 32.5717 41.0451 23.6374 40.7042 23.2626C40.6126 23.1684 40.503 23.0935 40.3819 23.0423C40.2609 22.9912 40.1308 22.9648 39.9994 22.9648C39.868 22.9648 39.7379 22.9912 39.6169 23.0423C39.4958 23.0935 39.3862 23.1684 39.2946 23.2626C38.9537 23.6374 30.9518 32.5717 30.9518 43.226C30.9518 48.5241 32.9289 53.2603 34.9613 56.7369C32.1165 55.2693 28.9757 54.4665 25.7756 54.3893L25.5823 54.3888C17.0013 54.3888 10.1332 60.4031 9.84321 60.6602C9.74384 60.7484 9.66402 60.8564 9.60887 60.9773C9.55373 61.0981 9.52447 61.2292 9.52299 61.362C9.52151 61.4948 9.54784 61.6265 9.60028 61.7486C9.65272 61.8706 9.73012 61.9804 9.82749 62.0707C12.0411 64.0107 14.541 65.5972 17.2389 66.7741H8.22749C8.092 66.7564 7.9543 66.7678 7.82357 66.8075C7.69284 66.8473 7.5721 66.9145 7.46942 67.0046C7.36673 67.0948 7.28446 67.2058 7.2281 67.3303C7.17173 67.4547 7.14258 67.5898 7.14258 67.7264C7.14258 67.8631 7.17173 67.9981 7.2281 68.1226C7.28446 68.2471 7.36673 68.3581 7.46942 68.4483C7.5721 68.5384 7.69284 68.6056 7.82357 68.6454C7.9543 68.6851 8.092 68.6965 8.22749 68.6788H71.7708C71.9063 68.6965 72.044 68.6851 72.1748 68.6454C72.3055 68.6056 72.4262 68.5384 72.5289 68.4483C72.6316 68.3581 72.7139 68.2471 72.7702 68.1226C72.8266 67.9981 72.8557 67.8631 72.8557 67.7264C72.8557 67.5898 72.8266 67.4547 72.7702 67.3303C72.7139 67.2058 72.6316 67.0948 72.5289 67.0046C72.4262 66.9145 72.3055 66.8473 72.1748 66.8075C72.044 66.7678 71.9068 66.7564 71.7713 66.7741ZM54.2427 56.295L54.4127 56.2941C60.5946 56.2941 65.9808 59.8517 68.0208 61.3907C66.0023 62.9874 60.6356 66.7064 54.3684 66.7726C48.1104 66.826 42.8994 63.2126 40.9746 61.6741C42.8632 60.0945 47.9832 56.3612 54.2427 56.295ZM32.8565 43.226C32.8565 35.1093 38.0723 27.8098 39.9999 25.3893C41.9284 27.8069 47.1423 35.0955 47.1423 43.226C47.1423 51.3517 41.908 58.3069 39.9994 60.5722C38.0908 58.3069 32.8565 51.3517 32.8565 43.226ZM25.5861 56.2941L25.7561 56.295C32.0156 56.3612 37.1356 60.095 39.0242 61.6741C37.0994 63.2126 31.9008 66.8212 25.6299 66.7726C19.3794 66.7064 14.0023 62.9869 11.9794 61.3898C14.0204 59.8498 19.4051 56.2941 25.5861 56.2941ZM34.3046 66.7741C36.336 65.8668 38.2485 64.7141 39.9994 63.3417C41.7495 64.7143 43.6614 65.867 45.6923 66.7741H34.3046Z" fill="#484B4F" fill-opacity="0.9"/>
</svg>
