<svg width="44" height="25" viewBox="0 0 44 25" fill="none" xmlns="http://www.w3.org/2000/svg">
<path d="M39.9833 10.8129L39.983 10.9143C40.0865 10.9145 40.1895 10.9026 40.2856 10.8788C40.3816 10.8551 40.4703 10.8196 40.5452 10.7732C40.6198 10.727 40.6821 10.669 40.7224 10.6001C40.7618 10.5329 40.7786 10.4578 40.7672 10.3815C40.7587 9.26213 39.9644 8.21191 38.604 7.44922C37.2382 6.68353 35.3952 6.25788 33.4807 6.26045C31.5663 6.26301 29.7268 6.6936 28.3674 7.46301C27.0101 8.23124 26.224 9.28695 26.2286 10.4094C26.2287 10.5628 26.3359 10.6881 26.4802 10.7693C26.6265 10.8518 26.8181 10.895 27.0126 10.895C27.2071 10.895 27.3987 10.8518 27.5451 10.7693C27.6894 10.6881 27.7966 10.5627 27.7966 10.4091C27.7966 9.59378 28.3727 8.78998 29.4446 8.18616C30.5145 7.58349 31.9724 7.24184 33.4979 7.24184C35.0235 7.24184 36.4814 7.58349 37.5513 8.18616C38.6232 8.78998 39.1993 9.59378 39.1993 10.4091V10.4284C39.1993 10.5819 39.3065 10.7073 39.4508 10.7886C39.5972 10.871 39.7888 10.9143 39.9833 10.9143V10.8129ZM39.9833 10.8129C40.079 10.8132 40.1737 10.8021 40.2613 10.7804C40.3489 10.7587 40.4274 10.7269 40.4918 10.687C40.5562 10.6472 40.605 10.6001 40.6349 10.5489C40.6649 10.4977 40.6755 10.4435 40.6659 10.3899L26.3299 10.4091C26.3299 10.5111 26.4019 10.6089 26.5299 10.681C26.6579 10.7532 26.8316 10.7937 27.0126 10.7937C27.1937 10.7937 27.3673 10.7532 27.4953 10.681C27.6234 10.6089 27.6953 10.5111 27.6953 10.4091C27.6953 9.54224 28.3066 8.71085 29.3948 8.09786C30.4831 7.48487 31.959 7.1405 33.4979 7.1405C35.0369 7.1405 36.5128 7.48487 37.601 8.09786C38.6892 8.71085 39.3006 9.54224 39.3006 10.4091V10.4284C39.3006 10.5303 39.3725 10.6282 39.5005 10.7003C39.6286 10.7724 39.8022 10.8129 39.9833 10.8129Z" fill="#E86C02" stroke="#E86C02" stroke-width="0.2"/>
<path d="M24.4581 10.9215L24.4581 10.9215C24.291 10.9244 24.1246 10.8955 23.9856 10.8368C23.8485 10.7788 23.7346 10.69 23.6814 10.5739L23.6803 10.5715L23.6804 10.5714C23.5808 10.3379 23.3643 10.1145 23.0414 9.9318C22.5531 9.66098 21.89 9.50512 21.1927 9.50249L21.1927 9.50249C21.053 9.5019 20.9148 9.47902 20.7939 9.43511C20.6738 9.39152 20.5697 9.32675 20.5004 9.24244L20.5003 9.24224C20.4288 9.15481 20.3973 9.04834 20.4244 8.93944C20.4506 8.83418 20.5265 8.74691 20.6252 8.68213C21.0068 8.42641 21.2025 8.11718 21.2122 7.81296C21.2219 7.50949 21.0467 7.19808 20.6827 6.93579C20.319 6.67365 19.7995 6.48569 19.2087 6.40916C18.6187 6.33273 18.0003 6.37306 17.4586 6.52246L17.4572 6.52283L17.4572 6.52282C17.2823 6.56852 17.0846 6.57413 16.9034 6.53908C16.7241 6.50437 16.5628 6.42995 16.4625 6.32004L16.4603 6.31764L16.4603 6.3176C16.3472 6.18535 16.1912 6.06244 15.9971 5.95604L15.9967 5.95581C15.541 5.70318 14.9318 5.54988 14.2823 5.52905C13.6332 5.50823 12.9956 5.62144 12.4893 5.84443C12.4035 5.8827 12.3062 5.90941 12.204 5.9238C12.1016 5.93822 11.9953 5.94015 11.8918 5.92954C11.8918 5.92954 11.8917 5.92954 11.8917 5.92953L11.902 5.82872C11.8063 5.81897 11.7153 5.7978 11.6352 5.76663C11.5552 5.73546 11.4879 5.69501 11.4378 5.64798L24.4581 10.9215ZM24.4581 10.9215L24.4608 10.9214L24.6315 10.9137L24.6315 10.9142L24.6415 10.9127C24.8287 10.8855 25.0003 10.8165 25.1124 10.7104C25.2281 10.6008 25.2755 10.4528 25.2116 10.3072C25.041 9.89831 24.6872 9.53079 24.1974 9.23617C23.7456 8.96447 23.1878 8.7604 22.5727 8.63879M24.4581 10.9215L22.5727 8.63879M4.35859 6.77855C4.35932 6.35323 4.58402 5.9376 5.00424 5.58425C5.42447 5.2309 6.02133 4.95571 6.71929 4.7935C7.41726 4.63129 8.18497 4.58936 8.92525 4.67301C9.66554 4.75667 10.3451 4.96214 10.878 5.26344L4.35859 6.77855ZM4.35859 6.77855C4.35198 6.849 4.35198 6.91959 4.35859 6.99005V6.77855ZM22.5727 8.63879C22.8365 8.25027 22.9223 7.8222 22.8092 7.39925C22.684 6.9309 22.3244 6.50469 21.7918 6.16589C21.2586 5.82664 20.567 5.58425 19.8021 5.46461C19.0514 5.34719 18.2577 5.35228 17.5122 5.47908C17.3895 5.38768 17.2559 5.30153 17.1126 5.22121C17.1126 5.22119 17.1126 5.22118 17.1125 5.22117L22.5727 8.63879ZM10.8297 5.35253C11.0362 5.46447 11.2172 5.58898 11.3697 5.72303L11.8952 4.69815C11.1712 4.28631 10.246 4.00505 9.23747 3.89013C8.22891 3.77521 7.18246 3.83182 6.23116 4.05276C5.27986 4.2737 4.46668 4.649 3.89499 5.13094C3.3233 5.61288 3.01893 6.17969 3.02057 6.75932H2.91922V6.75946V6.75986V6.7604V6.76094V6.76148V6.76202V6.76256V6.7631V6.76364V6.76419V6.76473V6.76527V6.76581V6.76635V6.76689V6.76743V6.76797V6.76851V6.76905V6.76959V6.77013V6.77068V6.77122V6.77176V6.7723V6.77284V6.77338V6.77392V6.77446V6.775V6.77554V6.77608V6.77662V6.77717V6.77771V6.77825V6.77879V6.77933V6.77987V6.78041V6.78095V6.78149V6.78203V6.78258V6.78312V6.78366V6.7842V6.78474V6.78528V6.78582V6.78636V6.78691V6.78745V6.78799V6.78853V6.78907V6.78961V6.79015V6.79069V6.79124V6.79178V6.79232V6.79286V6.7934V6.79394V6.79448V6.79503V6.79557V6.79611V6.79665V6.79719V6.79773V6.79827V6.79882V6.79936V6.7999V6.80044V6.80098V6.80153V6.80207V6.80261V6.80315V6.80369V6.80423V6.80478V6.80532V6.80586V6.8064V6.80694V6.80749V6.80803V6.80857V6.80911V6.80966V6.8102V6.81074V6.81128V6.81183V6.81237V6.81291V6.81345V6.81399V6.81454V6.81508V6.81562V6.81617V6.81671V6.81725V6.81779V6.81834V6.81888V6.81942V6.81996V6.82051V6.82105V6.82159V6.82214V6.82268V6.82322V6.82377V6.82431V6.82485V6.8254V6.82594V6.82648V6.82703V6.82757V6.82811V6.82866V6.8292V6.82974V6.83029V6.83083V6.83138V6.83192V6.83246V6.83301V6.83355V6.83409V6.83464V6.83518V6.83573V6.83627V6.83682V6.83736V6.8379V6.83845V6.83899V6.83954V6.84008V6.84063V6.84117V6.84172V6.84226V6.84281V6.84335V6.8439V6.84444V6.84499V6.84553V6.84608V6.84662V6.84717V6.84771V6.84826V6.8488V6.84935V6.84989V6.85044V6.85098V6.85153V6.85208V6.85262V6.85317V6.85371V6.85426V6.85481V6.85535V6.8559V6.85644V6.85699V6.85754V6.85808V6.85863V6.85918V6.85972V6.86027V6.86082V6.86136V6.86191V6.86246V6.863V6.86355V6.8641V6.86465V6.86519V6.86574V6.86629V6.86684V6.86738V6.86793V6.86848V6.86903V6.86957V6.87012V6.87067V6.87122V6.87177V6.87231V6.87286V6.87341V6.87396V6.87451V6.87506V6.8756V6.87615V6.8767V6.87725V6.8778V6.87835V6.8789V6.87945V6.88V6.88055V6.88109V6.88164V6.88219V6.88274V6.88329V6.88384V6.88439V6.88494V6.88549V6.88604V6.88659V6.88714V6.88769V6.88824V6.88879V6.88934V6.88989V6.89045V6.891V6.89155V6.8921V6.89265V6.8932V6.89375V6.8943V6.89485V6.89541V6.89596V6.89651V6.89706V6.89761V6.89816V6.89872V6.89927V6.89982V6.90037V6.90092V6.90148V6.90203V6.90258V6.90314V6.90369V6.90424V6.90479V6.90535V6.9059V6.90645V6.90701V6.90756V6.90811V6.90867V6.90922V6.90977V6.91033V6.91088V6.91144V6.91199V6.91255V6.9131V6.91365V6.91421V6.91476V6.91532V6.91587V6.91643V6.91698V6.91754V6.91809V6.91865V6.9192V6.91976V6.92032V6.92087V6.92143V6.92198V6.92254V6.9231V6.92365V6.92421V6.92476V6.92532V6.92588V6.92644V6.92699V6.92755V6.92811V6.92866V6.92922V6.92978V6.93034V6.93089V6.93145V6.93201V6.93257V6.93312V6.93368V6.93424V6.9348V6.93536V6.93592V6.93648V6.93703V6.93759V6.93815V6.93871V6.93927V6.93983V6.94039V6.94095V6.94151V6.94207V6.94263V6.94319V6.94375V6.94431V6.94487V6.94543V6.94599V6.94655V6.94711V6.94767V6.94824V6.9488V6.94936V6.94992V6.95048V6.95104V6.95161V6.95217V6.95273V6.95329V6.95385V6.95442V6.95498V6.95554V6.9561V6.95667V6.95723V6.95779V6.95836V6.95892V6.95948V6.96005V6.96061V6.96118V6.96174V6.9623V6.96287V6.96343V6.964V6.96456V6.96513V6.96569V6.96626V6.96682V6.96739V6.96795V6.96852V6.96909V6.96965V6.97022V6.97078V6.97135V6.97192V6.97248V6.97305V6.97362V6.97418V6.97475V6.97532V6.97589V6.97645V6.97702V6.97759V6.97816V6.97872V6.97929V6.97986V6.98043V6.981V6.98157V6.98214V6.9827V6.98327V6.98384V6.98441V6.98498V6.98555V6.98612V6.98669V6.98726V6.98783V6.9884V6.98897V6.98954V6.99011V6.99069V6.99126V6.99183V6.9924V6.99297V6.99354V6.99412V6.99469V6.99526V6.99583V6.9964V6.99698V6.99755V6.99812V6.9987V6.99927V6.99984V7.00042V7.00099V7.00156V7.00214V7.00271V7.00329V7.00386V7.00443V7.00501V7.00558V7.00616V7.00673V7.00731V7.00789V7.00846V7.00904V7.00961V7.01019V7.01077V7.01134V7.01192V7.01249V7.01307V7.01365V7.01423V7.0148V7.01538V7.01596V7.01654V7.01711V7.01769V7.01827V7.01885V7.01943V7.02001V7.02059V7.02117V7.02174V7.02232V7.0229V7.02348V7.02406V7.02464V7.02522V7.0258V7.02638V7.02697V7.02755V7.02813V7.02871V7.02929V7.02987V7.03045V7.03104V7.03162V7.0322V7.03278V7.03337V7.03395V7.03453V7.03511V7.0357V7.03628V7.03686V7.03745V7.03803V7.03862V7.0392V7.03979V7.04037V7.04095V7.04154V7.04213V7.04271V7.0433V7.04388V7.05275L2.92076 7.06148C3.04681 7.77629 3.60284 8.42796 4.46568 8.91637L4.46653 8.91684C4.56164 8.96949 4.66004 9.02008 4.76151 9.06855C4.36411 9.51474 4.2164 10.0323 4.36359 10.5443L4.36358 10.5443L4.36397 10.5456C4.40747 10.6898 4.54201 10.7979 4.70539 10.8632C4.87199 10.9298 5.07432 10.9551 5.26937 10.9364C5.46344 10.9178 5.64546 10.8561 5.77146 10.756C5.8992 10.6546 5.96974 10.51 5.92335 10.3563L5.92315 10.3557C5.86609 10.1711 5.87954 9.98211 5.96479 9.79834C6.05075 9.61302 6.20939 9.43419 6.43692 9.27685L6.43693 9.27686L6.43834 9.27585C6.50938 9.2249 6.56647 9.16161 6.59861 9.08745C6.63143 9.01171 6.63553 8.93041 6.60926 8.85221C6.58352 8.77557 6.53125 8.70931 6.46397 8.65547C6.39669 8.60163 6.31303 8.55897 6.22031 8.52826C5.95929 8.44012 5.72001 8.33418 5.50786 8.21329L5.5072 8.21292C4.8963 7.87086 4.53636 7.43002 4.45916 6.97695C4.45347 6.914 4.45359 6.85096 4.45949 6.78801L4.45992 6.78805L4.45993 6.77872C4.4606 6.39149 4.66495 6.00196 5.06947 5.66182C5.47431 5.3214 6.05525 5.05187 6.74224 4.89221C7.42852 4.73272 8.1846 4.69131 8.91387 4.77372C9.64349 4.85616 10.3094 5.05836 10.8282 5.35166L10.8282 5.35167L10.8297 5.35253ZM4.93203 9.03583C4.89904 9.02103 4.86637 9.00601 4.83403 8.99078L4.85757 9.11338C4.88146 9.0873 4.90628 9.06145 4.93203 9.03583Z" fill="#E86C02" stroke="#E86C02" stroke-width="0.2"/>
<path d="M14.6896 10.9205C14.7867 10.9208 14.8834 10.9103 14.9744 10.8894C15.0654 10.8684 15.1503 10.8371 15.2237 10.7961C15.2971 10.7551 15.3601 10.7038 15.4052 10.6428C15.4507 10.5811 15.4775 10.5102 15.4775 10.4346C15.4775 10.359 15.4507 10.2881 15.4052 10.2264C15.3601 10.1655 15.2972 10.1142 15.2239 10.0732C15.2238 10.0732 15.2238 10.0731 15.2237 10.0731L9.81052 7.02001L9.81047 7.01998C9.73718 6.9787 9.65236 6.94711 9.56138 6.92588C9.47027 6.90463 9.37339 6.89384 9.27604 6.89384C9.17869 6.89384 9.08181 6.90463 8.9907 6.92588C8.89972 6.94711 8.8149 6.97869 8.74161 7.01998C8.66855 7.06113 8.60596 7.11252 8.56111 7.17351C8.51582 7.2351 8.48923 7.30592 8.48923 7.38131C8.48923 7.45669 8.51582 7.52751 8.56111 7.58911C8.60595 7.65008 8.66852 7.70146 8.74156 7.74261C8.74157 7.74262 8.74159 7.74262 8.74161 7.74263L14.1551 10.7959L14.1555 10.7961C14.2289 10.8371 14.3138 10.8684 14.4048 10.8894C14.4958 10.9103 14.5925 10.9208 14.6896 10.9205ZM14.6896 10.9205C14.6895 10.9205 14.6894 10.9205 14.6892 10.9205L14.6896 10.8191L14.6899 10.9205C14.6898 10.9205 14.6897 10.9205 14.6896 10.9205Z" fill="#E86C02" stroke="#E86C02" stroke-width="0.2"/>
<path d="M15.664 10.9216C15.7802 10.9227 15.8959 10.907 16.0006 10.8752C16.1738 10.8253 16.3237 10.7342 16.3982 10.6063C16.4367 10.5403 16.4531 10.4675 16.4434 10.3936C16.4337 10.3203 16.3993 10.253 16.3478 10.1952L16.3477 10.1951C15.9234 9.72097 15.7325 9.31564 15.7386 8.97871C15.7446 8.65071 15.9389 8.35692 16.3648 8.10409L16.365 8.104C16.5069 8.01942 16.6092 7.89044 16.6014 7.73567C16.5938 7.58282 16.4812 7.46013 16.3334 7.38143C16.1832 7.30144 15.9891 7.26106 15.7938 7.26415C15.5987 7.26725 15.408 7.31368 15.2645 7.39921L15.2644 7.39926C14.8024 7.67521 14.3509 8.07506 14.2104 8.62743C14.0682 9.18641 14.2528 9.86518 14.9815 10.6764C15.0529 10.7562 15.1562 10.8174 15.2744 10.8586C15.3933 10.9 15.528 10.9214 15.664 10.9216ZM15.664 10.9216C15.6638 10.9216 15.6637 10.9216 15.6636 10.9216L15.6646 10.8203L15.6644 10.9216C15.6643 10.9216 15.6641 10.9216 15.664 10.9216Z" fill="#E86C02" stroke="#E86C02" stroke-width="0.2"/>
<path d="M8.14176 23.0691L8.14166 23.0691C4.33659 21.0432 1.9507 18.8135 0.839405 16.7852C0.283407 15.7704 0.0443424 14.802 0.111616 13.9334C0.179027 13.0631 0.553696 12.2997 1.21243 11.6991L1.28071 11.7739L1.21188 11.6996C1.28615 11.6308 1.38562 11.5781 1.49742 11.5425C1.60975 11.5068 1.7347 11.4883 1.86074 11.488L1.86098 11.488L42.1382 11.488H42.1385C42.2645 11.4883 42.3895 11.5068 42.5018 11.5425C42.6135 11.578 42.7128 11.6307 42.7871 11.6993C43.4456 12.2999 43.8202 13.0632 43.8876 13.9334C43.9549 14.802 43.7158 15.7704 43.1598 16.7852C42.0485 18.8135 39.6626 21.0432 35.8576 23.0691L35.8575 23.0691C34.191 23.9539 31.9928 24.4436 29.7137 24.4422M8.14176 23.0691L29.7137 24.3409M8.14176 23.0691C9.80824 23.9539 12.0064 24.4436 14.2855 24.4422M8.14176 23.0691L14.2855 24.3409M29.7137 24.4422L29.7137 24.3409M29.7137 24.4422H29.7137V24.3409M29.7137 24.4422H14.2855M29.7137 24.3409H14.2855M14.2855 24.4422L14.2855 24.3409M14.2855 24.4422H14.2855V24.3409M14.2855 23.4705L14.2853 23.4705C12.3789 23.4738 10.5479 23.0633 9.1723 22.3288C6.52177 20.9124 4.19708 19.0657 2.84594 17.2514C2.17024 16.344 1.74309 15.4516 1.6343 14.6303C1.5279 13.827 1.72514 13.0886 2.3011 12.4598H41.6981C42.2741 13.0886 42.4713 13.8277 42.3649 14.6319C42.2561 15.4541 41.829 16.3477 41.1533 17.2557C39.8021 19.0715 37.4775 20.9181 34.8271 22.3287L34.827 22.3288C33.4514 23.0632 31.6204 23.4738 29.7139 23.4705H29.7137H14.2855ZM9.12454 22.4182C10.5177 23.162 12.3659 23.5752 14.2855 23.5718L9.12454 22.4182Z" fill="#E86C02" stroke="#E86C02" stroke-width="0.2"/>
<path d="M29.1049 6.53693C29.2767 6.52835 29.4423 6.48598 29.572 6.41288C29.7002 6.34067 29.7989 6.23436 29.8197 6.10233C29.8446 5.95813 30.2215 3.14499 27.2981 1.50215C25.8451 0.685609 23.885 0.340065 22.2714 0.196998C20.8314 0.0693341 19.6538 0.102069 19.3424 0.110724C19.3043 0.111784 19.2791 0.112482 19.2681 0.112482V0.112332L19.2626 0.112633C19.0916 0.121957 18.927 0.164806 18.7983 0.238112C18.6715 0.310328 18.5741 0.41618 18.5537 0.547338C18.5286 0.69257 18.1525 3.48556 21.075 5.13961L21.0752 5.13971C22.1969 5.77159 23.6192 6.12386 24.9485 6.31878C26.2794 6.51393 27.5254 6.5525 28.2997 6.5525C28.7527 6.5525 29.0483 6.54123 29.1049 6.53693ZM29.1049 6.53693C29.1055 6.53688 29.1061 6.53684 29.1066 6.5368L29.0985 6.43578L29.1034 6.537C29.1039 6.53698 29.1044 6.53695 29.1049 6.53693ZM22.1371 4.42083C20.3809 3.43517 20.1146 1.83563 20.0944 1.06883C20.7617 1.07008 21.8075 1.10265 22.9153 1.25207C24.0834 1.40963 25.311 1.69592 26.2366 2.20589C27.9923 3.19149 28.2588 4.79422 28.279 5.56141C27.6136 5.55972 26.5593 5.53225 25.4409 5.38214C24.2814 5.22651 23.0625 4.94022 22.1371 4.42083Z" fill="#E86C02" stroke="#E86C02" stroke-width="0.2"/>
</svg>
