<svg width="56" height="47" viewBox="0 0 56 47" fill="none" xmlns="http://www.w3.org/2000/svg">
<path d="M54.7331 33.1611C54.6454 33.0712 52.3651 31.2739 49.4709 29.5664C48.0676 28.6678 46.8397 28.0387 45.6996 27.4995C46.4012 25.7022 46.9275 23.1859 47.1906 19.771C47.4537 16.3561 47.366 13.3905 47.366 13.3007C47.366 13.0311 47.2783 12.8513 47.1029 12.6716C46.9275 12.4919 46.752 12.4919 46.4889 12.4919C46.4012 12.4919 43.507 12.9412 40.262 13.75C38.0694 14.2892 36.3153 14.9183 34.8243 15.5473C34.1227 14.1993 33.2456 12.7615 32.1055 11.054C30.176 8.26816 28.2465 6.11137 28.1588 6.02151L28.0711 5.93164C28.0711 5.93164 28.0711 5.93164 27.9834 5.93164C27.9834 5.93164 27.9834 5.93164 27.8957 5.93164C27.8957 5.93164 27.8957 5.93164 27.808 5.93164C27.808 5.93164 27.808 5.93164 27.7203 5.93164C27.7203 5.93164 27.7203 5.93164 27.6326 5.93164C27.6326 5.93164 27.6326 5.93164 27.5449 5.93164C27.5449 5.93164 27.5449 5.93164 27.4572 5.93164C27.3695 5.93164 27.3695 6.02151 27.2818 6.11137C27.1941 6.20124 25.2646 8.35803 23.3351 11.1439C22.195 12.7615 21.2302 14.2892 20.6163 15.6372C19.213 15.0081 17.3712 14.3791 15.1786 13.8399C11.9336 13.0311 9.12707 12.6716 8.95166 12.5817C8.68855 12.5817 8.51314 12.5817 8.33773 12.7615C8.16232 12.9412 8.07462 13.1209 8.07462 13.3905C8.07462 13.4804 7.98692 16.446 8.25003 19.8609C8.51314 23.2758 8.95166 25.8819 9.74099 27.5894C8.60084 28.1286 7.37299 28.8475 5.96973 29.6563C3.0755 31.4536 0.795195 33.251 0.707491 33.251C0.0935633 33.3408 0.00585938 33.6104 0.00585938 33.88C0.00585938 34.1496 0.0935633 34.3293 0.356675 34.5091C0.707491 34.7787 8.25003 40.4403 13.7754 41.0693C15.354 41.249 16.7573 41.3389 18.1606 41.3389C20.6163 41.3389 22.8089 41.0693 24.4753 40.4402C25.6154 39.9909 26.6678 39.4517 27.5449 38.8227C28.4219 39.5416 29.3867 40.0808 30.6145 40.4402C32.3686 41.0693 34.4735 41.3389 36.9292 41.3389C38.2448 41.3389 39.7357 41.249 41.3144 41.0693C46.8397 40.4403 54.3823 34.7787 54.7331 34.5091C54.9085 34.3293 55.0839 34.1496 55.0839 33.88C54.9962 33.6104 54.9085 33.3408 54.7331 33.1611ZM27.5449 29.5664C28.2465 30.2854 29.299 31.7232 28.8604 33.6104C28.5973 34.7787 28.1588 35.7672 27.5449 36.576C26.8433 35.7672 26.4047 34.7787 26.2293 33.6104C25.7031 31.7232 26.8433 30.2854 27.5449 29.5664ZM41.0513 39.4517C36.8415 39.9011 33.5088 39.7213 31.053 38.9125C30.0883 38.5531 29.299 38.1936 28.685 37.6544C29.5621 36.6659 30.0883 35.4077 30.4391 33.9699C31.1407 30.8246 28.9482 28.6678 28.2465 28.0387C28.0711 27.7691 27.808 27.6793 27.5449 27.6793C27.2818 27.6793 27.0187 27.7691 26.8433 28.0387C26.0539 28.6678 23.949 30.8246 24.6507 33.9699C25.0015 35.4077 25.5277 36.6659 26.4047 37.6544C25.7031 38.1936 24.9138 38.5531 24.0367 38.9125C21.581 39.7213 18.2483 39.9011 14.0385 39.4517C10.0041 39.0024 4.39106 35.3179 2.28616 33.88C4.21565 32.4422 7.37299 30.2854 10.2672 28.9374C10.3549 29.0272 10.3549 29.1171 10.4426 29.1171C12.109 31.184 14.5647 32.2624 17.0204 32.2624C18.2483 32.2624 19.3884 31.9928 20.5286 31.4536C20.6163 31.4536 20.7917 31.3638 20.8794 31.3638C21.2302 31.0942 21.3179 30.6448 21.1425 30.2854C21.1425 30.1955 21.0548 30.1955 21.0548 30.1056C19.5638 27.7691 17.1958 26.3313 14.5647 26.1515C13.6 26.0617 12.3721 26.3313 10.9688 26.8705C9.65329 23.7251 9.39018 17.4345 9.47788 14.1993C12.109 14.6487 16.6696 15.5473 19.7392 16.9852C19.3007 18.0636 19.1253 19.0521 19.1253 19.8609C19.1253 23.0961 20.8794 26.0617 23.6859 27.5894C23.6859 27.5894 23.6859 27.5894 23.7736 27.5894C24.1244 27.7691 24.6507 27.5894 24.8261 27.2299C26.317 24.0846 25.8785 20.3102 23.6859 17.7041C23.2474 17.1649 22.6335 16.7156 21.8441 16.2662C23.3351 13.3007 26.0539 9.70602 27.7203 7.81883C29.3867 9.79589 32.1055 13.3007 33.5965 16.2662C32.8071 16.7156 32.1932 17.2548 31.7547 17.7041C29.5621 20.4001 29.1236 24.0846 30.6145 27.2299C30.7899 27.5894 31.3162 27.7691 31.667 27.5894C31.667 27.5894 31.667 27.5894 31.7547 27.5894C34.5612 26.0617 36.3153 23.0961 36.3153 19.8609C36.3153 19.0521 36.1399 18.0636 35.7014 16.9852C38.771 15.6372 43.3316 14.6487 45.9627 14.1993C46.0504 17.4345 45.7873 23.7251 44.4717 26.8705C43.0685 26.3313 41.8406 26.0617 40.8759 26.1515C38.2448 26.4211 35.8768 27.7691 34.3858 30.0158C34.2981 30.1056 34.2981 30.1955 34.2104 30.2854C34.1227 30.3752 34.1227 30.555 34.1227 30.6448C34.1227 30.9144 34.2104 31.184 34.4735 31.3638C34.5612 31.4536 34.6489 31.4536 34.8243 31.4536C35.9645 31.9928 37.1923 32.2624 38.3325 32.2624C40.7882 32.2624 43.2439 31.184 44.9103 29.1171C44.998 29.0272 44.998 28.9374 45.0857 28.8475C47.8922 30.1955 51.1372 32.3523 53.0667 33.7901C50.6987 35.3179 45.1734 39.0024 41.0513 39.4517ZM11.6705 28.2184C12.7229 27.859 13.6 27.6793 14.3016 27.6793C16.1434 27.859 17.8975 28.7576 19.0376 30.1955C16.4065 31.184 13.5123 30.3752 11.6705 28.2184ZM23.5105 25.7022C21.6687 24.3542 20.4409 22.1974 20.4409 19.771C20.4409 19.142 20.6163 18.423 20.8794 17.6142C21.4056 17.9737 21.8441 18.3332 22.1949 18.6926C23.8613 20.6697 24.2998 23.3657 23.5105 25.7022ZM34.4735 19.8609C34.4735 22.1974 33.3333 24.4441 31.4039 25.7921C30.7022 23.3657 31.1407 20.6697 32.7194 18.7825C32.9825 18.423 33.4211 18.0636 34.035 17.7041C34.2981 18.5129 34.4735 19.2318 34.4735 19.8609ZM43.3316 28.2184C41.4898 30.3752 38.5079 31.0942 35.9645 30.2854C37.1923 28.8475 38.8587 27.9488 40.7882 27.7691C41.4021 27.6793 42.3669 27.859 43.3316 28.2184Z" fill="#484B4F" fill-opacity="0.9"/>
</svg>
