<svg width="44" height="22" viewBox="0 0 44 22" fill="none" xmlns="http://www.w3.org/2000/svg">
<path d="M39.983 9.78575C39.7903 9.78571 39.6003 9.74742 39.455 9.67427C39.3141 9.60338 39.1993 9.48935 39.1993 9.34075V9.32356C39.1993 8.60632 38.6309 7.88995 37.5555 7.34859C36.4846 6.80952 35.0251 6.50385 33.4979 6.50385C31.9707 6.50385 30.5113 6.80952 29.4404 7.34859C28.365 7.88995 27.7966 8.60632 27.7966 9.32356C27.7966 9.47217 27.6817 9.58619 27.5409 9.65709C27.3955 9.73027 27.2054 9.76856 27.0126 9.76856C26.8198 9.76856 26.6297 9.73027 26.4843 9.65709C26.3436 9.58624 26.2287 9.4723 26.2286 9.32383M39.983 9.78575C40.0857 9.786 40.1878 9.77542 40.2832 9.75433C40.3783 9.73329 40.4664 9.70185 40.5409 9.66058C40.6149 9.61959 40.6781 9.56747 40.7197 9.50404L40.6349 9.44847L40.7197 9.50404C40.7604 9.44191 40.779 9.37059 40.7672 9.29708C40.7578 8.2861 39.9561 7.34629 38.5998 6.66679C37.235 5.98302 35.3936 5.60297 33.4807 5.60526C31.5679 5.60756 29.73 5.99201 28.3716 6.67911C27.0178 7.36389 26.2239 8.30932 26.2286 9.32383M39.983 9.78575L39.9833 9.6844M39.983 9.78575L39.9833 9.6844M39.983 9.78575C39.9831 9.78575 39.9832 9.78575 39.9833 9.78575V9.6844M39.983 9.78575L39.9833 9.6844M26.2286 9.32383C26.2286 9.3239 26.2286 9.32397 26.2286 9.32404L26.3299 9.32356H26.2286C26.2286 9.32365 26.2286 9.32374 26.2286 9.32383Z" fill="#E86C02" stroke="#E86C02" stroke-width="0.2"/>
<path d="M24.4603 9.79231L24.4579 9.7924C24.2922 9.79501 24.1272 9.76935 23.9893 9.7173C23.8543 9.66634 23.7385 9.58718 23.6834 9.47948L23.6821 9.47694L23.6821 9.47692C23.5844 9.27193 23.3697 9.07269 23.0456 8.90879C22.5563 8.66629 21.8917 8.52666 21.1928 8.52431H21.1927C21.0542 8.52378 20.9172 8.5035 20.7972 8.46458C20.6784 8.42606 20.5742 8.36851 20.5041 8.29223L20.5039 8.29203C20.4311 8.21238 20.3957 8.11096 20.4252 8.00504C20.453 7.90504 20.5321 7.82585 20.6295 7.76873C21.0132 7.53895 21.2029 7.26503 21.2122 7.00294C21.2215 6.74216 21.0528 6.46705 20.6871 6.23149C20.3229 5.99696 19.8023 5.82855 19.2101 5.75999C18.6187 5.69153 17.9989 5.72765 17.4559 5.86148L17.4547 5.86178L17.4547 5.86177C17.2812 5.90227 17.0851 5.90725 16.9054 5.87619C16.728 5.84551 16.5674 5.77967 16.4664 5.68085L16.4641 5.67856L16.4641 5.67852C16.3516 5.56097 16.1958 5.45112 16.0012 5.35579L16.0008 5.3556C15.5443 5.12939 14.9337 4.99206 14.2827 4.9734C13.632 4.95475 12.993 5.05616 12.4855 5.2559C12.4004 5.28984 12.3038 5.31351 12.2025 5.32626C12.101 5.33904 11.9956 5.34075 11.8929 5.33135C11.8928 5.33135 11.8928 5.33134 11.8928 5.33134L11.902 5.23042C11.8063 5.22171 11.7153 5.20279 11.6352 5.17494C11.5552 5.14708 11.4879 5.11093 11.4378 5.0689L24.4603 9.79231ZM24.4603 9.79231L24.631 9.78543L24.631 9.78584L24.64 9.78467C24.8253 9.76056 24.9959 9.69954 25.1082 9.60456C25.1652 9.55634 25.2089 9.49772 25.2287 9.43C25.2489 9.36094 25.2419 9.28997 25.2098 9.22454M24.4603 9.79231L22.5838 7.73305M6.18813 7.72878L6.21741 7.63176C5.95585 7.55284 5.71613 7.45799 5.50367 7.3498L5.50303 7.34948C4.8901 7.04277 4.53499 6.65021 4.45897 6.25363C4.45351 6.19905 4.45365 6.1444 4.45938 6.08983L4.45991 6.08988L4.45993 6.07944C4.46059 5.74223 4.65992 5.39746 5.06513 5.09297C5.46997 4.78874 6.05161 4.54746 6.7399 4.40451C7.42731 4.26175 8.18462 4.22468 8.91507 4.29844C9.64592 4.37225 10.3129 4.55325 10.8323 4.8157L10.8323 4.81571L10.8339 4.81645C11.0406 4.91662 11.2217 5.02793 11.374 5.14761L11.8952 4.22008C11.1712 3.85203 10.246 3.60068 9.23747 3.49798C8.22891 3.39528 7.18246 3.44587 6.23116 3.64332C5.27986 3.84076 4.46668 4.17615 3.89499 4.60684C3.3233 5.03753 3.01893 5.54407 3.02057 6.06206H2.91922V6.06222V6.06254V6.06303V6.06351V6.06399V6.06448V6.06496V6.06544V6.06593V6.06641V6.06689V6.06738V6.06786V6.06834V6.06883V6.06931V6.06979V6.07028V6.07076V6.07124V6.07173V6.07221V6.07269V6.07318V6.07366V6.07414V6.07463V6.07511V6.07559V6.07608V6.07656V6.07704V6.07753V6.07801V6.07849V6.07898V6.07946V6.07994V6.08043V6.08091V6.08139V6.08188V6.08236V6.08284V6.08333V6.08381V6.0843V6.08478V6.08526V6.08575V6.08623V6.08671V6.0872V6.08768V6.08816V6.08865V6.08913V6.08962V6.0901V6.09058V6.09107V6.09155V6.09203V6.09252V6.093V6.09349V6.09397V6.09445V6.09494V6.09542V6.09591V6.09639V6.09687V6.09736V6.09784V6.09833V6.09881V6.0993V6.09978V6.10026V6.10075V6.10123V6.10172V6.1022V6.10268V6.10317V6.10365V6.10414V6.10462V6.10511V6.10559V6.10608V6.10656V6.10705V6.10753V6.10801V6.1085V6.10898V6.10947V6.10995V6.11044V6.11092V6.11141V6.11189V6.11238V6.11286V6.11335V6.11383V6.11432V6.1148V6.11529V6.11577V6.11626V6.11674V6.11723V6.11771V6.1182V6.11868V6.11917V6.11965V6.12014V6.12063V6.12111V6.1216V6.12208V6.12257V6.12305V6.12354V6.12403V6.12451V6.125V6.12548V6.12597V6.12646V6.12694V6.12743V6.12791V6.1284V6.12889V6.12937V6.12986V6.13034V6.13083V6.13132V6.1318V6.13229V6.13278V6.13326V6.13375V6.13424V6.13472V6.13521V6.1357V6.13618V6.13667V6.13716V6.13764V6.13813V6.13862V6.13911V6.13959V6.14008V6.14057V6.14105V6.14154V6.14203V6.14252V6.143V6.14349V6.14398V6.14447V6.14495V6.14544V6.14593V6.14642V6.14691V6.14739V6.14788V6.14837V6.14886V6.14935V6.14983V6.15032V6.15081V6.1513V6.15179V6.15228V6.15277V6.15325V6.15374V6.15423V6.15472V6.15521V6.1557V6.15619V6.15668V6.15717V6.15765V6.15814V6.15863V6.15912V6.15961V6.1601V6.16059V6.16108V6.16157V6.16206V6.16255V6.16304V6.16353V6.16402V6.16451V6.165V6.16549V6.16598V6.16647V6.16696V6.16745V6.16794V6.16843V6.16892V6.16941V6.16991V6.1704V6.17089V6.17138V6.17187V6.17236V6.17285V6.17334V6.17383V6.17433V6.17482V6.17531V6.1758V6.17629V6.17678V6.17728V6.17777V6.17826V6.17875V6.17924V6.17974V6.18023V6.18072V6.18121V6.18171V6.1822V6.18269V6.18318V6.18368V6.18417V6.18466V6.18516V6.18565V6.18614V6.18663V6.18713V6.18762V6.18812V6.18861V6.1891V6.1896V6.19009V6.19058V6.19108V6.19157V6.19207V6.19256V6.19305V6.19355V6.19404V6.19454V6.19503V6.19553V6.19602V6.19652V6.19701V6.19751V6.198V6.1985V6.19899V6.19949V6.19998V6.20048V6.20098V6.20147V6.20197V6.20246V6.20296V6.20346V6.20395V6.20445V6.20494V6.20544V6.20594V6.20643V6.20693V6.20743V6.20792V6.20842V6.20892V6.20942V6.20991V6.21041V6.21091V6.21141V6.2119V6.2124V6.2129V6.2134V6.2139V6.21439V6.21489V6.21539V6.21589V6.21639V6.21689V6.21738V6.21788V6.21838V6.21888V6.21938V6.21988V6.22038V6.22088V6.22138V6.22188V6.22238V6.22288V6.22338V6.22388V6.22438V6.22488V6.22538V6.22588V6.22638V6.22688V6.22738V6.22788V6.22838V6.22888V6.22938V6.22989V6.23039V6.23089V6.23139V6.23189V6.23239V6.2329V6.2334V6.2339V6.2344V6.2349V6.23541V6.23591V6.23641V6.23692V6.23742V6.23792V6.23842V6.23893V6.23943V6.23993V6.24044V6.24094V6.24145V6.24195V6.24245V6.24296V6.24346V6.24397V6.24447V6.24497V6.24548V6.24598V6.24649V6.24699V6.2475V6.248V6.24851V6.24902V6.24952V6.25003V6.25053V6.25104V6.25154V6.25205V6.25256V6.25306V6.25357V6.25408V6.25458V6.25509V6.2556V6.25611V6.25661V6.25712V6.25763V6.25814V6.25864V6.25915V6.25966V6.26017V6.26068V6.26118V6.26169V6.2622V6.26271V6.26322V6.26373V6.26424V6.26475V6.26526V6.26576V6.26627V6.26678V6.26729V6.2678V6.26831V6.26882V6.26933V6.26985V6.27036V6.27087V6.27138V6.27189V6.2724V6.27291V6.27342V6.27393V6.27445V6.27496V6.27547V6.27598V6.27649V6.27701V6.27752V6.27803V6.27855V6.27906V6.27957V6.28008V6.2806V6.28111V6.28162V6.28214V6.28265V6.28317V6.28368V6.28419V6.28471V6.28522V6.28574V6.28625V6.28677V6.28728V6.2878V6.28831V6.28883V6.28935V6.28986V6.29038V6.29089V6.29141V6.29193V6.29244V6.29296V6.29348V6.29399V6.29451V6.29503V6.29555V6.29606V6.29658V6.2971V6.29762V6.29813V6.29865V6.29917V6.29969V6.30021V6.30073V6.30125V6.30177V6.30228V6.3028V6.30332V6.30384V6.30436V6.30488V6.3054V6.30592V6.30644V6.30697V6.30749V6.30801V6.30853V6.30905V6.30957V6.31009V6.31061V6.31114V6.31166V6.31218V6.3127V6.31323V6.31375V6.31427V6.31479V6.31532V6.31584V6.31636V6.32627L2.92114 6.33598C3.04874 6.98264 3.60939 7.56608 4.46985 8.00135L4.47067 8.00176C4.56077 8.04632 4.65382 8.08924 4.74963 8.13046C4.36292 8.52687 4.21621 8.98952 4.36451 9.45059L4.3645 9.45059L4.36497 9.45198C4.41066 9.58728 4.54873 9.68368 4.70892 9.74089C4.87421 9.79991 5.07488 9.82232 5.26835 9.80576C5.46064 9.78931 5.64139 9.73467 5.76708 9.64548C5.89341 9.55584 5.97299 9.42026 5.92234 9.27029L5.9221 9.26958C5.86691 9.11003 5.87955 8.94688 5.9628 8.78649C6.0473 8.6237 6.2045 8.46454 6.43256 8.3236L6.43257 8.32361L6.43396 8.32271C6.50453 8.27749 6.56319 8.22016 6.59681 8.15082C6.63164 8.079 6.63625 8.00058 6.60806 7.92558C6.58085 7.85319 6.52658 7.79275 6.4596 7.74486C6.39225 7.69669 6.30888 7.6588 6.21687 7.63159L6.18813 7.72878ZM6.18813 7.72878C6.27212 7.75361 6.34458 7.7872 6.40065 7.82729C6.45671 7.86738 6.49509 7.91305 6.51319 7.96123C6.5313 8.0094 6.52872 8.05897 6.50562 8.10661C6.48252 8.15424 6.43944 8.19883 6.37928 8.23739L5.45768 7.44011C5.67617 7.55137 5.92157 7.64835 6.18813 7.72878ZM22.5838 7.73305C23.1927 7.84183 23.745 8.02305 24.1931 8.26388C24.6818 8.52655 25.0375 8.85546 25.2098 9.22454M22.5838 7.73305C22.8382 7.38843 22.9217 7.00696 22.8084 6.62828C22.6814 6.20398 22.3187 5.82204 21.7875 5.52005C21.2548 5.21717 20.5642 5.00089 19.8005 4.89414C19.0496 4.78918 18.2555 4.79392 17.51 4.90767C17.3867 4.82544 17.2524 4.74801 17.1084 4.67587C16.4731 4.35723 15.6551 4.15297 14.7774 4.0903C13.9154 4.02875 13.0363 4.10666 12.2662 4.31345L22.5838 7.73305ZM25.2098 9.22454C25.21 9.22488 25.2102 9.22521 25.2103 9.22555L25.1185 9.26835L25.2093 9.22338C25.2095 9.22377 25.2097 9.22416 25.2098 9.22454Z" fill="#E86C02" stroke="#E86C02" stroke-width="0.2"/>
<path d="M14.6896 9.79138C14.7859 9.79164 14.8818 9.78235 14.9721 9.76379C15.0623 9.74524 15.1465 9.71749 15.2195 9.68104C15.2924 9.64469 15.3558 9.59876 15.4018 9.54315C15.4484 9.48686 15.4775 9.41979 15.4775 9.34638C15.4775 9.27297 15.4484 9.2059 15.4018 9.1496C15.3558 9.09404 15.2925 9.04815 15.2197 9.01181C15.2197 9.01178 15.2196 9.01174 15.2195 9.01171L9.80635 6.28327L9.8063 6.28325C9.73343 6.24657 9.64924 6.21857 9.55904 6.19976C9.46868 6.18092 9.37259 6.17136 9.27604 6.17136C9.17948 6.17136 9.0834 6.18092 8.99304 6.19976C8.90284 6.21857 8.81865 6.24657 8.74578 6.28325C8.67331 6.31973 8.61025 6.36572 8.5645 6.42132C8.51818 6.47762 8.48923 6.54457 8.48923 6.61777C8.48923 6.69097 8.51818 6.75792 8.5645 6.81421C8.61024 6.8698 8.67328 6.91578 8.74573 6.95226C8.74575 6.95227 8.74576 6.95228 8.74578 6.95228L14.1593 9.68087L14.1596 9.68104C14.2326 9.71749 14.3169 9.74524 14.4071 9.76379C14.4974 9.78235 14.5933 9.79164 14.6896 9.79138ZM14.6896 9.79138C14.6895 9.79138 14.6894 9.79138 14.6893 9.79138L14.6896 9.69003L14.6899 9.79138C14.6898 9.79138 14.6897 9.79138 14.6896 9.79138Z" fill="#E86C02" stroke="#E86C02" stroke-width="0.2"/>
<path d="M15.664 9.79216C15.7792 9.79315 15.894 9.77923 15.9977 9.75099C16.1685 9.7071 16.3192 9.62641 16.3956 9.50933C16.4356 9.44802 16.4537 9.3783 16.4431 9.30654C16.4327 9.23589 16.396 9.17315 16.3439 9.12094L16.3438 9.12082C15.9188 8.69637 15.7326 8.33809 15.7386 8.04549C15.7443 7.763 15.9319 7.50255 16.3606 7.27511L16.3607 7.27503C16.4993 7.20123 16.6098 7.0834 16.6014 6.93308C16.5932 6.78579 16.4736 6.67473 16.3293 6.60608C16.1801 6.53509 15.9877 6.49932 15.794 6.50207C15.6005 6.50481 15.4114 6.54593 15.2688 6.62189L15.2687 6.62193C14.8087 6.86741 14.3535 7.22564 14.2111 7.72573C14.066 8.23592 14.257 8.84885 14.9854 9.57358M15.664 9.79216C15.5292 9.79192 15.3956 9.77296 15.2777 9.73627C15.1607 9.69989 15.0575 9.64552 14.9854 9.57358M15.664 9.79216C15.6639 9.79216 15.6638 9.79216 15.6637 9.79216L15.6646 9.69082M15.664 9.79216C15.6642 9.79216 15.6643 9.79216 15.6644 9.79216L15.6646 9.69082M14.9854 9.57358C14.9854 9.57356 14.9854 9.57353 14.9854 9.57351L15.057 9.50181M14.9854 9.57358C14.9855 9.57361 14.9855 9.57363 14.9855 9.57366L15.057 9.50181M15.057 9.50181C15.1137 9.55848 15.2005 9.60614 15.3078 9.6395C15.415 9.67287 15.5385 9.69063 15.6646 9.69082M15.057 9.50181C13.6234 8.07565 14.4085 7.19589 15.3164 6.71134C15.4413 6.64481 15.6137 6.60598 15.7954 6.6034C15.9772 6.60083 16.1536 6.63471 16.2858 6.6976C16.418 6.76048 16.4951 6.84723 16.5002 6.93874C16.5053 7.03026 16.438 7.11905 16.3131 7.18558C15.4256 7.65639 15.412 8.33339 16.2721 9.19252C16.3531 9.27368 16.367 9.36768 16.3107 9.45397C16.2544 9.54025 16.1326 9.61182 15.9718 9.65302L15.6646 9.69082" fill="#E86C02" stroke="#E86C02" stroke-width="0.2"/>
<path d="M8.14584 20.6486L8.14575 20.6485C4.34185 18.8387 1.95474 16.8459 0.841885 15.0308C0.284937 14.1223 0.0439268 13.2529 0.111692 12.471C0.179652 11.6869 0.557374 11.0016 1.21669 10.4644L1.28071 10.5429L1.21613 10.4648C1.29063 10.4032 1.38971 10.3564 1.50043 10.3249C1.61184 10.2932 1.73576 10.2769 1.86076 10.2766L1.86098 10.2766L42.1382 10.2766H42.1385C42.2635 10.2769 42.3874 10.2932 42.4988 10.3249C42.6094 10.3563 42.7083 10.4031 42.7828 10.4646M8.14584 20.6486L29.7137 21.7735M8.14584 20.6486C9.81132 21.4388 12.008 21.876 14.2855 21.8749M8.14584 20.6486L14.2855 21.7735M42.7828 10.4646C43.442 11.0018 43.8196 11.687 43.8875 12.471C43.9553 13.2529 43.7143 14.1223 43.1573 15.0308C42.0445 16.8459 39.6574 18.8387 35.8535 20.6485L35.8534 20.6486C34.1879 21.4388 31.9913 21.876 29.7137 21.8749M42.7828 10.4646C42.7827 10.4645 42.7826 10.4644 42.7825 10.4644L42.7185 10.5429L42.7831 10.4648C42.783 10.4647 42.7829 10.4647 42.7828 10.4646ZM29.7137 21.8749L29.7137 21.7735M29.7137 21.8749H29.7137V21.7735M29.7137 21.8749H14.2855M29.7137 21.7735H14.2855M14.2855 21.8749L14.2855 21.7735M14.2855 21.8749H14.2855V21.7735M14.2855 20.9849L14.2853 20.9849C12.3773 20.9879 10.5448 20.6206 9.16821 19.9638C6.51697 18.6977 4.19273 17.0474 2.84251 15.4271C2.16707 14.6165 1.74214 13.8216 1.63408 13.0925C1.52871 12.3817 1.72318 11.7269 2.29774 11.1666H41.7015C42.276 11.7269 42.4705 12.3823 42.3651 13.094C42.2571 13.8239 41.8321 14.6198 41.1567 15.431C39.8065 17.0525 37.4823 18.7028 34.8312 19.9637L34.831 19.9638C33.4544 20.6206 31.6219 20.9879 29.7139 20.9849H29.7137H14.2855ZM9.12454 20.0553C10.5177 20.72 12.3659 21.0892 14.2855 21.0862L9.12454 20.0553Z" fill="#E86C02" stroke="#E86C02" stroke-width="0.2"/>
<path d="M29.8194 5.47856C29.833 5.40774 29.932 4.74926 29.666 3.92303C29.3969 3.08722 28.7562 2.08664 27.2939 1.35227C25.842 0.623131 23.8835 0.314508 22.2704 0.186705C20.8314 0.0726878 19.6546 0.101896 19.3427 0.109638C19.3045 0.110587 19.2792 0.111214 19.2681 0.111214V0.111094L19.2631 0.111334C19.0936 0.119596 18.9304 0.157546 18.8025 0.222641C18.6783 0.285887 18.5759 0.38159 18.554 0.506941C18.5403 0.578029 18.4415 1.23215 18.7074 2.05521C18.9766 2.88802 19.6172 3.88669 21.0792 4.62616L21.0794 4.62624C22.2003 5.1905 23.6214 5.50509 24.95 5.6792C26.2803 5.85351 27.5257 5.88797 28.2997 5.88797C28.7531 5.88797 29.0485 5.87787 29.1042 5.87406C29.2746 5.86648 29.4389 5.82895 29.5679 5.76402C29.6935 5.70079 29.7971 5.60472 29.8194 5.47856ZM29.8194 5.47856C29.8194 5.47815 29.8195 5.47774 29.8196 5.47733L29.7197 5.46015L29.8191 5.4799C29.8192 5.47948 29.8193 5.47903 29.8194 5.47856ZM22.1329 3.96058C20.3875 3.0851 20.1173 1.67089 20.0947 0.987419C20.7623 0.988543 21.8085 1.01767 22.9167 1.15126C24.0855 1.29214 25.3142 1.54819 26.2408 2.00439C27.9858 2.87982 28.256 4.29685 28.2786 4.98071C27.613 4.97919 26.5583 4.95462 25.4395 4.82042C24.2793 4.68126 23.0593 4.42521 22.1329 3.96058Z" fill="#E86C02" stroke="#E86C02" stroke-width="0.2"/>
</svg>
