<svg width="44" height="44" viewBox="0 0 44 44" fill="none" xmlns="http://www.w3.org/2000/svg">
<path d="M34.124 0H9.876C4.42163 0 0 4.42163 0 9.876V34.124C0 39.5784 4.42163 44 9.876 44H34.124C39.5784 44 44 39.5784 44 34.124V9.876C44 4.42163 39.5784 0 34.124 0Z" fill="#0B86CA"/>
<path d="M12.1931 18.2888H16.7654V33.0418H12.1931V18.2888ZM14.525 10.958C15.0488 10.958 15.5609 11.1132 15.9967 11.4039C16.4325 11.6946 16.7724 12.1079 16.9735 12.5916C17.1747 13.0753 17.2281 13.6077 17.127 14.1217C17.0259 14.6357 16.7748 15.1082 16.4055 15.4797C16.0361 15.8512 15.565 16.1049 15.0516 16.209C14.5382 16.313 14.0055 16.2626 13.5207 16.0643C13.0358 15.8659 12.6206 15.5284 12.3274 15.0943C12.0342 14.6602 11.8761 14.149 11.8731 13.6251C11.8711 13.2756 11.9382 12.9291 12.0706 12.6056C12.2029 12.2821 12.398 11.988 12.6444 11.7401C12.8909 11.4922 13.1839 11.2955 13.5066 11.1613C13.8294 11.0271 14.1754 10.958 14.525 10.958Z" fill="white"/>
<path d="M19.691 18.2884H24.0956V20.3002C24.5365 19.5477 25.1734 18.9291 25.9384 18.5104C26.7034 18.0917 27.5678 17.8885 28.4392 17.9226C33.0114 17.9226 33.9411 20.9708 33.9411 24.9486V33.0414H29.3689V25.9088C29.3689 24.2018 29.3689 21.9919 26.9913 21.9919C24.6138 21.9919 24.248 23.8513 24.248 25.7716V33.0719H19.6758L19.691 18.2884Z" fill="white"/>
</svg>
