<svg width="24" height="24" viewBox="0 0 24 24" fill="none" xmlns="http://www.w3.org/2000/svg">
<path d="M5.59922 5.59961C4.27642 5.59961 3.19922 6.67681 3.19922 7.99961V15.9996C3.19922 17.3224 4.27642 18.3996 5.59922 18.3996H18.3992C19.722 18.3996 20.7992 17.3224 20.7992 15.9996V7.99961C20.7992 6.67681 19.722 5.59961 18.3992 5.59961H5.59922ZM5.59922 6.39961H18.3992C19.2924 6.39961 19.9992 7.10641 19.9992 7.99961V15.9996C19.9992 16.8928 19.2924 17.5996 18.3992 17.5996H5.59922C5.38866 17.6012 5.17988 17.5609 4.98504 17.4811C4.7902 17.4012 4.61318 17.2834 4.46429 17.1345C4.31539 16.9856 4.1976 16.8086 4.11776 16.6138C4.03792 16.4189 3.99762 16.2102 3.99922 15.9996V7.99961C3.99922 7.10641 4.70602 6.39961 5.59922 6.39961Z" fill="#070710"/>
<path d="M6.01112 8.00016C5.95666 7.99861 5.90245 8.00821 5.85182 8.02837C5.8012 8.04852 5.75523 8.0788 5.71672 8.11736C5.64174 8.19237 5.59961 8.2941 5.59961 8.40016C5.59961 8.50623 5.64174 8.60795 5.71672 8.68296L10.5167 13.483C11.3323 14.299 12.6667 14.299 13.4823 13.483L18.2823 8.68296C18.3573 8.60795 18.3994 8.50623 18.3994 8.40016C18.3994 8.2941 18.3573 8.19237 18.2823 8.11736C18.2073 8.04237 18.1056 8.00025 17.9995 8.00025C17.8935 8.00025 17.7917 8.04237 17.7167 8.11736L12.9167 12.9174C12.7967 13.0385 12.6538 13.1347 12.4964 13.2003C12.339 13.266 12.1701 13.2997 11.9995 13.2997C11.829 13.2997 11.6601 13.266 11.5027 13.2003C11.3452 13.1347 11.2024 13.0385 11.0823 12.9174L6.28232 8.11736C6.21019 8.04512 6.11317 8.00319 6.01112 8.00016Z" fill="#070710"/>
</svg>
