<svg width="44" height="43" viewBox="0 0 44 43" fill="none" xmlns="http://www.w3.org/2000/svg">
<path d="M39.5929 18.9259C39.4136 18.9259 39.2416 18.8544 39.1149 18.7271C38.9881 18.5998 38.9169 18.4272 38.9169 18.2472V18.2133C38.9169 16.6834 38.3115 15.2161 37.2339 14.1343C36.1563 13.0525 34.6948 12.4448 33.1709 12.4448C31.6469 12.4448 30.1854 13.0525 29.1078 14.1343C28.0302 15.2161 27.4249 16.6834 27.4249 18.2133C27.4249 18.3933 27.3536 18.5659 27.2269 18.6932C27.1001 18.8204 26.9281 18.8919 26.7489 18.8919C26.5696 18.8919 26.3976 18.8204 26.2709 18.6932C26.1441 18.5659 26.0729 18.3933 26.0729 18.2133C26.0684 16.3234 26.8119 14.5091 28.1399 13.1696C29.4678 11.8301 31.2715 11.075 33.154 11.0705C35.0365 11.066 36.8437 11.8124 38.178 13.1456C39.5123 14.4788 40.2644 16.2895 40.2689 18.1794C40.2783 18.274 40.2679 18.3696 40.2382 18.46C40.2085 18.5503 40.1602 18.6334 40.0964 18.7037C40.0327 18.7741 39.9549 18.8303 39.8682 18.8686C39.7814 18.9068 39.6876 18.9264 39.5929 18.9259Z" fill="#E86C02"/>
<path d="M39.5924 19.0262C39.3865 19.0261 39.1892 18.9439 39.0438 18.7979C38.8982 18.6518 38.8165 18.4537 38.8165 18.2472V18.2133C38.8165 16.7099 38.2216 15.2681 37.1628 14.2051C36.104 13.1422 34.6681 12.5451 33.1709 12.5451C31.6737 12.5451 30.2377 13.1422 29.1789 14.2051C28.1201 15.2681 27.5252 16.7099 27.5252 18.2133C27.5252 18.4198 27.4435 18.6179 27.298 18.764C27.1524 18.9101 26.9549 18.9923 26.7489 18.9923C26.5428 18.9923 26.3453 18.9101 26.1998 18.764C26.0542 18.6179 25.9725 18.4199 25.9725 18.2134M39.5924 19.0262C39.7012 19.0268 39.809 19.0043 39.9087 18.9604C40.0083 18.9164 40.0977 18.8519 40.1708 18.7711C40.244 18.6903 40.2994 18.595 40.3335 18.4913C40.3671 18.3892 40.3792 18.2813 40.3692 18.1744C40.3634 16.2597 39.6009 14.4255 38.2489 13.0746C36.8957 11.7226 35.063 10.9656 33.1537 10.9701C31.2445 10.9747 29.4153 11.7405 28.0686 13.0989C26.7219 14.4573 25.968 16.2971 25.9725 18.2134M39.5924 19.0262L39.5929 18.9259M39.5924 19.0262L39.5929 18.9259M39.5924 19.0262C39.5925 19.0262 39.5927 19.0262 39.5929 19.0262V18.9259M39.5924 19.0262L39.5929 18.9259M25.9725 18.2134C25.9725 18.2135 25.9725 18.2135 25.9725 18.2135L26.0729 18.2133H25.9725C25.9725 18.2133 25.9725 18.2134 25.9725 18.2134Z" stroke="#E86C02" stroke-opacity="0.8" stroke-width="0.2"/>
<path d="M24.2175 18.938C24.064 18.9428 23.9134 18.8951 23.7905 18.8026C23.6676 18.7101 23.5798 18.5783 23.5415 18.429C23.4316 17.9694 23.1977 17.5491 22.8655 17.2142C22.3641 16.7184 21.6899 16.4385 20.9862 16.4337C20.858 16.4328 20.7328 16.3953 20.6251 16.3256C20.5174 16.2559 20.4316 16.1569 20.3778 16.0401C20.3236 15.922 20.3044 15.7908 20.3224 15.6621C20.3404 15.5334 20.3948 15.4125 20.4792 15.314C20.8733 14.8435 21.0944 14.2512 21.1054 13.6366C21.1164 13.0219 20.9166 12.4221 20.5394 11.9377C20.1623 11.4534 19.6308 11.1138 19.034 10.9761C18.4373 10.8383 17.8114 10.9106 17.2614 11.181C17.1031 11.2547 16.9225 11.264 16.7575 11.2071C16.5924 11.1502 16.4557 11.0314 16.3759 10.8756C16.2544 10.6225 16.0897 10.3928 15.8892 10.1969C15.4212 9.73455 14.8016 9.45891 14.1461 9.42145C13.4906 9.38399 12.8438 9.58726 12.3266 9.99334C12.2513 10.0533 12.1641 10.0964 12.0708 10.1198C11.9776 10.1432 11.8804 10.1463 11.7858 10.1291C11.691 10.1119 11.6009 10.0745 11.5216 10.0195C11.4423 9.96449 11.3757 9.89309 11.3262 9.8101C11.1686 9.56283 10.9825 9.33504 10.7718 9.13145C10.2441 8.59972 9.57117 8.2371 8.83811 8.08947C8.10505 7.94184 7.34484 8.01584 6.65369 8.3021C5.96253 8.58837 5.3715 9.07403 4.95538 9.69763C4.53926 10.3212 4.31676 11.0547 4.31603 11.8053C4.30949 11.9297 4.30949 12.0543 4.31603 12.1786C4.3981 13.054 4.78321 13.8729 5.40439 14.4928C5.62074 14.7125 5.86376 14.904 6.12771 15.0629C6.21088 15.1119 6.28263 15.1782 6.33815 15.2574C6.39367 15.3366 6.43167 15.4268 6.4496 15.5219C6.46753 15.617 6.46497 15.7149 6.4421 15.809C6.41923 15.9031 6.37657 15.9911 6.31699 16.0673C6.08099 16.3581 5.90997 16.6965 5.81551 17.0594C5.72104 17.4224 5.70533 17.8015 5.76943 18.1711C5.79991 18.3511 5.75792 18.5358 5.6527 18.6848C5.54747 18.8337 5.38764 18.9345 5.20835 18.9651C5.02907 18.9957 4.84502 18.9535 4.69669 18.8479C4.54836 18.7423 4.44791 18.5818 4.41743 18.4018C4.27246 17.503 4.43699 16.5814 4.88387 15.789C4.74019 15.6741 4.60255 15.5518 4.47151 15.4225C3.63167 14.5753 3.10876 13.463 2.99107 12.2736C2.99107 12.0972 2.99107 11.9343 2.99107 11.7714C2.98945 10.7485 3.29085 9.74815 3.85696 8.89762C4.42306 8.04709 5.22831 7.38476 6.17032 6.99484C7.11233 6.60492 8.14856 6.50501 9.14728 6.70783C10.146 6.91064 11.0621 7.40701 11.7791 8.13383C11.9008 8.26278 12.0224 8.39851 12.1306 8.53424C12.8914 8.1152 13.7669 7.95485 14.626 8.07719C15.4852 8.19953 16.2817 8.59799 16.8964 9.21289C17.0484 9.36471 17.1885 9.52807 17.3155 9.70152C18.0551 9.46826 18.8462 9.45495 19.5932 9.66319C20.3402 9.87143 21.0112 10.2923 21.5252 10.875C22.0391 11.4577 22.3741 12.1773 22.4896 12.947C22.605 13.7166 22.4961 14.5033 22.176 15.2122C22.8383 15.4148 23.436 15.7885 23.9094 16.2959C24.3827 16.8032 24.7151 17.4264 24.8732 18.1032C24.9163 18.2769 24.8893 18.4606 24.7982 18.6144C24.707 18.7682 24.5591 18.8796 24.3865 18.9244L24.2175 18.938Z" fill="#E86C02"/>
<path d="M24.2207 19.0384L24.2207 19.0383C24.0443 19.0439 23.8712 18.989 23.7301 18.8827C23.589 18.7765 23.4882 18.6252 23.4443 18.4539L23.4439 18.4523C23.3383 18.0107 23.1136 17.607 22.7946 17.2852C22.3118 16.808 21.6628 16.5386 20.9855 16.5341H20.9854C20.8382 16.533 20.6943 16.4899 20.5706 16.4098C20.4469 16.3298 20.3484 16.2161 20.2867 16.0821L20.2866 16.0819C20.2244 15.9465 20.2024 15.7959 20.223 15.6482C20.2436 15.5007 20.3059 15.3621 20.4027 15.249C20.7818 14.7962 20.9945 14.2263 21.0051 13.6348C21.0156 13.043 20.8233 12.4656 20.4603 11.9994C20.0973 11.5332 19.5858 11.2064 19.0115 11.0739C18.4372 10.9413 17.835 11.0109 17.3057 11.271L17.3038 11.272L17.3038 11.272C17.1219 11.3566 16.9144 11.3674 16.7247 11.302C16.5351 11.2366 16.3781 11.1002 16.2865 10.9213L16.2854 10.919L16.2854 10.919C16.169 10.6765 16.0111 10.4564 15.819 10.2687L15.8186 10.2683C15.368 9.82307 14.7715 9.55771 14.1404 9.52164C13.5094 9.48558 12.8868 9.6812 12.3888 10.0721C12.3024 10.1408 12.2023 10.1902 12.0952 10.2171C11.9881 10.244 11.8766 10.2476 11.7679 10.2278L24.2207 19.0384ZM24.2207 19.0384L24.2255 19.038M24.2207 19.0384L24.2255 19.038M24.2255 19.038L24.3945 19.0244L24.4032 19.0237M24.2255 19.038L24.4032 19.0237M6.31699 16.0673C6.37657 15.9911 6.41923 15.9031 6.4421 15.809C6.46497 15.7149 6.46753 15.617 6.4496 15.5219C6.43167 15.4268 6.39367 15.3366 6.33815 15.2574C6.28263 15.1782 6.21088 15.1119 6.12771 15.0629M6.31699 16.0673L2.99107 11.7714H2.89072V11.7715V11.7724V11.7733V11.7743V11.7752V11.7762V11.7771V11.7781V11.779V11.78V11.7809V11.7819V11.7829V11.7838V11.7848V11.7857V11.7867V11.7876V11.7886V11.7895V11.7905V11.7914V11.7924V11.7934V11.7943V11.7953V11.7962V11.7972V11.7981V11.7991V11.8V11.801V11.8019V11.8029V11.8039V11.8048V11.8058V11.8067V11.8077V11.8086V11.8096V11.8105V11.8115V11.8124V11.8134V11.8144V11.8153V11.8163V11.8172V11.8182V11.8191V11.8201V11.821V11.822V11.823V11.8239V11.8249V11.8258V11.8268V11.8277V11.8287V11.8296V11.8306V11.8316V11.8325V11.8335V11.8344V11.8354V11.8363V11.8373V11.8382V11.8392V11.8402V11.8411V11.8421V11.843V11.844V11.8449V11.8459V11.8468V11.8478V11.8488V11.8497V11.8507V11.8516V11.8526V11.8535V11.8545V11.8555V11.8564V11.8574V11.8583V11.8593V11.8602V11.8612V11.8622V11.8631V11.8641V11.865V11.866V11.8669V11.8679V11.8689V11.8698V11.8708V11.8717V11.8727V11.8736V11.8746V11.8756V11.8765V11.8775V11.8784V11.8794V11.8803V11.8813V11.8823V11.8832V11.8842V11.8851V11.8861V11.8871V11.888V11.889V11.8899V11.8909V11.8919V11.8928V11.8938V11.8947V11.8957V11.8967V11.8976V11.8986V11.8995V11.9005V11.9015V11.9024V11.9034V11.9043V11.9053V11.9063V11.9072V11.9082V11.9091V11.9101V11.9111V11.912V11.913V11.9139V11.9149V11.9159V11.9168V11.9178V11.9187V11.9197V11.9207V11.9216V11.9226V11.9236V11.9245V11.9255V11.9264V11.9274V11.9284V11.9293V11.9303V11.9313V11.9322V11.9332V11.9341V11.9351V11.9361V11.937V11.938V11.939V11.9399V11.9409V11.9418V11.9428V11.9438V11.9447V11.9457V11.9467V11.9476V11.9486V11.9496V11.9505V11.9515V11.9525V11.9534V11.9544V11.9554V11.9563V11.9573V11.9583V11.9592V11.9602V11.9612V11.9621V11.9631V11.964V11.965V11.966V11.967V11.9679V11.9689V11.9699V11.9708V11.9718V11.9728V11.9737V11.9747V11.9757V11.9766V11.9776V11.9786V11.9795V11.9805V11.9815V11.9824V11.9834V11.9844V11.9853V11.9863V11.9873V11.9883V11.9892V11.9902V11.9912V11.9921V11.9931V11.9941V11.995V11.996V11.997V11.998V11.9989V11.9999V12.0009V12.0018V12.0028V12.0038V12.0048V12.0057V12.0067V12.0077V12.0087V12.0096V12.0106V12.0116V12.0125V12.0135V12.0145V12.0155V12.0164V12.0174V12.0184V12.0194V12.0203V12.0213V12.0223V12.0233V12.0242V12.0252V12.0262V12.0272V12.0281V12.0291V12.0301V12.0311V12.032V12.033V12.034V12.035V12.036V12.0369V12.0379V12.0389V12.0399V12.0408V12.0418V12.0428V12.0438V12.0448V12.0457V12.0467V12.0477V12.0487V12.0497V12.0506V12.0516V12.0526V12.0536V12.0546V12.0555V12.0565V12.0575V12.0585V12.0595V12.0604V12.0614V12.0624V12.0634V12.0644V12.0654V12.0663V12.0673V12.0683V12.0693V12.0703V12.0712V12.0722V12.0732V12.0742V12.0752V12.0762V12.0772V12.0781V12.0791V12.0801V12.0811V12.0821V12.0831V12.0841V12.085V12.086V12.087V12.088V12.089V12.09V12.091V12.0919V12.0929V12.0939V12.0949V12.0959V12.0969V12.0979V12.0989V12.0999V12.1008V12.1018V12.1028V12.1038V12.1048V12.1058V12.1068V12.1078V12.1088V12.1098V12.1108V12.1117V12.1127V12.1137V12.1147V12.1157V12.1167V12.1177V12.1187V12.1197V12.1207V12.1217V12.1227V12.1237V12.1247V12.1257V12.1267V12.1276V12.1286V12.1296V12.1306V12.1316V12.1326V12.1336V12.1346V12.1356V12.1366V12.1376V12.1386V12.1396V12.1406V12.1416V12.1426V12.1436V12.1446V12.1456V12.1466V12.1476V12.1486V12.1496V12.1506V12.1516V12.1526V12.1536V12.1546V12.1556V12.1566V12.1576V12.1586V12.1596V12.1606V12.1616V12.1626V12.1636V12.1646V12.1656V12.1666V12.1676V12.1687V12.1697V12.1707V12.1717V12.1727V12.1737V12.1747V12.1757V12.1767V12.1777V12.1787V12.1797V12.1807V12.1817V12.1827V12.1838V12.1848V12.1858V12.1868V12.1878V12.1888V12.1898V12.1908V12.1918V12.1928V12.1939V12.1949V12.1959V12.1969V12.1979V12.1989V12.1999V12.2009V12.202V12.203V12.204V12.205V12.206V12.207V12.208V12.2091V12.2101V12.2111V12.2121V12.2131V12.2141V12.2152V12.2162V12.2172V12.2182V12.2192V12.2202V12.2213V12.2223V12.2233V12.2243V12.2253V12.2264V12.2274V12.2284V12.2294V12.2304V12.2315V12.2325V12.2335V12.2345V12.2356V12.2366V12.2376V12.2386V12.2397V12.2407V12.2417V12.2427V12.2438V12.2448V12.2458V12.2468V12.2479V12.2489V12.2499V12.2509V12.252V12.253V12.254V12.255V12.2561V12.2571V12.2581V12.2592V12.2602V12.2612V12.2623V12.2633V12.2643V12.2653V12.2664V12.2674V12.2684V12.2695V12.2705V12.2715V12.2726V12.2736H2.89023L2.8912 12.2835C3.01116 13.4958 3.54413 14.6295 4.40023 15.4932L4.40104 15.494C4.51447 15.6059 4.63275 15.7127 4.75555 15.814C4.32845 16.6092 4.17428 17.5245 4.31835 18.4178L4.31849 18.4186C4.35339 18.6247 4.46844 18.8086 4.63847 18.9297C4.80852 19.0508 5.01959 19.0991 5.22524 19.064C5.43087 19.0289 5.61409 18.9133 5.73466 18.7427C5.85521 18.5721 5.90328 18.3604 5.86838 18.1543L5.86831 18.1539C5.80665 17.7985 5.82177 17.4338 5.91263 17.0847C6.00349 16.7356 6.16797 16.4102 6.39492 16.1305L6.39493 16.1305L6.39603 16.1291C6.46442 16.0417 6.51337 15.9406 6.53961 15.8327C6.56585 15.7248 6.56879 15.6125 6.54822 15.5033C6.52765 15.3942 6.48405 15.2907 6.42032 15.1998C6.35668 15.109 6.27445 15.033 6.17911 14.9767M6.31699 16.0673C6.08099 16.3581 5.90997 16.6965 5.81551 17.0594M6.31699 16.0673L5.81551 17.0594M6.12771 15.0629L6.17945 14.9769C6.17934 14.9768 6.17922 14.9767 6.17911 14.9767M6.12771 15.0629C5.86376 14.904 5.62074 14.7125 5.40439 14.4928L6.12771 15.0629ZM6.17911 14.9767C5.92251 14.8222 5.68625 14.636 5.4759 14.4224L5.47528 14.4218C4.87119 13.8189 4.49643 13.0227 4.41614 12.1713M6.17911 14.9767L4.41614 12.1713M4.41614 12.1713C4.40989 12.0511 4.40992 11.9307 4.41625 11.8106L4.41638 11.8106L4.41639 11.8054C4.4171 11.0746 4.63374 10.3604 5.03886 9.75333C5.44397 9.14622 6.01934 8.67346 6.69209 8.39482C7.36484 8.11618 8.10478 8.04416 8.81829 8.18785C9.53181 8.33154 10.1869 8.68451 10.7006 9.20214L10.7006 9.20216L10.7021 9.20362C10.9068 9.4014 11.0876 9.62266 11.2408 9.86284C11.2975 9.95754 11.3738 10.0391 11.4644 10.102C11.5555 10.1651 11.6589 10.208 11.7679 10.2278C11.7678 10.2278 11.7678 10.2278 11.7678 10.2278L4.41614 12.1713ZM24.4032 19.0237L24.4117 19.0215M24.4032 19.0237L24.4117 19.0215M24.4117 19.0215C24.61 18.97 24.7799 18.8421 24.8845 18.6655C24.989 18.4893 25.02 18.2788 24.9708 18.0798C24.8086 17.3862 24.4679 16.7474 23.9828 16.2274C23.523 15.7346 22.9488 15.3648 22.3122 15.1505C22.6055 14.4513 22.7016 13.6837 22.5888 12.9321C22.4705 12.1434 22.1272 11.4059 21.6005 10.8086C21.0737 10.2114 20.3859 9.77998 19.6202 9.56652C18.8774 9.35947 18.0922 9.36609 17.3538 9.58489C17.2352 9.42853 17.1061 9.28051 16.9673 9.14188C16.3373 8.51167 15.5208 8.10324 14.6402 7.97783C13.7872 7.85637 12.9185 8.00674 12.1562 8.40655L24.4117 19.0215ZM5.81551 17.0594C5.72104 17.4224 5.70533 17.8015 5.76943 18.1711L5.81551 17.0594ZM24.2175 18.938C24.064 18.9428 23.9134 18.8951 23.7905 18.8026C23.6676 18.7101 23.5798 18.5783 23.5415 18.429L24.2175 18.938ZM16.7575 11.2071C16.5924 11.1502 16.4557 11.0314 16.3759 10.8756L21.1054 13.6366C21.1164 13.0219 20.9166 12.4221 20.5394 11.9377C20.1623 11.4534 19.6308 11.1138 19.034 10.9761C18.4373 10.8383 17.8114 10.9106 17.2614 11.181C17.1031 11.2547 16.9225 11.264 16.7575 11.2071Z" stroke="#E86C02" stroke-opacity="0.8" stroke-width="0.2"/>
<path d="M14.5461 18.9382C14.4572 18.9388 14.369 18.9216 14.2866 18.8879C14.2043 18.8541 14.1294 18.8043 14.0662 18.7414L8.70551 13.3529C8.64248 13.2897 8.59248 13.2145 8.55837 13.1319C8.52426 13.0492 8.5067 12.9606 8.5067 12.8711C8.5067 12.7816 8.52426 12.693 8.55837 12.6103C8.59248 12.5277 8.64248 12.4525 8.70551 12.3893C8.76854 12.326 8.84336 12.2758 8.92571 12.2415C9.00807 12.2073 9.09633 12.1897 9.18547 12.1897C9.2746 12.1897 9.36287 12.2073 9.44522 12.2415C9.52757 12.2758 9.6024 12.326 9.66543 12.3893L15.0261 17.7777C15.0895 17.8408 15.1398 17.9159 15.1741 17.9986C15.2084 18.0813 15.2261 18.17 15.2261 18.2596C15.2261 18.3492 15.2084 18.4379 15.1741 18.5206C15.1398 18.6033 15.0895 18.6783 15.0261 18.7414C14.9629 18.8043 14.888 18.8541 14.8057 18.8879C14.7233 18.9216 14.6351 18.9388 14.5461 18.9382Z" fill="#E86C02"/>
<path d="M14.5461 19.0386C14.6482 19.0391 14.7493 19.0194 14.8437 18.9807C14.9384 18.9419 15.0244 18.8848 15.0969 18.8125C15.1697 18.7401 15.2274 18.6539 15.2668 18.559C15.3062 18.4641 15.3264 18.3624 15.3264 18.2596C15.3264 18.1568 15.3062 18.055 15.2668 17.9601C15.2274 17.8653 15.1697 17.7792 15.0971 17.7068C15.097 17.7067 15.097 17.7067 15.0969 17.7066L9.73657 12.3185L9.73653 12.3184C9.6642 12.2458 9.57831 12.1882 9.48375 12.1489C9.3892 12.1096 9.28784 12.0893 9.18547 12.0893C9.0831 12.0893 8.98174 12.1096 8.88718 12.1489C8.79263 12.1882 8.70674 12.2458 8.63441 12.3184C8.56208 12.391 8.50472 12.4772 8.4656 12.5721C8.42648 12.6669 8.40635 12.7685 8.40635 12.8711C8.40635 12.9737 8.42648 13.0753 8.4656 13.1701C8.50471 13.2649 8.56205 13.3511 8.63436 13.4237C8.63438 13.4237 8.63439 13.4237 8.63441 13.4238L13.995 18.8122L13.9954 18.8125C14.0679 18.8848 14.1539 18.9419 14.2486 18.9807C14.343 19.0194 14.4441 19.0391 14.5461 19.0386ZM14.5461 19.0386C14.546 19.0386 14.5458 19.0386 14.5456 19.0386L14.5461 18.9382L14.5467 19.0386C14.5465 19.0386 14.5463 19.0386 14.5461 19.0386Z" stroke="#E86C02" stroke-opacity="0.8" stroke-width="0.2"/>
<path d="M15.5116 18.9377C15.3868 18.9374 15.2645 18.9023 15.1583 18.8364C15.0521 18.7705 14.9662 18.6764 14.91 18.5645C13.4904 15.7481 14.2678 14.0107 15.1669 13.0538C15.2906 12.9225 15.4612 12.8458 15.6412 12.8407C15.8212 12.8356 15.9959 12.9025 16.1268 13.0267C16.2577 13.1509 16.334 13.3222 16.3391 13.5029C16.3442 13.6836 16.2775 13.859 16.1538 13.9904C15.275 14.9201 15.2615 16.2571 16.1133 17.9537C16.1934 18.114 16.2072 18.2996 16.1514 18.47C16.0957 18.6404 15.975 18.7817 15.8158 18.8631C15.7225 18.9139 15.6177 18.9396 15.5116 18.9377Z" fill="#E86C02"/>
<path d="M15.0937 12.9851L15.0938 12.985C15.2357 12.8343 15.4316 12.7462 15.6384 12.7404C15.8451 12.7345 16.0457 12.8114 16.1959 12.9539C16.346 13.0964 16.4336 13.2929 16.4394 13.5001C16.4452 13.7073 16.3688 13.9084 16.2269 14.0592L16.2268 14.0593C15.3907 14.9439 15.3592 16.2281 16.2029 17.9087L16.203 17.9088C16.295 18.0927 16.3108 18.3057 16.2468 18.5012C16.183 18.6963 16.045 18.8583 15.8627 18.9519M15.0937 12.9851L14.8204 18.6097C14.8204 18.6096 14.8203 18.6096 14.8203 18.6096C14.8848 18.738 14.9834 18.846 15.1054 18.9217C15.2272 18.9972 15.3674 19.0375 15.5106 19.0381C15.6334 19.0401 15.7546 19.0104 15.8627 18.9519M15.0937 12.9851C14.6331 13.4753 14.2023 14.1672 14.0696 15.0977C13.9368 16.0281 14.1034 17.1872 14.8203 18.6095L15.0937 12.9851ZM15.8627 18.9519C15.8623 18.9521 15.8619 18.9523 15.8615 18.9525L15.8158 18.8631L15.8638 18.9512C15.8634 18.9514 15.863 18.9516 15.8627 18.9519Z" stroke="#E86C02" stroke-opacity="0.8" stroke-width="0.2"/>
<path d="M29.4236 42.7986H14.146C11.9021 42.8009 9.74223 41.9414 8.10933 40.3962C0.592206 33.2636 -1.2668 24.7397 1.26821 20.6203C1.32828 20.5212 1.41263 20.4393 1.51322 20.3823C1.61381 20.3252 1.72728 20.295 1.8428 20.2946H41.7268C41.8423 20.295 41.9558 20.3252 42.0564 20.3823C42.157 20.4393 42.2413 20.5212 42.3014 20.6203C44.8364 24.7397 42.9774 33.2636 35.4603 40.3962C33.8274 41.9414 31.6676 42.8009 29.4236 42.7986ZM2.23488 21.6519C-0.225755 26.3074 3.76941 34.3901 9.03545 39.4054C10.415 40.7182 12.2452 41.4473 14.146 41.4413H29.4236C31.3244 41.4473 33.1546 40.7182 34.5342 39.4054C39.8002 34.4105 43.7954 26.3074 41.3347 21.6519H2.23488Z" fill="#E86C02"/>
<path d="M8.04035 40.4691L8.04025 40.469C4.27053 36.8921 1.91641 32.9635 0.823295 29.4078C-0.268782 25.8555 -0.105705 22.6614 1.18274 20.5677L1.26821 20.6203L1.18239 20.5683C1.25134 20.4546 1.34819 20.3605 1.46373 20.295C1.57927 20.2295 1.70964 20.1948 1.84238 20.1942L1.8428 20.1942L41.7268 20.1942H41.7272C41.86 20.1948 41.9903 20.2295 42.1059 20.295C42.2212 20.3604 42.318 20.4543 42.3869 20.5677C43.6753 22.6614 43.8384 25.8555 42.7463 29.4078C41.6532 32.9635 39.2991 36.8921 35.5294 40.469L35.5293 40.4691C33.8777 42.0319 31.6932 42.9013 29.4235 42.899M8.04035 40.4691L29.4236 42.7986M8.04035 40.4691C9.69188 42.0319 11.8764 42.9013 14.1461 42.899M8.04035 40.4691L14.146 42.7986M29.4235 42.899L29.4236 42.7986M29.4235 42.899H29.4236V42.7986M29.4235 42.899H14.1461M29.4236 42.7986H14.146M14.1461 42.899L14.146 42.7986M14.1461 42.899H14.146V42.7986M14.146 41.341H14.1457C12.2708 41.3468 10.4655 40.6277 9.10463 39.3327C6.48081 36.8338 4.17391 33.5707 2.83026 30.355C1.49515 27.1599 1.12031 24.0353 2.29572 21.7522H41.2739C42.4493 24.0354 42.0745 27.165 40.7393 30.3627C39.3957 33.5809 37.0888 36.844 34.4651 39.3326L34.465 39.3327C33.1041 40.6277 31.2988 41.3468 29.4239 41.341H29.4236H14.146Z" stroke="#E86C02" stroke-opacity="0.8" stroke-width="0.2"/>
<path d="M28.0234 11.2287C26.4957 11.2287 23.1089 10.9572 20.9187 8.75841C18.0727 5.88771 18.4513 1.04215 18.4715 0.838552C18.485 0.680443 18.5533 0.53208 18.6644 0.419253C18.7756 0.306426 18.9226 0.236269 19.0799 0.220979C19.2895 0.220979 24.1432 -0.192998 26.9824 2.65055C29.8283 5.50088 29.4498 10.3804 29.4295 10.584C29.4158 10.7431 29.3466 10.8923 29.234 11.0053C29.1215 11.1183 28.9729 11.1878 28.8143 11.2016C28.767 11.2083 28.4763 11.2287 28.0234 11.2287ZM19.7965 1.55114C19.7965 2.84736 20.0061 5.93522 21.8718 7.80151C23.7376 9.6678 26.7593 9.83746 28.0707 9.83746H28.1045C28.1045 8.54124 27.895 5.44659 26.0292 3.5803C24.1635 1.74794 21.1079 1.54435 19.7965 1.55114Z" fill="#E86C02"/>
<path d="M20.8476 8.82923L20.8474 8.82906C19.4035 7.3726 18.7814 5.41985 18.5212 3.81437C18.2614 2.21119 18.3605 0.941785 18.3716 0.829315C18.3872 0.648194 18.4655 0.478194 18.5929 0.348824C18.7206 0.219277 18.8894 0.138664 19.0702 0.121094L19.0799 0.120151V0.120624C19.0904 0.120624 19.1144 0.119424 19.1511 0.117597C19.4556 0.102424 20.6284 0.0439834 22.0607 0.270309C23.6649 0.523792 25.6124 1.1364 27.0534 2.57964C28.4976 4.02609 29.1197 5.98251 29.3799 7.5938C29.6396 9.20284 29.5405 10.4807 29.5294 10.5932M20.8476 8.82923L29.4295 10.584M20.8476 8.82923C23.0684 11.0587 26.4922 11.3291 28.0234 11.3291C28.469 11.3291 28.7634 11.3095 28.8255 11.3013M20.8476 8.82923L28.8143 11.2016M29.5294 10.5932C29.5294 10.5935 29.5294 10.5937 29.5294 10.5939L29.4295 10.584M29.5294 10.5932C29.5295 10.593 29.5295 10.5928 29.5295 10.5926L29.4295 10.584M29.5294 10.5932C29.5136 10.7756 29.4342 10.9466 29.3051 11.0761C29.1765 11.2052 29.0068 11.285 28.8255 11.3013M29.4295 10.584C29.4158 10.7431 29.3466 10.8923 29.234 11.0053C29.1215 11.1183 28.9729 11.1878 28.8143 11.2016M28.8255 11.3013C28.8266 11.3012 28.8276 11.301 28.8286 11.3009L28.8143 11.2016M28.8255 11.3013C28.8247 11.3014 28.8239 11.3015 28.823 11.3015L28.8143 11.2016M21.9428 7.73056C21.0277 6.81524 20.5152 5.59624 20.232 4.4387C19.9632 3.34003 19.9027 2.30398 19.8973 1.6514C20.5558 1.65355 21.5882 1.71079 22.6815 1.97362C23.8327 2.25034 25.0435 2.75308 25.9586 3.65159C26.8734 4.56684 27.3859 5.78734 27.6691 6.94648C27.9379 8.04664 27.9984 9.0842 28.0038 9.73696C27.3467 9.73402 26.306 9.68571 25.2025 9.42174C24.0601 9.14847 22.8578 8.64585 21.9428 7.73056Z" stroke="#E86C02" stroke-opacity="0.8" stroke-width="0.2"/>
</svg>
