<svg width="47" height="26" viewBox="0 0 47 26" fill="none" xmlns="http://www.w3.org/2000/svg">
<path d="M2.50643 15.8154C2.96984 16.4035 3.659 16.927 4.52471 17.3485C4.44393 17.9808 4.60991 18.6153 5.01107 19.2079C6.41751 21.3807 6.5515 21.8544 6.56002 21.9278C6.57718 22.0283 6.65613 22.1223 6.78332 22.1936C6.91051 22.265 7.078 22.3093 7.25704 22.3189C7.38793 22.3259 8.23288 22.4011 12.1045 23.188C12.9928 23.3763 13.933 23.4758 14.8825 23.4822C15.0629 23.4822 15.2364 23.467 15.4138 23.4588C16.1657 23.9457 17.1004 24.3331 18.1508 24.5934C21.8806 25.5707 22.5745 25.8536 22.676 25.9005C22.8147 25.9647 22.9888 25.9998 23.1686 25.9998C23.3483 25.9998 23.5224 25.9647 23.6611 25.9005C23.7626 25.8536 24.4565 25.5707 28.1864 24.5934C29.2367 24.3331 30.1714 23.9457 30.9233 23.4588C31.1007 23.467 31.2742 23.4822 31.4546 23.4822C32.4041 23.4758 33.3443 23.3763 34.2327 23.188C38.105 22.3989 38.9492 22.3237 39.0801 22.3189C39.2591 22.3093 39.4266 22.265 39.5538 22.1936C39.681 22.1223 39.7599 22.0283 39.7771 21.9278C39.7895 21.8544 39.9235 21.3803 41.3261 19.2079C41.7272 18.6153 41.8932 17.9808 41.8124 17.3485C42.6781 16.927 43.3673 16.4035 43.8307 15.8154C45.5725 13.7225 46.0767 13.3332 46.1603 13.2763C46.2746 13.1984 46.3371 13.1007 46.3371 12.9999C46.3371 12.899 46.2746 12.8013 46.1603 12.7235C46.0767 12.6666 45.5725 12.2772 43.8307 10.1844C43.3675 9.59589 42.6783 9.07208 41.8124 8.65041C41.8928 8.01841 41.7269 7.38416 41.3261 6.79181C39.9196 4.61903 39.7856 4.14537 39.7771 4.07193C39.7599 3.97146 39.681 3.87748 39.5538 3.80612C39.4266 3.73476 39.2591 3.69046 39.0801 3.68082C38.9492 3.67387 38.1043 3.59869 34.2327 2.81171C33.1771 2.58662 32.0466 2.49349 30.9203 2.53881C30.1689 2.05284 29.2353 1.66612 28.1864 1.40636C24.4565 0.429042 23.7626 0.146146 23.6611 0.0992138C23.5224 0.035075 23.3483 0 23.1686 0C22.9888 0 22.8147 0.035075 22.676 0.0992138C22.5745 0.146146 21.8806 0.429042 18.1508 1.40636C17.1018 1.66612 16.1682 2.05284 15.4169 2.53881C14.2905 2.49346 13.1601 2.5866 12.1045 2.81171C8.2321 3.60087 7.38793 3.67604 7.25704 3.68082C7.078 3.69046 6.91051 3.73476 6.78332 3.80612C6.65613 3.87748 6.57718 3.97146 6.56002 4.07193C6.54762 4.14537 6.41364 4.61947 5.01107 6.79181C4.61026 7.38416 4.44428 8.01841 4.52471 8.65041C3.65859 9.07198 2.96937 9.59582 2.50643 10.1844C0.764644 12.2772 0.260463 12.6666 0.17682 12.7235C0.0625113 12.8013 0 12.899 0 12.9999C0 13.1007 0.0625113 13.1984 0.17682 13.2763C0.260463 13.3332 0.764644 13.7225 2.50643 15.8154ZM12.6388 22.3728C11.0481 22.0486 9.09331 21.6671 7.99666 21.5163C7.72792 20.901 7.04793 19.8042 6.47018 18.9116C6.25053 18.5774 6.11422 18.2277 6.06513 17.8726C6.92214 18.0713 7.85238 18.1502 8.77578 18.1024C10.1311 19.3015 11.9418 20.3177 14.0786 21.0783C13.9996 21.5962 14.1394 22.1173 14.4867 22.5992C13.8551 22.5718 13.2333 22.4956 12.6388 22.3728ZM27.5366 23.8069C26.0039 24.2088 24.1405 24.7151 23.1748 25.0436C22.209 24.7151 20.3456 24.2088 18.8129 23.8069C16.2858 23.1446 15.6903 22.1942 15.6058 21.5611C17.9573 22.2179 20.5481 22.5597 23.1748 22.5597C25.8014 22.5597 28.3923 22.2179 30.7437 21.5611C30.6562 22.1947 30.0645 23.145 27.5335 23.8073L27.5366 23.8069ZM39.8762 18.9098C39.2985 19.8024 38.6185 20.8992 38.3498 21.5146C37.2531 21.6654 35.2983 22.0469 33.7076 22.3711C33.113 22.4943 32.4909 22.5708 31.8589 22.5984C32.2062 22.1164 32.3461 21.5953 32.2671 21.0774C34.4038 20.3168 36.2146 19.3006 37.5699 18.1016C38.4933 18.1493 39.4235 18.0704 40.2805 17.8717C40.2315 18.2265 40.0955 18.5759 39.8762 18.9098ZM42.432 10.5507C43.1484 11.4107 44.0506 12.4563 44.6361 12.9981C44.0506 13.54 43.1484 14.5856 42.432 15.4456C41.2517 16.8631 39.5579 17.1973 38.4295 17.2451C39.6001 15.9257 40.2093 14.472 40.2093 12.9981C40.2093 11.5243 39.6001 10.0706 38.4295 8.75122C39.5587 8.80033 41.2525 9.13233 42.4328 10.5525L42.432 10.5507ZM33.7045 3.62694C35.2952 3.95112 37.25 4.33266 38.3467 4.48345C38.6154 5.09878 39.2954 6.1956 39.8731 7.08818C40.0925 7.42183 40.2285 7.7709 40.2774 8.12546C39.4188 7.93014 38.4899 7.85166 37.5668 7.89645C36.2118 6.6978 34.4016 5.68193 32.2655 4.92148C32.3445 4.40355 32.2047 3.88246 31.8574 3.40054C32.4887 3.42793 33.1103 3.50412 33.7045 3.62694ZM18.8098 2.19247C20.3425 1.79051 22.2059 1.28425 23.1717 0.955724C24.1374 1.28425 26.0008 1.79051 27.5335 2.19247C30.0606 2.85473 30.6562 3.80511 30.7406 4.43826C28.3892 3.78146 25.7983 3.43962 23.1717 3.43962C20.545 3.43962 17.9542 3.78146 15.6027 4.43826C15.6872 3.80511 16.2827 2.85473 18.8098 2.19247ZM23.1717 4.30876C26.2352 4.30876 29.2299 4.81848 31.7771 5.77348C34.3244 6.72847 36.3097 8.08584 37.482 9.67393C38.6544 11.262 38.9611 13.0095 38.3635 14.6954C37.7658 16.3813 36.2906 17.93 34.1243 19.1454C31.9581 20.3609 29.1982 21.1887 26.1935 21.524C23.1888 21.8594 20.0744 21.6872 17.2441 21.0294C14.4138 20.3716 11.9947 19.2577 10.2927 17.8284C8.59067 16.3992 7.68223 14.7188 7.68223 12.9999C7.68694 10.6957 9.32037 8.48658 12.2242 6.85725C15.128 5.22792 19.0651 4.3114 23.1717 4.30876ZM6.46708 7.08992C7.04484 6.19734 7.72482 5.10052 7.99357 4.48519C9.09022 4.3344 11.045 3.95286 12.6357 3.62868C13.2304 3.50553 13.8525 3.42905 14.4844 3.40141C14.1371 3.88332 13.9973 4.40441 14.0763 4.92235C11.9402 5.6828 10.13 6.69867 8.77501 7.89732C7.85191 7.85253 6.92302 7.93101 6.06436 8.12633C6.1129 7.7721 6.24842 7.42334 6.46708 7.08992ZM3.91132 10.5542C5.09162 9.13668 6.78539 8.8025 7.91379 8.7547C6.74328 10.0742 6.13408 11.5281 6.13408 13.0021C6.13408 14.476 6.74328 15.9299 7.91379 17.2494C6.78616 17.2016 5.09162 16.8674 3.91132 15.449C3.19416 14.5873 2.2919 13.5418 1.7064 12.9999C2.2919 12.458 3.19416 11.4124 3.91055 10.5525L3.91132 10.5542Z" fill="#484B4F" fill-opacity="0.9"/>
<path d="M23.1723 14.738C23.785 14.738 24.384 14.636 24.8934 14.445C25.4029 14.254 25.7999 13.9825 26.0344 13.6649C26.2689 13.3473 26.3302 12.9978 26.2107 12.6606C26.0912 12.3234 25.7961 12.0137 25.3629 11.7706C24.9296 11.5275 24.3776 11.362 23.7767 11.2949C23.1758 11.2278 22.5529 11.2623 21.9868 11.3938C21.4207 11.5254 20.9369 11.7482 20.5965 12.034C20.2561 12.3199 20.0744 12.6559 20.0744 12.9997C20.0744 13.4607 20.4008 13.9029 20.9818 14.2288C21.5628 14.5548 22.3507 14.738 23.1723 14.738ZM23.1723 12.1306C23.4787 12.1306 23.7781 12.1816 24.0329 12.2771C24.2876 12.3726 24.4861 12.5083 24.6034 12.6671C24.7206 12.8259 24.7513 13.0007 24.6915 13.1693C24.6317 13.3379 24.4842 13.4927 24.2676 13.6143C24.051 13.7358 23.775 13.8186 23.4745 13.8521C23.174 13.8857 22.8626 13.8685 22.5796 13.8027C22.2965 13.7369 22.0546 13.6255 21.8844 13.4826C21.7142 13.3397 21.6234 13.1716 21.6234 12.9997C21.6234 12.7692 21.7866 12.5482 22.0771 12.3852C22.3675 12.2222 22.7615 12.1306 23.1723 12.1306Z" fill="#484B4F" fill-opacity="0.9"/>
<path d="M23.1707 20.8213C25.9278 20.8213 28.6231 20.3625 30.9156 19.5031C33.2081 18.6436 34.9949 17.4219 36.05 15.9926C37.1051 14.5634 37.3812 12.9906 36.8433 11.4733C36.3054 9.95597 34.9777 8.56222 33.0281 7.46829C31.0785 6.37437 28.5945 5.62939 25.8903 5.32758C23.1861 5.02576 20.3832 5.18067 17.8359 5.7727C15.2886 6.36473 13.1114 7.36729 11.5796 8.65361C10.0478 9.93994 9.23017 11.4522 9.23017 12.9993C9.23447 15.0731 10.7046 17.0612 13.318 18.5276C15.9314 19.994 19.4747 20.8189 23.1707 20.8213ZM12.8222 16.398C12.753 16.3321 12.7165 16.2571 12.7165 16.1807C12.7165 16.1042 12.753 16.0292 12.8222 15.9634L15.0294 13.818L17.9081 16.6152H13.4898C13.354 16.6158 13.2205 16.5959 13.1031 16.5577C12.9857 16.5195 12.8887 16.4643 12.8222 16.398ZM15.9247 12.9489L19.4873 9.48417H26.8494L30.412 12.9489L26.6395 16.6152H19.6925L15.9247 12.9489ZM13.7175 17.4843H18.8026L21.157 19.7736C21.1911 19.8066 21.2399 19.8318 21.2779 19.8605C18.3299 19.6053 15.6453 18.7615 13.7175 17.4843ZM23.1707 19.5563C23.0344 19.5571 22.9003 19.5374 22.7823 19.4992C22.6643 19.4609 22.5668 19.4056 22.5 19.339L20.5917 17.4843H25.7497L23.8414 19.339C23.7745 19.4056 23.677 19.4609 23.559 19.4992C23.441 19.5374 23.3069 19.5571 23.1707 19.5563ZM25.0619 19.8605C25.0999 19.8296 25.1487 19.8044 25.1827 19.7736L27.5387 17.4843H32.6239C30.6963 18.7625 28.011 19.6071 25.0619 19.8627V19.8605ZM33.5192 16.3958C33.4524 16.4624 33.3548 16.5177 33.2369 16.556C33.1189 16.5942 32.9847 16.6139 32.8485 16.6131H28.434L31.3127 13.8158L33.5199 15.9612C33.5898 16.0273 33.6265 16.1028 33.6264 16.1796C33.6263 16.2565 33.5892 16.3319 33.5192 16.398V16.3958ZM34.7134 10.4858C35.8278 12.0732 35.8455 13.8368 34.763 15.4311L32.2072 12.9458L34.6545 10.5675C34.6793 10.5445 34.6902 10.5154 34.7103 10.4889L34.7134 10.4858ZM33.3116 9.6984C33.3808 9.76423 33.4173 9.83925 33.4173 9.91568C33.4173 9.9921 33.3808 10.0671 33.3116 10.133L31.3119 12.0767L28.6408 9.48112H32.6417C32.7783 9.48065 32.9127 9.50086 33.0306 9.53963C33.1485 9.57841 33.2456 9.63431 33.3116 9.70144V9.6984ZM32.7911 8.62288C32.74 8.62288 32.6928 8.61201 32.6409 8.61201H27.7462L25.2083 6.14547C28.1908 6.42524 30.8878 7.30749 32.7911 8.62592V8.62288ZM23.1707 6.34146C23.3069 6.34074 23.4409 6.36052 23.5589 6.39873C23.6768 6.43694 23.7744 6.49219 23.8414 6.55873L25.9588 8.61505H20.3826L22.4984 6.55873C22.5655 6.49206 22.6633 6.43673 22.7816 6.39851C22.8998 6.36028 23.0342 6.34058 23.1707 6.34146ZM21.133 6.14851L18.5951 8.61505H13.7004C13.6485 8.61505 13.6013 8.62418 13.5502 8.62592C15.4544 7.30862 18.1513 6.4275 21.133 6.14851ZM13.0297 9.70144C13.0965 9.63481 13.194 9.57948 13.312 9.54125C13.43 9.50303 13.5642 9.48331 13.7004 9.48417H17.7013L15.0302 12.0798L13.0305 10.136C12.9612 10.0702 12.9245 9.99521 12.9244 9.91878C12.9243 9.84236 12.9606 9.76731 13.0297 9.70144ZM11.6883 10.5706L14.1357 12.9489L11.5799 15.4341C10.4974 13.8398 10.5151 12.0762 11.6295 10.4889C11.6519 10.5158 11.662 10.5445 11.6883 10.5706Z" fill="#484B4F" fill-opacity="0.9"/>
</svg>
