<svg width="50" height="35" viewBox="0 0 50 35" fill="none" xmlns="http://www.w3.org/2000/svg">
<path d="M45.624 15.2747C45.4164 15.2747 45.2172 15.2163 45.0704 15.1125C44.9236 15.0087 44.8411 14.8679 44.8411 14.721V14.6934C44.8411 13.4454 44.1399 12.2485 42.8919 11.366C41.6438 10.4835 39.9511 9.98773 38.1861 9.98773C36.4211 9.98773 34.7283 10.4835 33.4803 11.366C32.2322 12.2485 31.5311 13.4454 31.5311 14.6934C31.5311 14.8402 31.4486 14.981 31.3018 15.0848C31.1549 15.1886 30.9558 15.247 30.7481 15.247C30.5405 15.247 30.3413 15.1886 30.1945 15.0848C30.0477 14.981 29.9652 14.8402 29.9652 14.6934C29.96 13.1517 30.8212 11.6717 32.3592 10.579C33.8972 9.48629 35.9862 8.87035 38.1665 8.86668C40.3468 8.863 42.4399 9.47191 43.9853 10.5594C45.5307 11.647 46.4018 13.124 46.407 14.6657C46.418 14.7429 46.4059 14.8209 46.3715 14.8946C46.337 14.9683 46.2811 15.036 46.2073 15.0935C46.1335 15.1509 46.0434 15.1967 45.9429 15.2279C45.8424 15.2591 45.7338 15.275 45.624 15.2747Z" fill="#484B4F"/>
<path d="M27.818 15.2856C27.6402 15.2896 27.4658 15.2506 27.3235 15.1751C27.1812 15.0997 27.0794 14.9922 27.035 14.8704C26.9078 14.4955 26.6369 14.1526 26.2521 13.8794C25.6714 13.475 24.8906 13.2466 24.0755 13.2428C23.9271 13.242 23.7821 13.2114 23.6573 13.1545C23.5325 13.0977 23.4332 13.0169 23.3709 12.9217C23.3082 12.8254 23.2859 12.7183 23.3067 12.6133C23.3275 12.5083 23.3906 12.4097 23.4883 12.3293C23.9448 11.9455 24.2009 11.4624 24.2136 10.961C24.2263 10.4596 23.9949 9.97032 23.5581 9.5752C23.1213 9.18008 22.5058 8.90311 21.8146 8.79072C21.1233 8.67833 20.3985 8.73734 19.7615 8.95787C19.5781 9.01799 19.369 9.02564 19.1778 8.9792C18.9866 8.93277 18.8283 8.83586 18.7359 8.70875C18.5952 8.50233 18.4044 8.31496 18.1721 8.15515C17.6301 7.77796 16.9126 7.55311 16.1533 7.52255C15.3941 7.49199 14.6451 7.65781 14.046 7.98906C13.9588 8.03795 13.8578 8.07311 13.7497 8.0922C13.6417 8.11129 13.5292 8.11388 13.4197 8.09978C13.3098 8.08576 13.2055 8.05528 13.1137 8.01041C13.0219 7.96553 12.9447 7.90729 12.8873 7.83959C12.7048 7.63788 12.4893 7.45206 12.2453 7.28598C11.6341 6.85223 10.8547 6.55642 10.0056 6.43599C9.1566 6.31557 8.27613 6.37593 7.47564 6.60945C6.67514 6.84297 5.99061 7.23914 5.50866 7.74784C5.02671 8.25654 4.76901 8.8549 4.76817 9.46719C4.76059 9.56861 4.76059 9.67025 4.76817 9.77167C4.86322 10.4858 5.30925 11.1538 6.02871 11.6595C6.27928 11.8387 6.56074 11.9949 6.86645 12.1245C6.96278 12.1645 7.04588 12.2186 7.11018 12.2832C7.17448 12.3478 7.2185 12.4213 7.23926 12.499C7.26003 12.5766 7.25706 12.6564 7.23057 12.7331C7.20408 12.8099 7.15468 12.8817 7.08568 12.9438C6.81234 13.1811 6.61427 13.4571 6.50486 13.7532C6.39545 14.0493 6.37725 14.3585 6.4515 14.66C6.4868 14.8068 6.43816 14.9576 6.31629 15.079C6.19442 15.2005 6.0093 15.2828 5.80165 15.3077C5.594 15.3327 5.38084 15.2983 5.20904 15.2121C5.03725 15.126 4.92091 14.9951 4.88561 14.8482C4.71771 14.115 4.90826 13.3632 5.42584 12.7169C5.25942 12.6231 5.10001 12.5233 4.94825 12.4179C3.97554 11.7268 3.36991 10.8195 3.2336 9.84918C3.2336 9.70524 3.2336 9.57237 3.2336 9.43951C3.23172 8.60506 3.5808 7.78905 4.23647 7.09524C4.89213 6.40142 5.82477 5.86113 6.9158 5.54306C8.00684 5.22498 9.207 5.14348 10.3637 5.30893C11.5204 5.47437 12.5814 5.87928 13.4119 6.47219C13.5528 6.57737 13.6937 6.68809 13.819 6.79881C14.7001 6.45698 15.7141 6.32618 16.7092 6.42598C17.7042 6.52578 18.6268 6.85081 19.3387 7.35242C19.5148 7.47626 19.6771 7.60952 19.8241 7.75101C20.6808 7.56074 21.597 7.54988 22.4622 7.71975C23.3274 7.88961 24.1045 8.23295 24.6998 8.70828C25.295 9.18362 25.683 9.77064 25.8167 10.3985C25.9505 11.0263 25.8243 11.6681 25.4535 12.2463C26.2206 12.4116 26.9129 12.7164 27.4612 13.1303C28.0094 13.5442 28.3943 14.0526 28.5774 14.6046C28.6274 14.7463 28.5962 14.8962 28.4906 15.0216C28.385 15.1471 28.2136 15.238 28.0137 15.2745L27.818 15.2856Z" fill="#484B4F"/>
<path d="M16.6145 15.286C16.5115 15.2865 16.4093 15.2725 16.3139 15.2449C16.2186 15.2174 16.1318 15.1768 16.0586 15.1255L9.8499 10.7299C9.7769 10.6782 9.719 10.617 9.67949 10.5495C9.63998 10.4821 9.61965 10.4098 9.61965 10.3368C9.61965 10.2638 9.63998 10.1915 9.67949 10.1241C9.719 10.0566 9.7769 9.99536 9.8499 9.94374C9.9229 9.89212 10.0096 9.85118 10.1049 9.82324C10.2003 9.79531 10.3026 9.78093 10.4058 9.78093C10.509 9.78093 10.6113 9.79531 10.7066 9.82324C10.802 9.85118 10.8887 9.89212 10.9617 9.94374L17.1704 14.3394C17.2438 14.3908 17.302 14.4521 17.3418 14.5195C17.3815 14.587 17.402 14.6593 17.402 14.7324C17.402 14.8055 17.3815 14.8779 17.3418 14.9453C17.302 15.0128 17.2438 15.074 17.1704 15.1255C17.0973 15.1768 17.0105 15.2174 16.9151 15.2449C16.8197 15.2725 16.7176 15.2865 16.6145 15.286Z" fill="#484B4F"/>
<path d="M17.7346 15.2861C17.5901 15.2858 17.4484 15.2572 17.3254 15.2035C17.2024 15.1497 17.1029 15.073 17.0378 14.9817C15.3937 12.6842 16.294 11.267 17.3353 10.4864C17.4786 10.3792 17.6763 10.3167 17.8848 10.3125C18.0933 10.3083 18.2955 10.3629 18.4471 10.4642C18.5987 10.5655 18.6872 10.7053 18.693 10.8527C18.6989 11.0001 18.6217 11.1432 18.4784 11.2504C17.4606 12.0088 17.445 13.0994 18.4315 14.4834C18.5243 14.6142 18.5402 14.7656 18.4757 14.9046C18.4111 15.0436 18.2714 15.1589 18.087 15.2252C17.9789 15.2667 17.8576 15.2877 17.7346 15.2861Z" fill="#484B4F"/>
<path d="M33.8468 34.7501H16.1523C13.5534 34.752 11.0519 34.0508 9.16065 32.7904C0.454336 26.972 -1.69876 20.0187 1.23728 16.6583C1.30685 16.5775 1.40455 16.5106 1.52106 16.4641C1.63756 16.4176 1.76898 16.393 1.90278 16.3926H48.0964C48.2302 16.393 48.3616 16.4176 48.4781 16.4641C48.5946 16.5106 48.6923 16.5775 48.7619 16.6583C51.6979 20.0187 49.5448 26.972 40.8385 32.7904C38.9473 34.0508 36.4458 34.752 33.8468 34.7501ZM2.35689 17.4998C-0.493025 21.2975 4.13416 27.891 10.2333 31.9821C11.8311 33.053 13.9508 33.6478 16.1523 33.6429H33.8468C36.0484 33.6478 38.168 33.053 39.7659 31.9821C45.865 27.9076 50.4922 21.2975 47.6423 17.4998H2.35689Z" fill="#484B4F"/>
<path d="M32.2257 8.99665C30.4563 8.99665 26.5338 8.77521 23.997 6.98153C20.7008 4.63978 21.1393 0.687036 21.1628 0.520954C21.1784 0.391978 21.2575 0.270952 21.3862 0.178914C21.5149 0.0868755 21.6852 0.0296459 21.8674 0.0171734C22.1101 0.0171734 27.7317 -0.320526 31.02 1.99908C34.3162 4.32422 33.8778 8.30464 33.8543 8.47072C33.8384 8.60056 33.7582 8.72227 33.6279 8.81442C33.4975 8.90657 33.3254 8.96326 33.1418 8.97451C33.087 8.98004 32.7503 8.99665 32.2257 8.99665ZM22.6973 1.10224C22.6973 2.15963 22.9401 4.67853 25.101 6.20094C27.2619 7.72336 30.7616 7.86176 32.2806 7.86176H32.3197C32.3197 6.80437 32.077 4.27993 29.9161 2.75752C27.7551 1.26279 24.2162 1.0967 22.6973 1.10224Z" fill="#484B4F"/>
</svg>
