<svg width="37" height="6" viewBox="0 0 37 6" fill="none" xmlns="http://www.w3.org/2000/svg">
<path d="M14.083 2.85138C14.083 3.15142 13.9312 3.46356 13.6003 3.77472C13.2689 4.08633 12.7755 4.37874 12.1446 4.62968C10.8841 5.13097 9.12528 5.4467 7.16955 5.4467C5.21382 5.4467 3.45499 5.13097 2.19454 4.62968C1.56358 4.37874 1.07022 4.08633 0.738822 3.77472C0.407905 3.46356 0.256055 3.15142 0.256055 2.85138C0.256055 2.55134 0.407905 2.23919 0.738822 1.92804C1.07022 1.61643 1.56358 1.32401 2.19454 1.07308C3.45499 0.571788 5.21382 0.256055 7.16955 0.256055C9.12528 0.256055 10.8841 0.571788 12.1446 1.07308C12.7755 1.32401 13.2689 1.61643 13.6003 1.92804C13.9312 2.23919 14.083 2.55134 14.083 2.85138Z" stroke="#663031" stroke-opacity="0.73" stroke-width="0.5"/>
<ellipse cx="7.16875" cy="2.85092" rx="2.86782" ry="1.14055" fill="#663031"/>
<path d="M36.7439 2.85138C36.7439 3.15142 36.5921 3.46356 36.2612 3.77472C35.9298 4.08633 35.4364 4.37874 34.8055 4.62968C33.545 5.13097 31.7862 5.4467 29.8304 5.4467C27.8747 5.4467 26.1159 5.13097 24.8554 4.62968C24.2245 4.37874 23.7311 4.08633 23.3997 3.77472C23.0688 3.46356 22.917 3.15142 22.917 2.85138C22.917 2.55134 23.0688 2.23919 23.3997 1.92804C23.7311 1.61643 24.2245 1.32401 24.8554 1.07308C26.1159 0.571788 27.8747 0.256055 29.8304 0.256055C31.7862 0.256055 33.545 0.571788 34.8055 1.07308C35.4364 1.32401 35.9298 1.61643 36.2612 1.92804C36.5921 2.23919 36.7439 2.55134 36.7439 2.85138Z" stroke="#663031" stroke-opacity="0.73" stroke-width="0.5"/>
</svg>
