<svg width="54" height="54" viewBox="0 0 54 54" fill="none" xmlns="http://www.w3.org/2000/svg">
<path d="M52.9642 51.9386H44.1024C50.6972 47.1982 50.3881 43.7974 50.3881 43.3852C50.3881 43.1791 50.182 42.973 50.0789 42.7669C49.9759 42.6638 48.7394 41.7364 46.1633 41.7364C43.7933 41.7364 41.0112 42.4577 37.8168 43.9005C37.7138 43.9005 37.7138 43.7974 37.6107 43.7974C35.0347 42.4577 33.592 39.3662 32.9738 34.4196C35.6529 36.9959 40.2898 37.3051 42.6598 37.3051C43.4842 37.3051 44.1024 37.3051 44.1024 37.202C44.6177 37.202 45.0298 36.7898 45.0298 36.2746C45.0298 36.0685 45.1329 31.1219 41.6294 25.351C39.6716 22.1563 36.9925 19.9922 33.1799 18.6525C30.7068 17.8281 29.5734 16.2823 29.4703 13.603C29.9855 13.1908 30.5008 12.6755 31.016 11.9541C31.9434 10.4083 32.5616 8.45033 32.5616 6.38927C32.5616 2.37021 30.5008 0 26.9973 0C23.4938 0 21.433 2.37021 21.433 6.38927C21.433 8.45033 21.9482 10.4083 22.9786 11.9541C23.3908 12.6755 23.906 13.1908 24.5243 13.603C24.4212 16.3854 23.3908 17.8281 20.8147 18.6525C17.0021 19.8892 14.2199 22.0533 12.3652 25.351C8.96475 31.1219 8.96475 36.0685 8.96475 36.2746C8.96475 36.7898 9.37692 37.202 9.89214 37.202C9.99518 37.202 10.5104 37.3051 11.3347 37.3051C13.7047 37.3051 18.3417 36.9959 21.0208 34.4196C20.5056 39.3662 18.9599 42.4577 16.3839 43.7974C16.2808 43.7974 16.2808 43.9005 16.1778 43.9005C12.9834 42.4577 10.2013 41.7364 7.83128 41.7364C5.2552 41.7364 4.01868 42.6638 3.91564 42.7669C3.70955 42.973 3.60651 43.1791 3.60651 43.3852C3.50347 43.7974 3.29738 47.1982 9.89214 51.9386H1.03043C0.515215 51.9386 0 52.3508 0 52.9691C0 53.4844 0.412172 53.9996 1.03043 53.9996H13.1895H26.4821H27.5125H40.8051H52.9642C53.4794 53.9996 53.9946 53.5874 53.9946 52.9691C53.8915 52.3508 53.4794 51.9386 52.9642 51.9386ZM23.3908 6.38927C23.3908 3.40074 24.6273 1.958 26.9973 1.958C29.3673 1.958 30.6038 3.50379 30.6038 6.38927C30.6038 9.68696 28.9551 12.4694 26.9973 12.4694C25.0395 12.4694 23.3908 9.79001 23.3908 6.38927ZM21.536 40.4997C22.4634 38.2326 22.9786 35.3471 23.0817 31.6372C25.0395 28.5456 25.9669 25.454 26.276 23.7021C26.379 23.1869 26.0699 22.6716 25.4516 22.5686C24.9364 22.4655 24.4212 22.7747 24.3182 23.393C23.906 25.351 22.7725 29.267 19.8873 32.7708C17.7234 35.3471 12.8804 35.5532 10.8195 35.5532C10.9226 34.0074 11.5408 30.5036 13.9108 26.5876C15.5595 23.8052 17.9295 21.9502 21.3299 20.8167C24.4212 19.7861 25.9669 17.8281 26.276 14.6335C26.4821 14.6335 26.6882 14.7365 26.8942 14.7365C27.1003 14.7365 27.3064 14.7365 27.5125 14.6335C27.8216 17.8281 29.4703 19.7861 32.4586 20.8167C35.756 21.9502 38.229 23.8052 39.8777 26.5876C42.1446 30.5036 42.7629 33.9044 42.969 35.5532C40.9081 35.5532 36.0651 35.3471 33.9012 32.7708C30.6038 28.8548 29.8825 24.8357 29.6764 23.2899C29.5734 22.7747 29.0582 22.3624 28.5429 22.4655C28.0277 22.5686 27.6155 23.0838 27.7186 23.5991C28.0277 25.6601 28.749 28.6487 30.7068 31.7402C30.8099 35.4501 31.3251 38.3356 32.2525 40.6028C33.0768 42.5608 34.2103 44.1066 35.6529 45.1371C35.6529 45.1371 35.5499 45.1371 35.5499 45.2402C32.1494 47.0951 29.0582 49.1562 26.8942 51.2172C24.7303 49.2592 21.7421 47.0951 18.2386 45.2402C18.2386 45.2402 18.1356 45.2402 18.1356 45.1371C19.6812 44.0035 20.8147 42.4577 21.536 40.4997ZM13.3956 51.9386C11.0256 50.4959 7.93432 48.3317 6.38867 45.9615C5.87346 45.1371 5.66737 44.5188 5.56433 44.1066C5.9765 43.9005 6.6978 43.6944 7.83128 43.6944C11.0256 43.6944 14.7352 45.3432 17.4143 46.7859C20.4025 48.4348 23.0817 50.1867 25.0395 51.9386H13.3956ZM28.8521 51.9386C30.8099 50.1867 33.489 48.4348 36.4773 46.7859C39.0533 45.3432 42.8659 43.6944 46.0603 43.6944C47.1937 43.6944 47.915 43.9005 48.3272 44.1066C48.2242 44.5188 48.0181 45.1371 47.5029 45.9615C45.9572 48.3317 42.8659 50.4959 40.4959 51.9386H28.8521Z" fill="#E86C02" fill-opacity="0.8"/>
</svg>
