<svg width="37" height="7" viewBox="0 0 37 7" fill="none" xmlns="http://www.w3.org/2000/svg">
<path d="M14.083 3.38801C14.083 4.16671 13.4057 4.94924 12.1298 5.55219C10.8736 6.14581 9.12017 6.51996 7.16955 6.51996C5.21893 6.51996 3.46551 6.14581 2.20931 5.55219C0.933386 4.94924 0.256055 4.16671 0.256055 3.38801C0.256055 2.60931 0.933386 1.82678 2.20931 1.22383C3.46551 0.63021 5.21893 0.256055 7.16955 0.256055C9.12017 0.256055 10.8736 0.63021 12.1298 1.22383C13.4057 1.82678 14.083 2.60931 14.083 3.38801Z" stroke="#663031" stroke-opacity="0.73" stroke-width="0.5"/>
<ellipse cx="7.16875" cy="3.38764" rx="2.86782" ry="1.3552" fill="#663031"/>
<path d="M36.7439 3.38801C36.7439 4.16671 36.0666 4.94924 34.7907 5.55219C33.5345 6.14581 31.7811 6.51996 29.8304 6.51996C27.8798 6.51996 26.1264 6.14581 24.8702 5.55219C23.5943 4.94924 22.917 4.16671 22.917 3.38801C22.917 2.60931 23.5943 1.82678 24.8702 1.22383C26.1264 0.63021 27.8798 0.256055 29.8304 0.256055C31.7811 0.256055 33.5345 0.63021 34.7907 1.22383C36.0666 1.82678 36.7439 2.60931 36.7439 3.38801Z" stroke="#663031" stroke-opacity="0.73" stroke-width="0.5"/>
</svg>
