<svg width="6" height="23" viewBox="0 0 6 23" fill="none" xmlns="http://www.w3.org/2000/svg">
<path d="M0.333377 7.63486H5.09525V22.9998H0.333377V7.63486ZM2.76193 3.76678e-10C3.3075 9.01041e-06 3.84085 0.161598 4.29469 0.464382C4.74853 0.767165 5.10253 1.19758 5.31203 1.70132C5.52152 2.20507 5.57714 2.75957 5.47185 3.29489C5.36656 3.83021 5.10509 4.32235 4.72042 4.70923C4.33575 5.09611 3.84511 5.3604 3.31041 5.46875C2.77571 5.5771 2.22089 5.52467 1.71596 5.31806C1.21102 5.11145 0.778583 4.75993 0.473204 4.30783C0.167824 3.85573 0.00318108 3.32332 4.56159e-05 2.77776C-0.00204654 2.41373 0.0678478 2.05288 0.205709 1.71595C0.343569 1.37903 0.546677 1.07269 0.80335 0.814541C1.06002 0.556393 1.3652 0.351533 1.70132 0.211744C2.03745 0.0719545 2.39789 -6.01162e-06 2.76193 3.76678e-10Z" fill="white"/>
</svg>
