<svg width="55" height="48" viewBox="0 0 55 48" fill="none" xmlns="http://www.w3.org/2000/svg">
<path d="M49.6443 45.2925H42.1017C47.7148 41.1587 47.4517 38.1931 47.4517 37.8337C47.4517 37.6539 47.2763 37.4742 47.1885 37.2945C47.1008 37.2046 46.0484 36.3958 43.8558 36.3958C41.8386 36.3958 39.4706 37.0249 36.7518 38.283C36.6641 38.283 36.6641 38.1931 36.5764 38.1931C34.3838 37.0249 33.1559 34.3289 32.6297 30.0153C34.91 32.262 38.8567 32.5316 40.8739 32.5316C41.5755 32.5316 42.1017 32.5315 42.1017 32.4417C42.5402 32.4417 42.8911 32.0822 42.8911 31.6329C42.8911 31.4532 42.9788 27.1396 39.9968 22.1071C38.3305 19.3212 36.0502 17.434 32.8051 16.2658C30.7002 15.5468 29.7355 14.1989 29.6478 11.8623C30.0863 11.5029 30.5248 11.0535 30.9633 10.4245C31.7527 9.07648 32.2789 7.36903 32.2789 5.5717C32.2789 2.06692 30.5248 0 27.5429 0C24.5609 0 22.8069 2.06692 22.8069 5.5717C22.8069 7.36903 23.2454 9.07648 24.1224 10.4245C24.4732 11.0535 24.9118 11.5029 25.438 11.8623C25.3503 14.2887 24.4732 15.5468 22.2806 16.2658C19.0356 17.3442 16.6676 19.2314 15.0889 22.1071C12.1947 27.1396 12.1947 31.4532 12.1947 31.6329C12.1947 32.0822 12.5455 32.4417 12.984 32.4417C13.0717 32.4417 13.5103 32.5316 14.2119 32.5316C16.2291 32.5316 20.1757 32.262 22.4561 30.0153C22.0175 34.3289 20.702 37.0249 18.5094 38.1931C18.4217 38.1931 18.4217 38.283 18.334 38.283C15.6151 37.0249 13.2471 36.3958 11.23 36.3958C9.03735 36.3958 7.98491 37.2046 7.8972 37.2945C7.72179 37.4742 7.63409 37.6539 7.63409 37.8337C7.54639 38.1931 7.37098 41.1587 12.984 45.2925H5.44149C5.00297 45.2925 4.56445 45.652 4.56445 46.1912C4.56445 46.6405 4.91527 47.0899 5.44149 47.0899H15.7906H27.1044H27.9814H39.2952H49.6443C50.0828 47.0899 50.5213 46.7304 50.5213 46.1912C50.4336 45.652 50.0828 45.2925 49.6443 45.2925ZM24.4732 5.5717C24.4732 2.96558 25.5257 1.70746 27.5429 1.70746C29.5601 1.70746 30.6125 3.05545 30.6125 5.5717C30.6125 8.44742 29.2093 10.8738 27.5429 10.8738C25.8765 10.8738 24.4732 8.53728 24.4732 5.5717ZM22.8946 35.3174C23.6839 33.3403 24.1224 30.8241 24.2101 27.5889C25.8765 24.8929 26.6658 22.1969 26.9289 20.6692C27.0167 20.2199 26.7535 19.7706 26.2273 19.6807C25.7888 19.5908 25.3503 19.8604 25.2626 20.3996C24.9118 22.1071 23.947 25.522 21.4913 28.5774C19.6495 30.8241 15.5274 31.0038 13.7734 31.0038C13.8611 29.6558 14.3873 26.6004 16.4045 23.1855C17.8077 20.7591 19.8249 19.1415 22.7192 18.153C25.3503 17.2543 26.6658 15.5468 26.9289 12.761C27.1044 12.761 27.2798 12.8509 27.4552 12.8509C27.6306 12.8509 27.806 12.8509 27.9814 12.761C28.2445 15.5468 29.6478 17.2543 32.1912 18.153C34.9977 19.1415 37.1026 20.7591 38.5059 23.1855C40.4354 26.6004 40.9616 29.566 41.137 31.0038C39.3829 31.0038 35.2608 30.8241 33.419 28.5774C30.6125 25.1625 29.9986 21.6577 29.8232 20.3098C29.7355 19.8604 29.297 19.501 28.8584 19.5908C28.4199 19.6807 28.0691 20.13 28.1568 20.5794C28.4199 22.3767 29.0338 24.9828 30.7002 27.6788C30.7879 30.914 31.2264 33.4302 32.0158 35.4073C32.7174 37.1147 33.6821 38.4627 34.91 39.3614C34.91 39.3614 34.8223 39.3614 34.8223 39.4512C31.9281 41.0688 29.297 42.8662 27.4552 44.6635C25.6134 42.956 23.07 41.0688 20.088 39.4512C20.088 39.4512 20.0003 39.4512 20.0003 39.3614C21.3159 38.3728 22.2806 37.0249 22.8946 35.3174ZM15.966 45.2925C13.9488 44.0344 11.3177 42.1472 10.0021 40.0803C9.56358 39.3614 9.38817 38.8222 9.30046 38.4627C9.65128 38.283 10.2652 38.1033 11.23 38.1033C13.9488 38.1033 17.1061 39.5411 19.3864 40.7992C21.9298 42.2371 24.2101 43.7648 25.8765 45.2925H15.966ZM29.1215 45.2925C30.7879 43.7648 33.0682 42.2371 35.6116 40.7992C37.8042 39.5411 41.0493 38.1033 43.7681 38.1033C44.7328 38.1033 45.3468 38.283 45.6976 38.4627C45.6099 38.8222 45.4345 39.3614 44.996 40.0803C43.6804 42.1472 41.0493 44.0344 39.0321 45.2925H29.1215Z" fill="#484B4F" fill-opacity="0.9"/>
</svg>
