<svg width="44" height="31" viewBox="0 0 44 31" fill="none" xmlns="http://www.w3.org/2000/svg">
<path d="M39.9829 13.623C39.7844 13.623 39.5896 13.5674 39.442 13.4631C39.294 13.3584 39.1993 13.2075 39.1993 13.039V13.0149C39.1993 11.9671 38.6107 10.9517 37.5425 10.1964C36.474 9.44082 35.0193 9.01324 33.4979 9.01324C31.9766 9.01324 30.5219 9.44082 29.4534 10.1964C28.3852 10.9517 27.7966 11.9671 27.7966 13.0149C27.7966 13.1833 27.7019 13.3342 27.5538 13.4389C27.4062 13.5433 27.2113 13.5989 27.0126 13.5989C26.814 13.5989 26.6191 13.5433 26.4714 13.4389C26.3234 13.3343 26.2287 13.1834 26.2286 13.015M39.9829 13.623C40.0885 13.6234 40.1935 13.6081 40.2914 13.5777C40.3892 13.5473 40.4789 13.5021 40.554 13.4437C40.6292 13.3853 40.689 13.314 40.7268 13.2332C40.7637 13.1542 40.7779 13.069 40.7672 12.9838C40.7601 11.6016 39.978 10.2883 38.6127 9.3275C37.2456 8.36543 35.3994 7.82985 33.4807 7.83308C31.562 7.83631 29.7194 8.3781 28.3586 9.34483C26.9976 10.3118 26.224 11.6304 26.2286 13.015M39.9829 13.623L39.9833 13.5217M39.9829 13.623L39.9833 13.5217M39.9829 13.623C39.983 13.623 39.9831 13.623 39.9833 13.623V13.5217M39.9829 13.623L39.9833 13.5217M26.2286 13.015C26.2286 13.0151 26.2286 13.0151 26.2286 13.0152L26.3299 13.0149H26.2286C26.2286 13.0149 26.2286 13.015 26.2286 13.015Z" fill="#E86C02" stroke="#E86C02" stroke-width="0.2"/>
<path d="M24.4585 13.6316L24.4585 13.6315C24.288 13.6353 24.1185 13.5981 23.9776 13.5234C23.837 13.4488 23.7276 13.3379 23.6784 13.2028L23.6776 13.2007L23.6776 13.2007C23.5748 12.8978 23.3539 12.6152 23.0325 12.3869C22.5456 12.048 21.8857 11.8536 21.1926 11.8503L21.1926 11.8503C21.0501 11.8496 20.9093 11.8203 20.7864 11.7643C20.6638 11.7084 20.5607 11.6266 20.4939 11.5245L20.4938 11.5243C20.4259 11.42 20.3997 11.3 20.4234 11.1805C20.4468 11.0621 20.5167 10.9568 20.6163 10.8746C20.9965 10.5549 21.202 10.1594 21.2122 9.75691C21.2224 9.35449 21.0371 8.95483 20.674 8.62631C20.3102 8.2972 19.7926 8.06265 19.2055 7.96718C18.6187 7.87177 18.0037 7.92209 17.4648 8.10867L17.4632 8.10921L17.4632 8.1092C17.285 8.16762 17.0834 8.17483 16.8988 8.12998C16.7148 8.08529 16.5534 7.99005 16.4554 7.85528L16.4536 7.85279L16.4536 7.85276C16.3388 7.68437 16.1819 7.52962 15.9884 7.39647L15.9879 7.39617C15.5335 7.07991 14.9272 6.88866 14.2815 6.86267C13.6359 6.83668 13.0016 6.97796 12.4972 7.25686L12.4482 7.16817M24.4585 13.6316L20.5787 11.469C20.524 11.3851 20.5046 11.2917 20.5228 11.2002C20.5409 11.1086 20.5959 11.0227 20.6811 10.9525C21.0792 10.6179 21.3024 10.1967 21.3135 9.75948C21.3246 9.32228 21.1228 8.89568 20.742 8.55116C20.3611 8.20664 19.8244 7.96515 19.2217 7.86715C18.6191 7.76916 17.987 7.82061 17.4316 8.0129C17.2717 8.06532 17.0894 8.07198 16.9227 8.0315C16.756 7.99101 16.6179 7.90651 16.5373 7.79568C16.4147 7.6157 16.2483 7.45233 16.0458 7.31298C15.5732 6.98411 14.9476 6.78805 14.2856 6.7614C13.6236 6.73476 12.9705 6.87934 12.4482 7.16817M24.4585 13.6316L24.462 13.6314L24.6327 13.6217L24.6327 13.6225L24.6452 13.6202C24.8369 13.5852 25.0097 13.4967 25.1202 13.3653C25.2326 13.2317 25.2706 13.0643 25.2144 12.9037M24.4585 13.6316L24.6269 13.5205M12.4482 7.16817L12.4977 7.25659C12.4108 7.30527 12.3118 7.33946 12.2075 7.3579C12.1031 7.37634 11.9947 7.37882 11.8891 7.36523M12.4482 7.16817C12.3721 7.21079 12.284 7.24145 12.1898 7.2581C12.0957 7.27475 11.9976 7.277 11.902 7.26471M11.8891 7.36523L11.902 7.26471M11.8891 7.36523C11.8891 7.36523 11.8892 7.36523 11.8892 7.36524L11.902 7.26471M11.8891 7.36523C11.7833 7.3517 11.6815 7.32221 11.5907 7.27783C11.5006 7.23376 11.4219 7.17532 11.3617 7.10471M11.902 7.26471C11.8063 7.25248 11.7153 7.22591 11.6352 7.18678C11.5552 7.14765 11.4879 7.09687 11.4378 7.03784M11.3617 7.10471C11.362 7.10508 11.3623 7.10546 11.3627 7.10584L11.4378 7.03784M11.3617 7.10471C11.2086 6.9357 11.0272 6.77927 10.821 6.63892L10.8194 6.6378L10.8194 6.63779C10.3015 6.27021 9.63763 6.01742 8.91102 5.91435C8.18458 5.81131 7.43142 5.86308 6.74768 6.06254C6.06366 6.26208 5.48352 6.59932 5.07781 7.02754C4.67262 7.45522 4.46063 7.9529 4.45993 8.45712L4.45992 8.46456L4.45965 8.46454C4.45349 8.54697 4.45342 8.62956 4.45944 8.712C4.5386 9.29951 4.9073 9.85776 5.51596 10.2856L5.51664 10.286C5.72854 10.4376 5.96726 10.5702 6.22738 10.6805C6.32178 10.7198 6.40581 10.7739 6.47247 10.8408C6.53933 10.908 6.58782 10.9873 6.61109 11.0743C6.63448 11.1617 6.63103 11.2519 6.60142 11.3377C6.57195 11.4231 6.51815 11.4997 6.44708 11.5637L6.44573 11.5649L6.44571 11.5649C6.21835 11.7622 6.05658 11.9892 5.96791 12.2292C5.87941 12.4687 5.86492 12.7176 5.92473 12.9605L5.92486 12.961C5.96518 13.1287 5.90712 13.2951 5.77998 13.4219C5.65445 13.547 5.47035 13.6262 5.2718 13.6501C5.07282 13.674 4.8667 13.6416 4.69756 13.5567C4.52894 13.4721 4.40203 13.3372 4.36245 13.1725L4.3622 13.1715C4.21626 12.5341 4.36684 11.8844 4.78128 11.3204M11.3617 7.10471C11.3613 7.10426 11.3609 7.10382 11.3605 7.10337L11.4378 7.03784M11.4378 7.03784C11.2787 6.86196 11.0908 6.69994 10.878 6.55514C10.3451 6.17694 9.66554 5.91902 8.92525 5.81401C8.18497 5.70901 7.41726 5.76164 6.71929 5.96525C6.02133 6.16886 5.42447 6.5143 5.00424 6.95784C4.58402 7.40139 4.35932 7.92311 4.35859 8.45698C4.35198 8.54542 4.35198 8.63403 4.35859 8.72247C4.44147 9.34514 4.83037 9.92757 5.45768 10.3685C5.67617 10.5248 5.92157 10.661 6.18813 10.7739C6.27212 10.8088 6.34458 10.856 6.40065 10.9123C6.45671 10.9686 6.49509 11.0328 6.51319 11.1004C6.5313 11.1681 6.52872 11.2377 6.50562 11.3046C6.48252 11.3716 6.43944 11.4342 6.37928 11.4883C6.14095 11.6952 5.96825 11.9359 5.87285 12.194C5.77745 12.4522 5.76158 12.7218 5.82632 12.9847C5.8571 13.1127 5.8147 13.2442 5.70843 13.3501C5.60217 13.456 5.44076 13.5277 5.25971 13.5495C5.07865 13.5712 4.89279 13.5413 4.743 13.4661C4.59321 13.391 4.49177 13.2769 4.46099 13.1488C4.32156 12.54 4.46563 11.9164 4.86953 11.3715C4.83986 11.3547 4.81045 11.3377 4.78128 11.3204M24.6269 13.5205C24.8012 13.4887 24.9507 13.4094 25.0427 13.3C25.1348 13.1906 25.162 13.06 25.1185 12.9365M24.6269 13.5205L24.4563 13.5302L24.6269 13.5205ZM25.1185 12.9365L25.2146 12.9045C25.2145 12.9043 25.2144 12.904 25.2144 12.9037M25.1185 12.9365C24.9588 12.4551 24.6231 12.0118 24.1451 11.6509C23.6922 11.309 23.1266 11.0525 22.4995 10.9039L25.1185 12.9365ZM25.2144 12.9037C25.047 12.3998 24.6973 11.9408 24.2062 11.5701C23.7482 11.2243 23.1804 10.9651 22.5537 10.8127M25.2144 12.9037L22.5537 10.8127M22.5537 10.8127C22.833 10.3198 22.9236 9.77907 22.8104 9.24786C22.6881 8.67343 22.3344 8.14232 21.8007 7.71608C21.2671 7.28996 20.5738 6.98465 19.806 6.8339C19.0557 6.68659 18.2625 6.69236 17.5171 6.85022C17.3956 6.73699 17.2633 6.63009 17.1214 6.53022C16.4844 6.0814 15.6627 5.79294 14.7803 5.70444C13.9192 5.61807 13.0413 5.72622 12.2709 6.01405C12.1711 5.92867 12.063 5.84434 11.9558 5.76435L11.9559 5.76433L11.9541 5.76309C11.215 5.23541 10.2741 4.87719 9.25182 4.73097C8.22938 4.58473 7.16835 4.65665 6.2028 4.93814C5.23752 5.21956 4.40756 5.69887 3.82133 6.31921C3.2346 6.94008 2.91755 7.67569 2.91922 8.43296M22.5537 10.8127L4.78128 11.3204M22.5537 10.8127C22.5195 10.8043 22.4851 10.7963 22.4506 10.7887C22.7303 10.3087 22.8209 9.78349 22.7113 9.26898C22.5947 8.72157 22.2565 8.20973 21.7374 7.79528C21.2184 7.38082 20.5408 7.08146 19.7864 6.93335C19.0321 6.78523 18.2332 6.7947 17.4862 6.96061C17.358 6.83724 17.2165 6.72105 17.063 6.61306C16.4423 6.1757 15.6379 5.8923 14.7702 5.80528C13.9026 5.71826 13.0185 5.83231 12.2502 6.13036C12.141 6.03382 12.0181 5.93728 11.8952 5.84557L22.5537 10.8127ZM2.91922 8.43296V8.43285H3.02057L2.91922 8.43308C2.91922 8.43304 2.91922 8.433 2.91922 8.43296ZM2.91922 8.43296V8.43353V8.43421V8.43488V8.43556V8.43624V8.43692V8.4376V8.43828V8.43896V8.43964V8.44031V8.44099V8.44167V8.44235V8.44303V8.44371V8.44439V8.44507V8.44575V8.44642V8.4471V8.44778V8.44846V8.44914V8.44982V8.4505V8.45118V8.45186V8.45253V8.45321V8.45389V8.45457V8.45525V8.45593V8.45661V8.45729V8.45797V8.45865V8.45932V8.46V8.46068V8.46136V8.46204V8.46272V8.4634V8.46408V8.46476V8.46544V8.46612V8.4668V8.46748V8.46815V8.46883V8.46951V8.47019V8.47087V8.47155V8.47223V8.47291V8.47359V8.47427V8.47495V8.47563V8.47631V8.47699V8.47767V8.47835V8.47903V8.47971V8.48039V8.48107V8.48175V8.48243V8.48311V8.48379V8.48447V8.48515V8.48583V8.48651V8.48719V8.48787V8.48855V8.48923V8.48991V8.49059V8.49127V8.49195V8.49263V8.49331V8.49399V8.49467V8.49535V8.49603V8.49671V8.4974V8.49808V8.49876V8.49944V8.50012V8.5008V8.50148V8.50216V8.50284V8.50352V8.5042V8.50489V8.50557V8.50625V8.50693V8.50761V8.50829V8.50897V8.50966V8.51034V8.51102V8.5117V8.51238V8.51306V8.51375V8.51443V8.51511V8.51579V8.51647V8.51716V8.51784V8.51852V8.5192V8.51988V8.52057V8.52125V8.52193V8.52261V8.5233V8.52398V8.52466V8.52535V8.52603V8.52671V8.52739V8.52808V8.52876V8.52944V8.53013V8.53081V8.53149V8.53218V8.53286V8.53354V8.53423V8.53491V8.53559V8.53628V8.53696V8.53765V8.53833V8.53901V8.5397V8.54038V8.54107V8.54175V8.54243V8.54312V8.5438V8.54449V8.54517V8.54586V8.54654V8.54723V8.54791V8.5486V8.54928V8.54997V8.55065V8.55134V8.55202V8.55271V8.55339V8.55408V8.55476V8.55545V8.55614V8.55682V8.55751V8.55819V8.55888V8.55957V8.56025V8.56094V8.56163V8.56231V8.563V8.56369V8.56437V8.56506V8.56575V8.56643V8.56712V8.56781V8.5685V8.56918V8.56987V8.57056V8.57125V8.57193V8.57262V8.57331V8.574V8.57468V8.57537V8.57606V8.57675V8.57744V8.57813V8.57882V8.5795V8.58019V8.58088V8.58157V8.58226V8.58295V8.58364V8.58433V8.58502V8.58571V8.5864V8.58709V8.58778V8.58847V8.58916V8.58985V8.59054V8.59123V8.59192V8.59261V8.5933V8.59399V8.59468V8.59537V8.59606V8.59675V8.59744V8.59814V8.59883V8.59952V8.60021V8.6009V8.60159V8.60229V8.60298V8.60367V8.60436V8.60506V8.60575V8.60644V8.60713V8.60783V8.60852V8.60921V8.60991V8.6106V8.61129V8.61199V8.61268V8.61337V8.61407V8.61476V8.61546V8.61615V8.61684V8.61754V8.61823V8.61893V8.61962V8.62032V8.62101V8.62171V8.6224V8.6231V8.62379V8.62449V8.62519V8.62588V8.62658V8.62727V8.62797V8.62867V8.62936V8.63006V8.63076V8.63145V8.63215V8.63285V8.63354V8.63424V8.63494V8.63564V8.63633V8.63703V8.63773V8.63843V8.63913V8.63983V8.64052V8.64122V8.64192V8.64262V8.64332V8.64402V8.64472V8.64542V8.64612V8.64682V8.64752V8.64822V8.64892V8.64962V8.65032V8.65102V8.65172V8.65242V8.65312V8.65382V8.65452V8.65522V8.65593V8.65663V8.65733V8.65803V8.65873V8.65944V8.66014V8.66084V8.66154V8.66225V8.66295V8.66365V8.66436V8.66506V8.66576V8.66647V8.66717V8.66787V8.66858V8.66928V8.66999V8.67069V8.6714V8.6721V8.67281V8.67351V8.67422V8.67492V8.67563V8.67633V8.67704V8.67774V8.67845V8.67916V8.67986V8.68057V8.68128V8.68198V8.68269V8.6834V8.68411V8.68481V8.68552V8.68623V8.68694V8.68765V8.68835V8.68906V8.68977V8.69048V8.69119V8.6919V8.69261V8.69332V8.69403V8.69474V8.69545V8.69616V8.69687V8.69758V8.69829V8.699V8.69971V8.70042V8.70113V8.70185V8.70256V8.70327V8.70398V8.70469V8.70541V8.70612V8.70683V8.70754V8.70826V8.70897V8.70968V8.7104V8.71111V8.71182V8.71254V8.71325V8.71397V8.71468V8.7154V8.71611V8.71683V8.71754V8.71826V8.71897V8.71969V8.72041V8.72112V8.72184V8.72256V8.72327V8.72399V8.72471V8.72542V8.72614V8.72686V8.72758V8.72829V8.72901V8.72973V8.73045V8.73117V8.73189V8.73261V8.73333V8.73405V8.73477V8.73548V8.7362V8.73693V8.73765V8.73837V8.73909V8.73981V8.74053V8.74125V8.74197V8.74269V8.74342V8.74414V8.74486V8.74558V8.74631V8.74703V8.74775V8.74848V8.7492V8.74992V8.75065V8.75137V8.7521V8.75282V8.75355V8.75427V8.755V8.75572V8.75645V8.75717V8.7579V8.75862V8.75935V8.76008V8.7608V8.76153V8.76226V8.76299V8.76371V8.76444V8.76517V8.7659V8.76663V8.76735V8.76808V8.76881V8.76954V8.77027V8.771V8.77173V8.77246V8.77319V8.77392V8.77465V8.77538V8.77611V8.77684V8.77758V8.77831V8.77904V8.77977V8.7805V8.78124V8.78197V8.7827V8.78344V8.78417V8.7849V8.78564V8.78637V8.78711V8.78784V8.78858V8.78931V8.79005H2.91823L2.92021 8.80414C3.04375 9.6836 3.59138 10.4974 4.4569 11.1124L4.45778 11.113C4.56175 11.1852 4.66967 11.2544 4.78128 11.3204M4.8432 11.2393C4.72998 11.1727 4.62069 11.1028 4.5156 11.0298C3.66748 10.4272 3.13941 9.63606 3.02057 8.79005L4.8432 11.2393Z" fill="#E86C02" stroke="#E86C02" stroke-width="0.2"/>
<path d="M14.1467 13.4741L14.1463 13.4739L8.73284 9.64126L8.73279 9.64123L8.79135 9.55851L14.1467 13.4741ZM14.1467 13.4741C14.2206 13.526 14.3066 13.5659 14.3994 13.5927C14.492 13.6194 14.5906 13.6329 14.6896 13.6325M14.1467 13.4741L14.6896 13.6325M14.6896 13.6325C14.6894 13.6325 14.6893 13.6325 14.6892 13.6325L14.6896 13.5311V13.6325ZM14.6896 13.6325C14.7886 13.6329 14.8871 13.6194 14.9798 13.5927C15.0725 13.5659 15.1586 13.526 15.2325 13.4741C15.3066 13.4222 15.368 13.3585 15.411 13.2855C15.4542 13.2123 15.4775 13.1316 15.4775 13.0484C15.4775 12.9653 15.4542 12.8846 15.411 12.8114C15.3681 12.7384 15.3067 12.6748 15.2326 12.6229C15.2326 12.6228 15.2325 12.6228 15.2325 12.6228L14.6896 13.6325Z" fill="#E86C02" stroke="#E86C02" stroke-width="0.2"/>
<path d="M15.057 13.2646C13.6234 11.2614 14.4085 10.0257 15.3164 9.34511L14.9746 13.3236M15.057 13.2646L14.9745 13.3235C14.9745 13.3235 14.9745 13.3236 14.9746 13.3236M15.057 13.2646C15.1137 13.3442 15.2005 13.4112 15.3078 13.4581C15.415 13.5049 15.5385 13.5299 15.6646 13.5301L15.057 13.2646ZM14.9746 13.3236C14.247 12.307 14.0715 11.469 14.2093 10.7888C14.3466 10.1109 14.7908 9.61249 15.2556 9.26402L15.2557 9.26396C15.4003 9.1558 15.5941 9.09614 15.7934 9.09217C15.9929 9.0882 16.1903 9.14008 16.3421 9.24154C16.4941 9.34314 16.5948 9.49186 16.6015 9.66049C16.6082 9.82971 16.519 9.98379 16.3738 10.0924L16.3737 10.0925C15.9504 10.4079 15.7449 10.7835 15.7386 11.2176C15.7322 11.6582 15.9305 12.1763 16.3547 12.7714L16.3548 12.7715C16.4556 12.9135 16.4751 13.0841 16.4026 13.2401C16.3321 13.3919 16.1854 13.5076 16.0071 13.572M14.9746 13.3236C15.0439 13.4208 15.1465 13.4982 15.2672 13.5509C15.388 13.6037 15.5251 13.6311 15.6638 13.6315C15.7825 13.6329 15.9006 13.6127 16.0071 13.572M16.0071 13.572C16.0068 13.5722 16.0064 13.5723 16.0061 13.5724L15.9718 13.477L16.0081 13.5717C16.0077 13.5718 16.0074 13.5719 16.0071 13.572Z" fill="#E86C02" stroke="#E86C02" stroke-width="0.2"/>
<path d="M8.13298 28.878L8.13308 28.8781L35.8099 28.7937C43.4012 23.7205 45.2785 17.6578 42.7185 14.7278L42.7953 14.6617C42.7952 14.6616 42.7952 14.6615 42.7951 14.6614C42.7221 14.5767 42.6226 14.5099 42.5087 14.4644C42.3944 14.4188 42.2671 14.3951 42.1385 14.3948H42.1382L1.86098 14.3948L1.86068 14.3948C1.7321 14.3951 1.60478 14.4188 1.49056 14.4644C1.37651 14.5099 1.27693 14.5769 1.20391 14.6617L1.28071 14.7278L1.20439 14.6611C-0.110341 16.1659 -0.272242 18.46 0.835402 20.9976C1.94349 23.5362 4.32621 26.3339 8.13298 28.878ZM29.7137 30.6038V30.5025H14.2855V30.6038H14.2856H29.7137H29.7137ZM14.2855 29.4357L14.2853 29.4357C12.3828 29.4399 10.5551 28.9257 9.18096 28.0048C6.53143 26.2275 4.2052 23.9088 2.85181 21.6276C1.50663 19.3602 1.13992 17.1642 2.308 15.5629H41.6912C42.8593 17.1642 42.4926 19.3638 41.1474 21.6331C39.794 23.9161 37.4678 26.2348 34.8184 28.0047L34.8183 28.0048C33.4442 28.9257 31.6164 29.4399 29.714 29.4357H29.7137H14.2855Z" fill="#E86C02" stroke="#E86C02" stroke-width="0.2"/>
<path d="M29.8202 7.60199C29.8322 7.51535 29.932 6.60093 29.6683 5.45063C29.4033 4.29462 28.7698 2.89509 27.3069 1.86312C25.852 0.836894 23.8891 0.402513 22.2736 0.22273C20.8315 0.0622408 19.6517 0.103486 19.3416 0.114328C19.3038 0.115648 19.279 0.116517 19.2681 0.116517V0.11628L19.2612 0.116753C19.0865 0.128709 18.9193 0.183676 18.7895 0.276445C18.6599 0.369125 18.5712 0.497639 18.5532 0.64394C18.5411 0.731091 18.4415 1.6393 18.7051 2.78502C18.9701 3.93689 19.6036 5.33376 21.0662 6.37286L21.0664 6.37299C22.1894 7.16703 23.6137 7.6099 24.9449 7.85491C26.2773 8.10017 27.5247 8.14862 28.2997 8.14862C28.7516 8.14862 29.0478 8.13455 29.1065 8.12901C29.2818 8.11797 29.45 8.06362 29.5808 7.97114C29.7119 7.87842 29.8018 7.74927 29.8202 7.60199ZM29.8202 7.60199C29.8202 7.60167 29.8202 7.60135 29.8203 7.60103L29.7197 7.58871L29.82 7.6029C29.8201 7.60261 29.8201 7.6023 29.8202 7.60199ZM22.1459 5.52679C20.369 4.27497 20.11 2.22863 20.0939 1.26524C20.7604 1.26678 21.8053 1.3076 22.912 1.49497C24.0784 1.69246 25.3037 2.05117 26.2279 2.69034C28.0042 3.94208 28.2634 5.9925 28.2795 6.95629C27.6147 6.95418 26.5614 6.91975 25.4443 6.73154C24.2865 6.53648 23.0699 6.1778 22.1459 5.52679Z" fill="#E86C02" stroke="#E86C02" stroke-width="0.2"/>
</svg>
