<svg width="44" height="31" viewBox="0 0 44 31" fill="none" xmlns="http://www.w3.org/2000/svg">
<path d="M39.9829 13.622C39.7844 13.622 39.5896 13.5664 39.442 13.4621C39.294 13.3574 39.1993 13.2065 39.1993 13.038V13.0139C39.1993 11.9661 38.6107 10.9507 37.5425 10.1954C36.474 9.43983 35.0193 9.01225 33.4979 9.01225C31.9766 9.01225 30.5219 9.43983 29.4534 10.1954C28.3852 10.9507 27.7966 11.9661 27.7966 13.0139C27.7966 13.1823 27.7019 13.3332 27.5538 13.4379C27.4062 13.5424 27.2113 13.5979 27.0126 13.5979C26.814 13.5979 26.6191 13.5424 26.4714 13.4379C26.3234 13.3333 26.2287 13.1824 26.2286 13.014M39.9829 13.622C40.0885 13.6224 40.1935 13.6071 40.2914 13.5767C40.3892 13.5463 40.4789 13.5011 40.554 13.4427C40.6292 13.3843 40.689 13.313 40.7268 13.2322C40.7637 13.1532 40.7779 13.068 40.7672 12.9828C40.7601 11.6006 39.978 10.2873 38.6127 9.32651C37.2456 8.36444 35.3994 7.82886 33.4807 7.83209C31.562 7.83532 29.7194 8.37711 28.3586 9.34384C26.9976 10.3108 26.224 11.6294 26.2286 13.014M39.9829 13.622L39.9833 13.5207M39.9829 13.622L39.9833 13.5207M39.9829 13.622C39.983 13.622 39.9831 13.622 39.9833 13.622V13.5207M39.9829 13.622L39.9833 13.5207M26.2286 13.014C26.2286 13.0141 26.2286 13.0142 26.2286 13.0142L26.3299 13.0139H26.2286C26.2286 13.0139 26.2286 13.014 26.2286 13.014Z" fill="#E86C02" stroke="#E86C02" stroke-width="0.2"/>
<path d="M24.4585 13.6302L24.4585 13.6302C24.288 13.634 24.1185 13.5968 23.9776 13.5221C23.837 13.4475 23.7276 13.3367 23.6784 13.2016L23.6776 13.1995L23.6776 13.1995C23.5748 12.8966 23.354 12.614 23.0326 12.3858C22.5456 12.0469 21.8858 11.8526 21.1926 11.8493L21.1926 11.8493C21.0501 11.8485 20.9093 11.8192 20.7865 11.7632C20.6638 11.7074 20.5608 11.6256 20.4939 11.5235L20.4938 11.5233C20.4259 11.419 20.3997 11.299 20.4234 11.1795C20.4468 11.0611 20.5167 10.9558 20.6163 10.8737C20.9965 10.554 21.202 10.1586 21.2122 9.75616C21.2224 9.3538 21.0371 8.95422 20.674 8.62575C20.3102 8.29669 19.7926 8.06216 19.2055 7.96672C18.6187 7.87132 18.0037 7.92163 17.4648 8.10818L17.4632 8.10872L17.4632 8.10871C17.285 8.16712 17.0834 8.17433 16.8988 8.12949C16.7148 8.08481 16.5534 7.98958 16.4554 7.85483L16.4536 7.85233L16.4536 7.85231C16.3388 7.68395 16.1819 7.52922 15.9884 7.39609L15.9879 7.39579C15.5335 7.07957 14.9272 6.88835 14.2815 6.86237C13.636 6.83639 13.0018 6.9776 12.4975 7.25637C12.4106 7.30497 12.3117 7.3391 12.2075 7.35752C12.1031 7.37596 11.9947 7.37844 11.8891 7.36485M24.4585 13.6302L11.902 7.26433M24.4585 13.6302L24.462 13.63L24.6327 13.6204L24.6327 13.6212L24.6452 13.6189C24.8369 13.5838 25.0097 13.4954 25.1202 13.364C25.2326 13.2305 25.2706 13.0632 25.2144 12.9025L24.4585 13.6302ZM11.8891 7.36485L11.902 7.26433M11.8891 7.36485C11.8891 7.36485 11.8892 7.36486 11.8892 7.36486L11.902 7.26433M11.8891 7.36485C11.7833 7.35133 11.6815 7.32184 11.5907 7.27747C11.5006 7.2334 11.4219 7.17496 11.3617 7.10435M11.902 7.26433C11.8063 7.2521 11.7153 7.22553 11.6352 7.18641C11.5552 7.14729 11.4879 7.09652 11.4378 7.0375M11.3617 7.10435C11.362 7.10474 11.3623 7.10512 11.3627 7.1055L11.4378 7.0375M11.3617 7.10435C11.2085 6.93538 11.0272 6.77898 10.821 6.63865L10.8194 6.63754L10.8194 6.63752C10.3015 6.27 9.63763 6.01724 8.91102 5.91419C8.18458 5.81117 7.43142 5.86293 6.74767 6.06236C6.06365 6.26187 5.48352 6.59906 5.07781 7.02722C4.67262 7.45483 4.46063 7.95242 4.45993 8.45656L4.45992 8.464L4.45965 8.46398C4.45349 8.5464 4.45342 8.62898 4.45944 8.7114M11.3617 7.10435C11.3613 7.10391 11.3609 7.10347 11.3605 7.10303L11.4378 7.0375M11.4378 7.0375L4.45944 8.7114M4.84319 11.2383C4.82194 11.2652 4.8013 11.2922 4.78127 11.3195C4.81044 11.3367 4.83986 11.3537 4.86952 11.3705L4.84319 11.2383ZM4.84319 11.2383C4.87254 11.2556 4.90216 11.2726 4.93203 11.2895L4.84319 11.2383ZM2.91922 8.43241C2.91922 8.43245 2.91922 8.43248 2.91922 8.43252L3.02057 8.43229H2.91922V8.43241ZM2.91922 8.43241C2.91755 7.67524 3.23461 6.93974 3.82133 6.31896C4.40756 5.69872 5.23752 5.21947 6.2028 4.9381C7.16836 4.65665 8.22938 4.58474 9.25182 4.73096C10.2741 4.87715 11.215 5.23532 11.9541 5.76292L11.9558 5.76416L11.9558 5.76418C12.063 5.84416 12.1711 5.92848 12.2709 6.01385M2.91922 8.43241L11.8952 5.8454C12.0181 5.9371 12.141 6.03363 12.2502 6.13015M12.2709 6.01385C12.2517 6.02101 12.2326 6.02828 12.2136 6.03567L12.2502 6.13015M12.2709 6.01385C13.0413 5.72606 13.9192 5.61793 14.7803 5.70428C15.6627 5.79277 16.4844 6.08118 17.1214 6.52993M12.2709 6.01385C12.2866 6.02728 12.3021 6.04074 12.3173 6.05421L12.2502 6.13015M12.2502 6.13015L17.1214 6.52993M17.1214 6.52993L17.063 6.61278L17.1213 6.52989C17.1213 6.5299 17.1213 6.52992 17.1214 6.52993ZM4.45944 8.7114C4.45931 8.71043 4.45918 8.70947 4.45905 8.7085L4.35859 8.72187M4.45944 8.7114L4.35859 8.45642C4.35198 8.54484 4.35198 8.63345 4.35859 8.72187M4.45944 8.7114C4.5386 9.29881 4.90729 9.85697 5.51595 10.2847L5.51664 10.2852C5.72853 10.4367 5.96724 10.5693 6.22735 10.6796M4.45944 8.7114L5.45768 10.3676C5.67617 10.5239 5.92157 10.6601 6.18813 10.773M4.45944 8.7114C4.45951 8.71237 4.45958 8.71334 4.45965 8.71431L4.35859 8.72187M4.45944 8.7114L4.35859 8.72187M6.22735 10.6796C6.22723 10.6795 6.22711 10.6795 6.227 10.6794L6.18813 10.773M6.22735 10.6796C6.22746 10.6796 6.22757 10.6797 6.22768 10.6797L6.18813 10.773M6.22735 10.6796L6.18813 10.773M22.4506 10.7877C22.4327 10.8184 22.4141 10.8489 22.3946 10.8792C22.4298 10.8868 22.4647 10.8947 22.4995 10.9029C22.5183 10.8727 22.5364 10.8423 22.5537 10.8117C22.5195 10.8034 22.4851 10.7954 22.4506 10.7877ZM17.5565 6.88724C17.5435 6.87471 17.5303 6.86227 17.5171 6.84989C17.4994 6.85362 17.4818 6.85744 17.4643 6.86134L17.4862 6.96028L17.5565 6.88724Z" fill="#E86C02" stroke="#E86C02" stroke-width="0.2"/>
<path d="M14.1467 13.4722L14.1463 13.4719L8.73284 9.63928L8.73279 9.63925L8.79135 9.55653L14.1467 13.4722ZM14.1467 13.4722C14.2206 13.524 14.3066 13.5639 14.3994 13.5907C14.492 13.6175 14.5906 13.6309 14.6896 13.6305M14.1467 13.4722L14.6896 13.6305M14.6896 13.6305C14.6894 13.6305 14.6893 13.6305 14.6892 13.6305L14.6896 13.5292V13.6305ZM14.6896 13.6305C14.7886 13.6309 14.8871 13.6175 14.9798 13.5907C15.0725 13.5639 15.1586 13.524 15.2325 13.4722C15.3066 13.4202 15.368 13.3565 15.411 13.2835C15.4542 13.2103 15.4775 13.1296 15.4775 13.0465C15.4775 12.9634 15.4542 12.8826 15.411 12.8094C15.3681 12.7365 15.3067 12.6728 15.2326 12.6209C15.2326 12.6208 15.2325 12.6208 15.2325 12.6208L14.6896 13.6305Z" fill="#E86C02" stroke="#E86C02" stroke-width="0.2"/>
<path d="M15.057 13.2637C13.6234 11.2604 14.4085 10.0247 15.3164 9.34412L14.9746 13.3226M15.057 13.2637L14.9745 13.3225C14.9745 13.3225 14.9745 13.3226 14.9746 13.3226M15.057 13.2637C15.1137 13.3433 15.2005 13.4102 15.3078 13.4571C15.415 13.5039 15.5385 13.5289 15.6646 13.5291L15.057 13.2637ZM14.9746 13.3226C14.247 12.306 14.0715 11.468 14.2093 10.7878C14.3466 10.1099 14.7908 9.6115 15.2556 9.26303L15.2557 9.26297C15.4003 9.15481 15.5941 9.09515 15.7934 9.09118C15.9929 9.08721 16.1903 9.13909 16.3421 9.24055C16.4941 9.34215 16.5948 9.49087 16.6015 9.6595C16.6082 9.82872 16.519 9.9828 16.3738 10.0914L16.3737 10.0915C15.9504 10.4069 15.7449 10.7825 15.7386 11.2167C15.7322 11.6572 15.9305 12.1753 16.3547 12.7704L16.3548 12.7705C16.4556 12.9125 16.4751 13.0831 16.4026 13.2391C16.3321 13.391 16.1854 13.5066 16.0071 13.571M14.9746 13.3226C15.0439 13.4198 15.1465 13.4972 15.2672 13.5499C15.388 13.6027 15.5251 13.6301 15.6638 13.6305C15.7825 13.6319 15.9006 13.6117 16.0071 13.571M16.0071 13.571C16.0068 13.5712 16.0064 13.5713 16.0061 13.5714L15.9718 13.476L16.0081 13.5707C16.0077 13.5708 16.0074 13.5709 16.0071 13.571Z" fill="#E86C02" stroke="#E86C02" stroke-width="0.2"/>
<path d="M8.13298 28.8739L8.13309 28.8739L35.8099 28.7896C43.4012 23.7172 45.2785 17.6553 42.7185 14.7258L42.7953 14.6597C42.7952 14.6596 42.7952 14.6595 42.7951 14.6594C42.7221 14.5747 42.6226 14.5079 42.5087 14.4624C42.3944 14.4168 42.2671 14.3932 42.1385 14.3928H42.1382L1.86098 14.3928L1.86068 14.3928C1.73211 14.3932 1.60478 14.4168 1.49057 14.4624C1.37652 14.5079 1.27694 14.5749 1.20391 14.6597L1.28071 14.7258L1.2044 14.6591C-0.110342 16.1636 -0.272242 18.4574 0.835404 20.9947C1.94349 23.5329 4.32622 26.3302 8.13298 28.8739ZM29.7137 30.5994V30.4981H14.2855V30.5994H14.2856H29.7137H29.7137ZM14.2855 29.4315L14.2853 29.4315C12.3828 29.4357 10.5551 28.9216 9.18096 28.0008C6.53143 26.2238 4.20519 23.9054 2.85181 21.6245C1.50663 19.3575 1.13993 17.1618 2.308 15.5607H41.6912C42.8593 17.1619 42.4926 19.3611 41.1474 21.63C39.794 23.9127 37.4678 26.231 34.8184 28.0007L34.8183 28.0008C33.4442 28.9216 31.6164 29.4357 29.714 29.4315H29.7137H14.2855ZM9.12454 28.0849C10.5177 29.0186 12.3659 29.5371 14.2855 29.5328L9.12454 28.0849Z" fill="#E86C02" stroke="#E86C02" stroke-width="0.2"/>
<path d="M29.1065 8.12783C29.2818 8.11679 29.45 8.06245 29.5808 7.96998C29.7119 7.87727 29.8018 7.74811 29.8202 7.60081C29.8323 7.5138 29.9319 6.59968 29.6683 5.44983C29.4033 4.29399 28.7698 2.89467 27.3069 1.86285C25.852 0.836783 23.8891 0.402467 22.2736 0.222711C20.8315 0.0622468 19.6517 0.103486 19.3416 0.114326C19.3038 0.115646 19.279 0.116515 19.2681 0.116515V0.116278L19.2612 0.116751C19.0865 0.128705 18.9193 0.183662 18.7895 0.276417C18.6599 0.369083 18.5712 0.497581 18.5532 0.643869C18.5411 0.731013 18.4415 1.63909 18.7051 2.78464C18.9701 3.93634 19.6036 5.333 21.0662 6.37195L21.0664 6.37208C22.1894 7.166 23.6137 7.6088 24.9449 7.85378C26.2773 8.09899 27.5247 8.14744 28.2997 8.14744C28.7516 8.14744 29.0478 8.13336 29.1065 8.12783ZM29.1065 8.12783C29.1073 8.12776 29.108 8.12769 29.1086 8.12762L29.0985 8.02679L29.1047 8.12795C29.1053 8.12791 29.1059 8.12787 29.1065 8.12783ZM22.1459 5.52597C20.369 4.27435 20.11 2.22834 20.0939 1.26509C20.7604 1.26664 21.8053 1.30745 22.912 1.49479C24.0784 1.69225 25.3037 2.05091 26.2279 2.68997C28.0042 3.94152 28.2634 5.99161 28.2795 6.95525C27.6147 6.95315 26.5614 6.91872 25.4443 6.73054C24.2865 6.53551 23.0699 6.17688 22.1459 5.52597Z" fill="#E86C02" stroke="#E86C02" stroke-width="0.2"/>
</svg>
