<svg width="47" height="47" viewBox="0 0 47 47" fill="none" xmlns="http://www.w3.org/2000/svg">
<path d="M2.54219 28.5885C3.01221 29.6517 3.7112 30.598 4.58926 31.3598C4.50733 32.5028 4.67568 33.6499 5.08257 34.7211C6.50907 38.6487 6.64497 39.5049 6.65361 39.6376C6.67102 39.8192 6.7511 39.9891 6.8801 40.1181C7.0091 40.2471 7.17898 40.3272 7.36058 40.3446C7.49333 40.3572 8.35033 40.4931 12.2772 41.9157C13.1782 42.2559 14.1318 42.4359 15.0948 42.4475C15.2778 42.4475 15.4538 42.42 15.6337 42.405C16.3964 43.2852 17.3444 43.9856 18.4097 44.456C22.1928 46.2227 22.8966 46.734 22.9995 46.8189C23.1402 46.9348 23.3168 46.9982 23.4991 46.9982C23.6814 46.9982 23.858 46.9348 23.9987 46.8189C24.1016 46.734 24.8054 46.2227 28.5885 44.456C29.6539 43.9856 30.6019 43.2852 31.3645 42.405C31.5444 42.42 31.7204 42.4475 31.9034 42.4475C32.8665 42.4359 33.82 42.2559 34.7211 41.9157C38.6487 40.4892 39.5049 40.3533 39.6376 40.3446C39.8192 40.3272 39.9891 40.2471 40.1181 40.1181C40.2471 39.9891 40.3272 39.8192 40.3446 39.6376C40.3572 39.5049 40.4931 38.6479 41.9157 34.7211C42.3225 33.6499 42.4909 32.5028 42.409 31.3598C43.287 30.598 43.986 29.6517 44.456 28.5885C46.2227 24.8054 46.734 24.1016 46.8189 23.9987C46.9348 23.858 46.9982 23.6814 46.9982 23.4991C46.9982 23.3168 46.9348 23.1402 46.8189 22.9995C46.734 22.8966 46.2227 22.1928 44.456 18.4097C43.9863 17.3459 43.2872 16.3991 42.409 15.6368C42.4905 14.4944 42.3222 13.3479 41.9157 12.2772C40.4892 8.34955 40.3533 7.49333 40.3446 7.36058C40.3272 7.17898 40.2471 7.0091 40.1181 6.8801C39.9891 6.7511 39.8192 6.67102 39.6376 6.65361C39.5049 6.64104 38.6479 6.50515 34.7211 5.08257C33.6504 4.67569 32.5038 4.50734 31.3614 4.58926C30.5993 3.71079 29.6524 3.01174 28.5885 2.54219C24.8054 0.775554 24.1016 0.264179 23.9987 0.179343C23.858 0.063403 23.6814 0 23.4991 0C23.3168 0 23.1402 0.063403 22.9995 0.179343C22.8966 0.264179 22.1928 0.775554 18.4097 2.54219C17.3458 3.01174 16.3989 3.71079 15.6368 4.58926C14.4944 4.50729 13.3478 4.67564 12.2772 5.08257C8.34955 6.50907 7.49333 6.64497 7.36058 6.65361C7.17898 6.67102 7.0091 6.7511 6.8801 6.8801C6.7511 7.0091 6.67102 7.17898 6.65361 7.36058C6.64104 7.49333 6.50515 8.35034 5.08257 12.2772C4.67603 13.3479 4.50769 14.4944 4.58926 15.6368C3.71079 16.3989 3.01174 17.3458 2.54219 18.4097C0.775554 22.1928 0.264179 22.8966 0.179343 22.9995C0.0634032 23.1402 0 23.3168 0 23.4991C0 23.6814 0.0634032 23.858 0.179343 23.9987C0.264179 24.1016 0.775554 24.8054 2.54219 28.5885ZM12.8192 40.442C11.2057 39.856 9.22305 39.1663 8.11075 38.8938C7.83818 37.7815 7.14849 35.7988 6.56249 34.1853C6.3397 33.5812 6.20145 32.9492 6.15166 32.3072C7.0209 32.6664 7.96441 32.809 8.90098 32.7227C10.2756 34.8901 12.1122 36.727 14.2794 38.102C14.1993 39.0382 14.3411 39.9801 14.6934 40.8513C14.0528 40.8017 13.4221 40.664 12.8192 40.442ZM27.9295 43.0342C26.3749 43.7608 24.4849 44.676 23.5054 45.2698C22.5259 44.676 20.6359 43.7608 19.0813 43.0342C16.5182 41.8371 15.9141 40.1192 15.8285 38.9747C18.2134 40.1619 20.8413 40.7798 23.5054 40.7798C26.1695 40.7798 28.7973 40.1619 31.1823 38.9747C31.0935 40.12 30.4934 41.8379 27.9263 43.035L27.9295 43.0342ZM40.4452 34.1822C39.8592 35.7957 39.1695 37.7783 38.8969 38.8906C37.7846 39.1632 35.8019 39.8529 34.1885 40.4389C33.5854 40.6616 32.9544 40.7998 32.3134 40.8497C32.6657 39.9786 32.8075 39.0366 32.7274 38.1004C34.8947 36.7255 36.7313 34.8886 38.1059 32.7211C39.0424 32.8074 39.986 32.6648 40.8552 32.3056C40.8055 32.947 40.6675 33.5785 40.4452 34.1822ZM43.0374 19.0719C43.764 20.6265 44.6791 22.5164 45.273 23.496C44.6791 24.4755 43.764 26.3655 43.0374 27.92C41.8402 30.4824 40.1223 31.0865 38.9778 31.1729C40.1651 28.7879 40.783 26.1601 40.783 23.496C40.783 20.8318 40.1651 18.204 38.9778 15.8191C40.1231 15.9078 41.841 16.508 43.0382 19.0751L43.0374 19.0719ZM34.1853 6.5562C35.7988 7.1422 37.7815 7.83189 38.8938 8.10447C39.1663 9.21677 39.856 11.1994 40.442 12.8129C40.6645 13.416 40.8025 14.047 40.8521 14.6879C39.9811 14.3348 39.039 14.193 38.1027 14.274C36.7284 12.1072 34.8924 10.2709 32.7258 8.89627C32.806 7.96003 32.6641 7.01808 32.3119 6.14695C32.9522 6.19647 33.5827 6.33419 34.1853 6.5562ZM19.0782 3.9632C20.6327 3.23659 22.5227 2.32146 23.5023 1.72761C24.4818 2.32146 26.3718 3.23659 27.9263 3.9632C30.4895 5.16033 31.0935 6.87827 31.1792 8.02277C28.7942 6.83552 26.1664 6.2176 23.5023 6.2176C20.8381 6.2176 18.2103 6.83552 15.8254 8.02277C15.911 6.87827 16.515 5.16033 19.0782 3.9632ZM23.5023 7.78869C26.6095 7.78869 29.6469 8.71009 32.2305 10.4364C34.8141 12.1627 36.8277 14.6163 38.0168 17.487C39.2059 20.3577 39.517 23.5165 38.9108 26.5641C38.3046 29.6116 36.8083 32.4109 34.6112 34.6081C32.4141 36.8052 29.6147 38.3015 26.5672 38.9077C23.5197 39.5139 20.3608 39.2027 17.4901 38.0137C14.6194 36.8246 12.1658 34.8109 10.4395 32.2274C8.71323 29.6438 7.79183 26.6063 7.79183 23.4991C7.79661 19.3339 9.45335 15.3407 12.3986 12.3954C15.3438 9.45021 19.3371 7.79347 23.5023 7.78869ZM6.55935 12.816C7.14535 11.2026 7.83503 9.21991 8.10761 8.10761C9.21991 7.83503 11.2026 7.14535 12.816 6.55935C13.4191 6.33674 14.0501 6.19849 14.6911 6.14852C14.3388 7.01966 14.197 7.9616 14.2771 8.89784C12.1106 10.2725 10.2745 12.1088 8.9002 14.2755C7.96393 14.1946 7.02179 14.3364 6.15088 14.6895C6.20011 14.0492 6.33757 13.4187 6.55935 12.816ZM3.96713 19.0782C5.16426 16.5158 6.8822 15.9118 8.0267 15.8254C6.83949 18.2106 6.2216 20.8387 6.2216 23.503C6.2216 26.1674 6.83949 28.7955 8.0267 31.1807C6.88298 31.0943 5.16426 30.4903 3.96713 27.9263C3.23973 26.3686 2.3246 24.4787 1.73075 23.4991C2.3246 22.5196 3.23973 20.6296 3.96634 19.0751L3.96713 19.0782Z" fill="#E86C02"/>
<path d="M23.5029 26.641C24.1244 26.641 24.7319 26.4568 25.2486 26.1115C25.7653 25.7662 26.168 25.2755 26.4058 24.7014C26.6436 24.1272 26.7059 23.4955 26.5846 22.886C26.4634 22.2765 26.1641 21.7166 25.7247 21.2772C25.2853 20.8377 24.7254 20.5385 24.1159 20.4172C23.5064 20.296 22.8746 20.3582 22.3005 20.596C21.7264 20.8339 21.2356 21.2366 20.8904 21.7533C20.5451 22.27 20.3608 22.8775 20.3608 23.499C20.3608 24.3323 20.6919 25.1315 21.2811 25.7207C21.8704 26.31 22.6696 26.641 23.5029 26.641ZM23.5029 21.9279C23.8136 21.9279 24.1174 22.02 24.3757 22.1927C24.6341 22.3653 24.8355 22.6107 24.9544 22.8977C25.0733 23.1848 25.1044 23.5007 25.0438 23.8054C24.9832 24.1102 24.8335 24.3901 24.6138 24.6098C24.3941 24.8296 24.1142 24.9792 23.8094 25.0398C23.5047 25.1004 23.1888 25.0693 22.9017 24.9504C22.6146 24.8315 22.3693 24.6301 22.1966 24.3718C22.024 24.1134 21.9319 23.8097 21.9319 23.499C21.9319 23.0823 22.0974 22.6827 22.392 22.3881C22.6867 22.0934 23.0863 21.9279 23.5029 21.9279Z" fill="#E86C02"/>
<path d="M23.5012 37.6386C26.2977 37.6386 29.0314 36.8094 31.3567 35.2557C33.6819 33.7021 35.4941 31.4938 36.5643 28.9102C37.6345 26.3265 37.9145 23.4836 37.3689 20.7408C36.8234 17.998 35.4767 15.4786 33.4993 13.5012C31.5219 11.5238 29.0025 10.1771 26.2597 9.63156C23.5169 9.08599 20.674 9.36599 18.0903 10.4362C15.5067 11.5063 13.2984 13.3186 11.7448 15.6438C10.1911 17.969 9.36185 20.7027 9.36185 23.4993C9.36622 27.2479 10.8573 30.8418 13.508 33.4925C16.1587 36.1432 19.7526 37.6343 23.5012 37.6386ZM13.0051 29.6428C12.9349 29.5238 12.8979 29.3882 12.8979 29.2501C12.8979 29.1119 12.9349 28.9763 13.0051 28.8573L15.2438 24.9792L18.1636 30.0356H13.6822C13.5446 30.0366 13.4092 30.0006 13.2901 29.9316C13.171 29.8625 13.0726 29.7628 13.0051 29.6428ZM16.1519 23.4081L19.7653 17.1452H27.2325L30.8459 23.4081L27.0196 30.0356H19.9735L16.1519 23.4081ZM13.9132 31.6066H19.0709L21.4589 35.7447C21.4934 35.8044 21.5429 35.85 21.5814 35.9018C18.5914 35.4405 15.8685 33.9153 13.9132 31.6066ZM23.5012 35.352C23.3631 35.3534 23.227 35.3178 23.1074 35.2487C22.9877 35.1796 22.8888 35.0796 22.821 34.9592L20.8854 31.6066H26.117L24.1815 34.9592C24.1137 35.0796 24.0148 35.1796 23.8951 35.2487C23.7754 35.3178 23.6394 35.3534 23.5012 35.352ZM25.4195 35.9018C25.458 35.8461 25.5075 35.8005 25.542 35.7447L27.9316 31.6066H33.0893C31.1343 33.917 28.4106 35.4437 25.4195 35.9058V35.9018ZM33.9974 29.6389C33.9296 29.7593 33.8307 29.8594 33.711 29.9285C33.5914 29.9976 33.4553 30.0332 33.3171 30.0316H28.8396L31.7594 24.9752L33.9982 28.8534C34.069 28.9729 34.1063 29.1093 34.1061 29.2482C34.106 29.3871 34.0684 29.5234 33.9974 29.6428V29.6389ZM35.2086 18.9558C36.3389 21.8251 36.3569 25.0132 35.2589 27.895L32.6667 23.4026L35.1489 19.1035C35.1741 19.0618 35.1851 19.0092 35.2055 18.9613L35.2086 18.9558ZM33.7869 17.5324C33.8571 17.6514 33.8941 17.787 33.8941 17.9252C33.8941 18.0633 33.8571 18.199 33.7869 18.318L31.7586 21.8316L29.0494 17.1397H33.1074C33.246 17.1388 33.3823 17.1754 33.5018 17.2454C33.6214 17.3155 33.7199 17.4166 33.7869 17.5379V17.5324ZM33.259 15.5883C33.2071 15.5883 33.1592 15.5686 33.1066 15.5686H28.1421L25.5679 11.11C28.593 11.6157 31.3285 13.2105 33.259 15.5938V15.5883ZM23.5012 11.4643C23.6394 11.463 23.7753 11.4987 23.895 11.5678C24.0146 11.6369 24.1136 11.7368 24.1815 11.857L26.3291 15.5741H20.6734L22.8194 11.857C22.8875 11.7365 22.9867 11.6365 23.1066 11.5674C23.2265 11.4983 23.3628 11.4627 23.5012 11.4643ZM21.4345 11.1155L18.8604 15.5741H13.8959C13.8433 15.5741 13.7953 15.5906 13.7435 15.5938C15.6749 13.2126 18.4103 11.6198 21.4345 11.1155ZM13.2156 17.5379C13.2834 17.4175 13.3823 17.3175 13.502 17.2484C13.6216 17.1793 13.7577 17.1436 13.8959 17.1452H17.9539L15.2446 21.8371L13.2164 18.3235C13.1461 18.2045 13.1089 18.069 13.1088 17.9308C13.1087 17.7927 13.1455 17.657 13.2156 17.5379ZM11.8551 19.109L14.3373 23.4081L11.7451 27.9005C10.6472 25.0187 10.6651 21.8306 11.7954 18.9613C11.8182 19.01 11.8284 19.0618 11.8551 19.109Z" fill="#E86C02"/>
</svg>
