<svg width="59" height="59" viewBox="0 0 59 59" fill="none" xmlns="http://www.w3.org/2000/svg">
<path fill-rule="evenodd" clip-rule="evenodd" d="M8.90127 42.2421H50.026C50.2702 42.2419 50.5043 42.1449 50.6769 41.9722C50.8496 41.7996 50.9467 41.5655 50.9468 41.3213C50.9466 41.0772 50.8495 40.8431 50.6769 40.6706C50.5042 40.498 50.2702 40.4009 50.026 40.4007H8.90127C8.65713 40.4009 8.42302 40.4979 8.25037 40.6705C8.07772 40.8431 7.98064 41.0772 7.98047 41.3213C7.98047 41.8296 8.39303 42.2421 8.90127 42.2421ZM10.0046 47.7965C11.5826 47.4845 13.1572 46.843 14.7352 46.843C15.4671 46.843 16.1963 47.0735 16.9281 47.2905C17.8328 47.559 18.7401 47.8142 19.6448 47.8142C20.5495 47.8142 21.4566 47.559 22.3612 47.2905C23.0931 47.0735 23.8223 46.843 24.5542 46.843C25.286 46.843 26.0152 47.0735 26.7471 47.2905C27.6518 47.559 28.5589 47.8142 29.4635 47.8142C30.3682 47.8142 31.2755 47.559 32.1802 47.2905C32.9121 47.0735 33.6413 46.843 34.3731 46.843C35.105 46.843 35.834 47.0735 36.5659 47.2905C37.4705 47.559 38.3778 47.8142 39.2825 47.8142C40.1872 47.8142 41.0945 47.559 41.9992 47.2905C42.731 47.0735 43.46 46.843 44.1919 46.843C45.7701 46.843 47.3447 47.4845 48.9227 47.7965C49.1595 47.8372 49.4028 47.7838 49.6008 47.6476C49.7987 47.5114 49.9356 47.3032 49.9823 47.0675C50.0289 46.8318 49.9815 46.5872 49.8503 46.3859C49.7192 46.1846 49.5145 46.0426 49.28 45.99C47.5852 45.6548 45.8868 45.0016 44.1919 45.0016C43.2872 45.0016 42.3801 45.2569 41.4755 45.5251C40.7436 45.7423 40.0144 45.9726 39.2825 45.9726C38.5506 45.9726 37.8214 45.7423 37.0896 45.5251C36.1849 45.2569 35.2778 45.0016 34.3731 45.0016C33.4685 45.0016 32.5612 45.2569 31.6565 45.5251C30.9246 45.7423 30.1954 45.9726 29.4635 45.9726C28.7317 45.9726 28.0027 45.7423 27.2708 45.5251C26.3662 45.2569 25.4588 45.0016 24.5542 45.0016C23.6495 45.0016 22.7422 45.2569 21.8375 45.5251C21.1056 45.7423 20.3767 45.9726 19.6448 45.9726C18.9129 45.9726 18.1837 45.7423 17.4518 45.5251C16.5472 45.2569 15.6399 45.0016 14.7352 45.0016C13.0403 45.0016 11.3421 45.6548 9.64727 45.99C9.41281 46.0426 9.20814 46.1846 9.07695 46.3859C8.94576 46.5872 8.89842 46.8318 8.94504 47.0675C8.99167 47.3032 9.12856 47.5114 9.3265 47.6476C9.52445 47.7838 9.76779 47.8372 10.0046 47.7965ZM13.5817 51.9625H18.0871C18.3313 51.9624 18.5654 51.8653 18.738 51.6926C18.9106 51.52 19.0076 51.2859 19.0077 51.0417C19.0077 50.5335 18.5952 50.1209 18.0871 50.1209H13.5817C13.3376 50.1211 13.1035 50.2182 12.9309 50.3908C12.7583 50.5635 12.6613 50.7976 12.6611 51.0417C12.6611 51.55 13.0737 51.9625 13.5817 51.9625ZM22.6679 51.9625H27.1731C27.6814 51.9625 28.0939 51.55 28.0939 51.0417C28.0939 50.5335 27.6814 50.1209 27.1731 50.1209H22.6679C22.4238 50.1211 22.1896 50.2181 22.017 50.3908C21.8443 50.5634 21.7473 50.7976 21.7471 51.0417C21.7471 51.55 22.1597 51.9625 22.6679 51.9625ZM31.7542 51.9625H36.2594C36.5035 51.9624 36.7376 51.8653 36.9102 51.6926C37.0828 51.52 37.1798 51.2859 37.1799 51.0417C37.1799 50.5335 36.7674 50.1209 36.2594 50.1209H31.7542C31.51 50.1211 31.2758 50.2181 31.1032 50.3908C30.9305 50.5634 30.8335 50.7976 30.8334 51.0417C30.8334 51.55 31.2459 51.9625 31.7542 51.9625ZM40.8402 51.9625H45.3454C45.8536 51.9625 46.2662 51.55 46.2662 51.0417C46.2662 50.5335 45.8536 50.1209 45.3454 50.1209H40.8402C40.596 50.1211 40.3618 50.2181 40.1892 50.3908C40.0165 50.5634 39.9195 50.7976 39.9194 51.0417C39.9194 51.55 40.3319 51.9625 40.8402 51.9625ZM19.5383 12.1205L17.1615 18.5438L10.7382 20.9206C10.4355 21.0328 10.1743 21.235 9.98991 21.5C9.80549 21.7651 9.70664 22.0802 9.70664 22.4031C9.70664 22.726 9.80549 23.0411 9.98991 23.3061C10.1743 23.5712 10.4355 23.7734 10.7382 23.8856L17.1615 26.2624L19.5383 32.6857C19.6503 32.9886 19.8525 33.25 20.1175 33.4345C20.3826 33.6191 20.6978 33.7181 21.0208 33.7181C21.3438 33.7181 21.659 33.6191 21.9241 33.4345C22.1891 33.25 22.3913 32.9886 22.5033 32.6857L24.8801 26.2624L31.3034 23.8856C31.6063 23.7736 31.8676 23.5714 32.0522 23.3063C32.2368 23.0413 32.3357 22.726 32.3357 22.403C32.3357 22.08 32.2367 21.7648 32.0521 21.4997C31.8675 21.2347 31.6061 21.0326 31.3031 20.9206L24.8801 18.5438L22.5033 12.1205C22.3911 11.8178 22.1888 11.5566 21.9238 11.3722C21.6587 11.1878 21.3436 11.089 21.0207 11.089C20.6978 11.0891 20.3827 11.1879 20.1177 11.3724C19.8527 11.5568 19.6505 11.8178 19.5383 12.1205ZM21.0208 13.4203L23.3001 19.5799C23.3462 19.7044 23.4187 19.8175 23.5126 19.9113C23.6064 20.0052 23.7195 20.0777 23.844 20.1237L30.0036 22.4031L23.844 24.6824C23.7194 24.7285 23.6064 24.801 23.5125 24.8949C23.4186 24.9888 23.3462 25.1019 23.3001 25.2265L21.0208 31.3861L18.7415 25.2265C18.6954 25.1019 18.6229 24.9888 18.529 24.8949C18.4351 24.801 18.322 24.7285 18.1974 24.6824L12.0378 22.4031L18.1974 20.1237C18.3219 20.0777 18.435 20.0053 18.529 19.9114C18.6229 19.8175 18.6954 19.7044 18.7415 19.5799L21.0208 13.4203ZM34.1234 25.0892L32.8966 28.405L29.5809 29.632C29.2779 29.744 29.0166 29.9462 28.832 30.2112C28.6474 30.4763 28.5485 30.7915 28.5485 31.1145C28.5485 31.4375 28.6474 31.7528 28.832 32.0178C29.0166 32.2829 29.2779 32.485 29.5809 32.5971L32.8966 33.8239L34.1234 37.1396C34.2355 37.4426 34.4376 37.7039 34.7027 37.8885C34.9677 38.0731 35.283 38.172 35.6059 38.172C35.9289 38.172 36.2442 38.0731 36.5092 37.8885C36.7743 37.7039 36.9764 37.4426 37.0885 37.1396L38.3155 33.8239L41.6312 32.5971C41.934 32.4848 42.1951 32.2826 42.3796 32.0176C42.564 31.7526 42.6628 31.4374 42.6628 31.1145C42.6628 30.7917 42.564 30.4765 42.3796 30.2115C42.1951 29.9465 41.934 29.7442 41.6312 29.632L38.3155 28.405L37.0885 25.0892C36.9764 24.7863 36.7743 24.5249 36.5092 24.3404C36.2442 24.1558 35.9289 24.0568 35.6059 24.0568C35.283 24.0568 34.9677 24.1558 34.7027 24.3404C34.4376 24.5249 34.2355 24.7863 34.1234 25.0892ZM35.6059 26.389L36.7353 29.4411C36.7814 29.5657 36.8539 29.6788 36.9478 29.7727C37.0417 29.8666 37.1548 29.9391 37.2794 29.9851L40.3315 31.1145L37.2794 32.2439C37.1548 32.29 37.0417 32.3625 36.9478 32.4564C36.8539 32.5503 36.7814 32.6634 36.7353 32.788L35.6059 35.8401L34.4766 32.788C34.4305 32.6634 34.358 32.5503 34.2641 32.4564C34.1702 32.3625 34.0571 32.29 33.9325 32.2439L30.8804 31.1145L33.9325 29.9851C34.0571 29.9391 34.1702 29.8666 34.2641 29.7727C34.358 29.6788 34.4305 29.5657 34.4766 29.4411L35.6059 26.389ZM39.3828 9.23791L38.156 12.5536L34.8403 13.7805C34.5374 13.8926 34.2762 14.0948 34.0917 14.3598C33.9072 14.6249 33.8083 14.94 33.8083 15.263C33.8083 15.5859 33.9072 15.9011 34.0917 16.1662C34.2762 16.4312 34.5374 16.6334 34.8403 16.7455L38.1558 17.9726L39.3828 21.2883C39.495 21.591 39.6973 21.8522 39.9623 22.0366C40.2273 22.221 40.5425 22.3199 40.8653 22.3199C41.1882 22.3199 41.5034 22.221 41.7684 22.0366C42.0334 21.8522 42.2356 21.591 42.3479 21.2883L43.5749 17.9726L46.8906 16.7455C47.1936 16.6335 47.4549 16.4313 47.6395 16.1663C47.8241 15.9012 47.9231 15.586 47.9231 15.263C47.9231 14.94 47.8241 14.6247 47.6395 14.3597C47.4549 14.0946 47.1936 13.8925 46.8906 13.7805L43.5749 12.5536L42.3479 9.23791C42.2359 8.93487 42.0338 8.67341 41.7688 8.48874C41.5037 8.30408 41.1884 8.20508 40.8653 8.20508C40.5423 8.20508 40.227 8.30408 39.9619 8.48874C39.6969 8.67341 39.4948 8.93487 39.3828 9.23791ZM40.8653 10.5375L41.9947 13.5895C42.0408 13.7141 42.1133 13.8272 42.2072 13.9211C42.3011 14.0151 42.4142 14.0875 42.5388 14.1336L45.5909 15.263L42.5388 16.3924C42.4142 16.4385 42.3011 16.5109 42.2072 16.6049C42.1133 16.6988 42.0408 16.8119 41.9947 16.9364L40.8653 19.9885L39.7359 16.9364C39.6899 16.8119 39.6174 16.6988 39.5235 16.6049C39.4296 16.5109 39.3165 16.4385 39.1919 16.3924L36.1398 15.263L39.1919 14.1336C39.3165 14.0875 39.4296 14.0151 39.5235 13.9211C39.6174 13.8272 39.6899 13.7141 39.7359 13.5895L40.8653 10.5375Z" fill="#E86C02" fill-opacity="0.8"/>
</svg>
