<svg width="18" height="18" viewBox="0 0 18 18" fill="none" xmlns="http://www.w3.org/2000/svg">
<path d="M17.9341 13.6232C17.8118 13.2563 17.5325 12.9673 17.1678 12.8305L13.3513 11.3986C12.9621 11.2525 12.5555 11.2965 12.2063 11.5225L10.9209 12.355C10.6798 12.5111 10.3908 12.5127 10.148 12.3592C9.2467 11.7892 8.40484 11.1146 7.64586 10.3542L7.6455 10.3539C6.88511 9.59488 6.21057 8.75299 5.64054 7.85169C5.48698 7.60887 5.48856 7.31992 5.64473 7.07878L6.47723 5.7934C6.70321 5.4443 6.74719 5.03764 6.60112 4.64843L5.1692 0.831901C5.03238 0.46719 4.74343 0.187908 4.3765 0.0656349C4.00954 -0.0566737 3.6108 -0.0065057 3.28251 0.203272L1.28475 1.47962C0.27366 2.12562 -0.199718 3.29706 0.0787894 4.464C0.851489 7.70214 2.53379 10.674 4.94157 13.056C7.32576 15.466 10.2976 17.1482 13.5358 17.9209C13.753 17.9731 13.9756 17.9995 14.199 17.9997C15.1296 17.9997 15.9971 17.5336 16.5201 16.715L17.7965 14.7172C18.0062 14.3889 18.0564 13.9902 17.9341 13.6232ZM17.3225 14.4144L16.0461 16.4121C15.5309 17.2184 14.5968 17.5958 13.6663 17.3738C10.5304 16.6255 7.65166 14.9957 5.33925 12.6583C3.00407 10.348 1.37423 7.46933 0.625891 4.33343C0.403844 3.40291 0.781317 2.46878 1.58763 1.95363L3.58534 0.677248C3.70386 0.601522 3.8384 0.562709 3.97386 0.562709C4.04937 0.562709 4.12524 0.574768 4.19868 0.599272C4.40385 0.667651 4.56564 0.824448 4.64256 1.02951L6.07455 4.84604C6.15759 5.06732 6.13357 5.28922 6.00511 5.48764L5.17265 6.77299C4.89811 7.19691 4.89523 7.72544 5.1652 8.15231C5.75744 9.0888 6.45817 9.96339 7.24799 10.7518C8.03641 11.5416 8.91095 12.2423 9.84748 12.8346C10.2743 13.1045 10.8029 13.1016 11.2268 12.8271L12.512 11.9947C12.7105 11.8662 12.9324 11.8421 13.1538 11.9252L16.9703 13.3572C17.1753 13.4341 17.3321 13.5959 17.4005 13.801C17.4688 14.0063 17.4404 14.2298 17.3225 14.4144Z" fill="#070710"/>
</svg>
