<svg width="65" height="54" viewBox="0 0 65 54" fill="none" xmlns="http://www.w3.org/2000/svg">
<path d="M64.4291 38.0989C64.3259 37.9956 61.6417 35.9306 58.2348 33.9689C56.583 32.9364 55.1376 32.2137 53.7955 31.5942C54.6214 29.5292 55.2408 26.6382 55.5506 22.7148C55.8603 18.7913 55.757 15.3841 55.757 15.2809C55.757 14.9711 55.6538 14.7646 55.4473 14.5581C55.2409 14.3516 55.0344 14.3516 54.7247 14.3516C54.6214 14.3516 51.2145 14.8679 47.3947 15.7971C44.8137 16.4166 42.7489 17.1393 40.9938 17.8621C40.1679 16.3134 39.1355 14.6614 37.7934 12.6996C35.5222 9.49893 33.2509 7.02096 33.1477 6.91771L33.0444 6.81446C33.0444 6.81446 33.0444 6.81446 32.9412 6.81446C32.9412 6.81446 32.9412 6.81446 32.838 6.81446C32.838 6.81446 32.838 6.81446 32.7347 6.81446C32.7347 6.81446 32.7347 6.81446 32.6315 6.81446C32.6315 6.81446 32.6315 6.81446 32.5282 6.81446C32.5282 6.81446 32.5282 6.81446 32.425 6.81446C32.425 6.81446 32.425 6.81446 32.3218 6.81446C32.2185 6.81446 32.2185 6.91771 32.1153 7.02096C32.012 7.12421 29.7408 9.60218 27.4695 12.8029C26.1274 14.6614 24.9918 16.4166 24.2691 17.9653C22.6173 17.2426 20.4493 16.5198 17.8683 15.9004C14.0484 14.9711 10.7448 14.5581 10.5383 14.4549C10.2286 14.4549 10.0221 14.4549 9.81562 14.6614C9.60914 14.8679 9.50591 15.0744 9.50591 15.3841C9.50591 15.4874 9.40266 18.8946 9.71238 22.818C10.0221 26.7415 10.5383 29.7357 11.4674 31.6974C10.1253 32.3169 8.67999 33.1429 7.02817 34.0721C3.62127 36.1371 0.937055 38.2021 0.833816 38.2021C0.111142 38.3054 0.00790311 38.6151 0.00790311 38.9248C0.00790311 39.2346 0.111142 39.4411 0.42086 39.6476C0.833816 39.9573 9.71238 46.462 16.2165 47.1848C18.0748 47.3912 19.7266 47.4945 21.3784 47.4945C24.2691 47.4945 26.8501 47.1847 28.8116 46.462C30.1537 45.9458 31.3926 45.3263 32.425 44.6035C33.4574 45.4295 34.593 46.049 36.0384 46.462C38.1031 47.1847 40.5809 47.4945 43.4716 47.4945C45.0202 47.4945 46.7752 47.3912 48.6335 47.1848C55.1376 46.462 64.0162 39.9573 64.4291 39.6476C64.6356 39.4411 64.8421 39.2346 64.8421 38.9248C64.7388 38.6151 64.6356 38.3054 64.4291 38.0989ZM32.425 33.9689C33.2509 34.7949 34.4898 36.4469 33.9736 38.6151C33.6639 39.9573 33.1477 41.0931 32.425 42.0223C31.5991 41.0931 31.0829 39.9573 30.8764 38.6151C30.257 36.4469 31.5991 34.7949 32.425 33.9689ZM48.3238 45.3263C43.3683 45.8425 39.4453 45.636 36.5546 44.7068C35.4189 44.2938 34.4898 43.8808 33.7671 43.2613C34.7995 42.1256 35.4189 40.6801 35.8319 39.0281C36.6578 35.4144 34.0768 32.9364 33.2509 32.2137C33.0444 31.9039 32.7347 31.8007 32.425 31.8007C32.1153 31.8007 31.8056 31.9039 31.5991 32.2137C30.6699 32.9364 28.1922 35.4144 29.0181 39.0281C29.4311 40.6801 30.0505 42.1256 31.0829 43.2613C30.257 43.8808 29.3278 44.2938 28.2954 44.7068C25.4047 45.636 21.4816 45.8425 16.5262 45.3263C11.7772 44.81 5.16986 40.5768 2.69212 38.9248C4.96338 37.2729 8.67999 34.7949 12.0869 33.2462C12.1901 33.3494 12.1901 33.4527 12.2934 33.4527C14.2549 35.8274 17.1456 37.0664 20.0363 37.0664C21.4816 37.0664 22.8238 36.7566 24.1659 36.1371C24.2691 36.1371 24.4756 36.0339 24.5788 36.0339C24.9918 35.7241 25.095 35.2079 24.8885 34.7949C24.8885 34.6916 24.7853 34.6916 24.7853 34.5884C23.0302 31.9039 20.2428 30.2519 17.1456 30.0454C16.01 29.9422 14.5646 30.2519 12.9128 30.8714C11.3642 27.2577 11.0545 20.0303 11.1577 16.3134C14.2549 16.8296 19.6233 17.8621 23.2367 19.5141C22.7205 20.753 22.514 21.8888 22.514 22.818C22.514 26.535 24.5788 29.9422 27.8825 31.6974C27.8825 31.6974 27.8825 31.6974 27.9857 31.6974C28.3987 31.9039 29.0181 31.6974 29.2246 31.2844C30.9796 27.6707 30.4635 23.3343 27.8825 20.3401C27.3663 19.7206 26.6436 19.2043 25.7145 18.6881C27.4695 15.2809 30.6699 11.1509 32.6315 8.98268C34.593 11.2542 37.7934 15.2809 39.5485 18.6881C38.6193 19.2043 37.8967 19.8238 37.3805 20.3401C34.7995 23.4375 34.2833 27.6707 36.0384 31.2844C36.2448 31.6974 36.8643 31.9039 37.2772 31.6974C37.2772 31.6974 37.2772 31.6974 37.3805 31.6974C40.6841 29.9422 42.7489 26.535 42.7489 22.818C42.7489 21.8888 42.5424 20.753 42.0262 19.5141C45.6396 17.9653 51.008 16.8296 54.1052 16.3134C54.2085 20.0303 53.8987 27.2577 52.3502 30.8714C50.6983 30.2519 49.253 29.9422 48.1173 30.0454C45.0202 30.3552 42.2327 31.9039 40.4776 34.4851C40.3744 34.5884 40.3744 34.6916 40.2712 34.7949C40.1679 34.8981 40.1679 35.1046 40.1679 35.2079C40.1679 35.5176 40.2712 35.8274 40.5809 36.0339C40.6841 36.1371 40.7874 36.1371 40.9938 36.1371C42.336 36.7566 43.7813 37.0664 45.1234 37.0664C48.0141 37.0664 50.9048 35.8274 52.8663 33.4527C52.9696 33.3494 52.9696 33.2462 53.0728 33.1429C56.3765 34.6916 60.1963 37.1696 62.4676 38.8216C59.6801 40.5768 53.1761 44.81 48.3238 45.3263ZM13.7387 32.4202C14.9776 32.0072 16.01 31.8007 16.8359 31.8007C19.0039 32.0072 21.0687 33.0397 22.4108 34.6916C19.3136 35.8274 15.9067 34.8981 13.7387 32.4202ZM27.676 29.5292C25.508 27.9805 24.0626 25.5025 24.0626 22.7148C24.0626 21.992 24.2691 21.166 24.5788 20.2368C25.1983 20.6498 25.7145 21.0628 26.1274 21.4758C28.089 23.7473 28.6051 26.8447 27.676 29.5292ZM40.5809 22.818C40.5809 25.5025 39.2388 28.0837 36.9675 29.6324C36.1416 26.8447 36.6578 23.7473 38.5161 21.579C38.8258 21.166 39.342 20.7531 40.0647 20.3401C40.3744 21.2693 40.5809 22.0953 40.5809 22.818ZM51.008 32.4202C48.84 34.8981 45.3299 35.7241 42.336 34.7949C43.7813 33.1429 45.7428 32.1104 48.0141 31.9039C48.7368 31.8007 49.8724 32.0072 51.008 32.4202Z" fill="#663031" fill-opacity="0.6"/>
</svg>
