<svg width="21" height="21" viewBox="0 0 21 21" fill="none" xmlns="http://www.w3.org/2000/svg">
<g clip-path="url(#clip0_277_231)">
<path d="M4.15323 7.90887C2.09712 7.90887 0.425756 6.22251 0.425756 4.14922C0.425756 2.07593 2.09837 0.388305 4.15323 0.388305C6.20809 0.388305 7.88071 2.07593 7.88071 4.14922C7.88071 6.22251 6.20934 7.90887 4.15323 7.90887ZM4.15323 0.889928C2.37194 0.889928 0.922919 2.35194 0.922919 4.14922C0.922919 5.94649 2.37194 7.40851 4.15323 7.40851C5.93453 7.40851 7.38355 5.94523 7.38355 4.14922C7.38355 2.3532 5.93453 0.889928 4.15323 0.889928Z" fill="white" stroke="white" stroke-width="0.699978"/>
<path d="M16.8143 7.90887C14.7582 7.90887 13.088 6.22251 13.088 4.14922C13.088 2.07593 14.7594 0.388305 16.8143 0.388305C18.8691 0.388305 20.5417 2.07593 20.5417 4.14922C20.5417 6.22251 18.8691 7.90887 16.8143 7.90887ZM16.8143 0.889928C15.033 0.889928 13.584 2.35194 13.584 4.14922C13.584 5.94649 15.033 7.40851 16.8143 7.40851C18.5956 7.40851 20.0446 5.94649 20.0446 4.14922C20.0446 2.35194 18.5956 0.889928 16.8143 0.889928Z" fill="white" stroke="white" stroke-width="0.699978"/>
<path d="M4.15323 19.9449C2.09712 19.9449 0.425756 18.2573 0.425756 16.184C0.425756 14.1107 2.09837 12.4218 4.15323 12.4218C6.20809 12.4218 7.88071 14.1107 7.88071 16.184C7.88071 18.2573 6.20934 19.9449 4.15323 19.9449ZM4.15323 12.9234C2.37194 12.9234 0.922919 14.3842 0.922919 16.1827C0.922919 17.98 2.37194 19.442 4.15323 19.442C5.93453 19.442 7.38355 17.98 7.38355 16.1827C7.38355 14.3855 5.93453 12.9234 4.15323 12.9234Z" fill="white" stroke="white" stroke-width="0.699978"/>
<path d="M16.8143 19.9449C14.7582 19.9449 13.088 18.2573 13.088 16.184C13.088 14.1107 14.7594 12.4218 16.8143 12.4218C18.8691 12.4218 20.5417 14.1107 20.5417 16.184C20.5417 18.2573 18.8691 19.9449 16.8143 19.9449ZM16.8143 12.9234C15.033 12.9234 13.584 14.3842 13.584 16.1827C13.584 17.98 15.033 19.442 16.8143 19.442C18.5956 19.442 20.0446 17.98 20.0446 16.1827C20.0446 14.3855 18.5956 12.9234 16.8143 12.9234Z" fill="white" stroke="white" stroke-width="0.699978"/>
</g>
<defs>
<clipPath id="clip0_277_231">
<rect width="20.81" height="20.06" fill="white" transform="scale(1.0092)"/>
</clipPath>
</defs>
</svg>
