<svg width="64" height="64" viewBox="0 0 64 64" fill="none" xmlns="http://www.w3.org/2000/svg">
<path d="M5.31639 38.4793C5.91474 39.8328 6.80459 41.0375 7.92239 42.0073C7.81809 43.4623 8.03241 44.9226 8.55039 46.2863C10.3664 51.2863 10.5394 52.3763 10.5504 52.5453C10.5726 52.7765 10.6745 52.9927 10.8387 53.1569C11.0029 53.3212 11.2192 53.4231 11.4504 53.4453C11.6194 53.4613 12.7104 53.6343 17.7094 55.4453C18.8564 55.8784 20.0704 56.1075 21.2964 56.1223C21.5294 56.1223 21.7534 56.0873 21.9824 56.0683C22.9533 57.1887 24.1602 58.0804 25.5164 58.6793C30.3324 60.9283 31.2284 61.5793 31.3594 61.6873C31.5385 61.8349 31.7633 61.9156 31.9954 61.9156C32.2275 61.9156 32.4523 61.8349 32.6314 61.6873C32.7624 61.5793 33.6584 60.9283 38.4744 58.6793C39.8306 58.0804 41.0375 57.1887 42.0084 56.0683C42.2374 56.0873 42.4614 56.1223 42.6944 56.1223C43.9204 56.1075 45.1344 55.8784 46.2814 55.4453C51.2814 53.6293 52.3714 53.4563 52.5404 53.4453C52.7716 53.4231 52.9878 53.3212 53.1521 53.1569C53.3163 52.9927 53.4182 52.7765 53.4404 52.5453C53.4564 52.3763 53.6294 51.2853 55.4404 46.2863C55.9584 44.9226 56.1727 43.4623 56.0684 42.0073C57.1862 41.0375 58.076 39.8328 58.6744 38.4793C60.9234 33.6633 61.5744 32.7673 61.6824 32.6363C61.83 32.4572 61.9107 32.2323 61.9107 32.0003C61.9107 31.7682 61.83 31.5434 61.6824 31.3643C61.5744 31.2333 60.9234 30.3373 58.6744 25.5213C58.0763 24.167 57.1865 22.9616 56.0684 21.9913C56.1722 20.5369 55.9579 19.0774 55.4404 17.7143C53.6244 12.7143 53.4514 11.6243 53.4404 11.4553C53.4182 11.2241 53.3163 11.0078 53.1521 10.8436C52.9878 10.6794 52.7716 10.5774 52.5404 10.5553C52.3714 10.5393 51.2804 10.3663 46.2814 8.55527C44.9184 8.0373 43.4588 7.82298 42.0044 7.92727C41.0343 6.80894 39.8288 5.91902 38.4744 5.32127C33.6584 3.07227 32.7624 2.42127 32.6314 2.31327C32.4523 2.16568 32.2275 2.08496 31.9954 2.08496C31.7633 2.08496 31.5385 2.16568 31.3594 2.31327C31.2284 2.42127 30.3324 3.07227 25.5164 5.32127C24.162 5.91902 22.9565 6.80894 21.9864 7.92727C20.532 7.82292 19.0724 8.03724 17.7094 8.55527C12.7094 10.3713 11.6194 10.5443 11.4504 10.5553C11.2192 10.5774 11.0029 10.6794 10.8387 10.8436C10.6745 11.0078 10.5726 11.2241 10.5504 11.4553C10.5344 11.6243 10.3614 12.7153 8.55039 17.7143C8.03285 19.0774 7.81855 20.5369 7.92239 21.9913C6.80406 22.9614 5.91414 24.1668 5.31639 25.5213C3.06739 30.3373 2.41639 31.2333 2.30839 31.3643C2.16079 31.5434 2.08008 31.7682 2.08008 32.0003C2.08008 32.2323 2.16079 32.4572 2.30839 32.6363C2.41639 32.7673 3.06739 33.6633 5.31639 38.4793ZM18.3994 53.5693C16.3454 52.8233 13.8214 51.9453 12.4054 51.5983C12.0584 50.1823 11.1804 47.6583 10.4344 45.6043C10.1508 44.8352 9.97478 44.0306 9.91139 43.2133C11.018 43.6706 12.2191 43.8521 13.4114 43.7423C15.1613 46.5015 17.4994 48.8399 20.2584 50.5903C20.1564 51.7821 20.3369 52.9813 20.7854 54.0903C19.9699 54.0272 19.167 53.8519 18.3994 53.5693ZM37.6354 56.8693C35.6564 57.7943 33.2504 58.9593 32.0034 59.7153C30.7564 58.9593 28.3504 57.7943 26.3714 56.8693C23.1084 55.3453 22.3394 53.1583 22.2304 51.7013C25.2665 53.2127 28.6119 53.9993 32.0034 53.9993C35.3949 53.9993 38.7402 53.2127 41.7764 51.7013C41.6634 53.1593 40.8994 55.3463 37.6314 56.8703L37.6354 56.8693ZM53.5684 45.6003C52.8224 47.6543 51.9444 50.1783 51.5974 51.5943C50.1814 51.9413 47.6574 52.8193 45.6034 53.5653C44.8356 53.8488 44.0324 54.0248 43.2164 54.0883C43.6648 52.9793 43.8454 51.7801 43.7434 50.5883C46.5024 48.8379 48.8405 46.4995 50.5904 43.7403C51.7827 43.8501 52.9838 43.6686 54.0904 43.2113C54.0271 44.0278 53.8515 44.8317 53.5684 45.6003ZM56.8684 26.3643C57.7934 28.3433 58.9584 30.7493 59.7144 31.9963C58.9584 33.2433 57.7934 35.6493 56.8684 37.6283C55.3444 40.8903 53.1574 41.6593 51.7004 41.7693C53.2118 38.7331 53.9984 35.3878 53.9984 31.9963C53.9984 28.6047 53.2118 25.2594 51.7004 22.2233C53.1584 22.3363 55.3454 23.1003 56.8694 26.3683L56.8684 26.3643ZM45.5994 10.4313C47.6534 11.1773 50.1774 12.0553 51.5934 12.4023C51.9404 13.8183 52.8184 16.3423 53.5644 18.3963C53.8476 19.1641 54.0233 19.9673 54.0864 20.7833C52.9777 20.3338 51.7783 20.1532 50.5864 20.2563C48.8369 17.4979 46.4995 15.1602 43.7414 13.4103C43.8434 12.2184 43.6628 11.0193 43.2144 9.91027C44.0296 9.97331 44.8322 10.1486 45.5994 10.4313ZM26.3674 7.13027C28.3464 6.20527 30.7524 5.04027 31.9994 4.28427C33.2464 5.04027 35.6524 6.20527 37.6314 7.13027C40.8944 8.65427 41.6634 10.8413 41.7724 12.2983C38.7362 10.7868 35.3909 10.0002 31.9994 10.0002C28.6078 10.0002 25.2625 10.7868 22.2264 12.2983C22.3354 10.8413 23.1044 8.65427 26.3674 7.13027ZM31.9994 12.0003C35.955 12.0003 39.8218 13.1733 43.1108 15.3709C46.3998 17.5685 48.9632 20.6921 50.477 24.3466C51.9907 28.0011 52.3868 32.0225 51.6151 35.9021C50.8434 39.7817 48.9386 43.3454 46.1415 46.1424C43.3445 48.9395 39.7808 50.8443 35.9012 51.616C32.0216 52.3877 28.0002 51.9916 24.3457 50.4779C20.6912 48.9641 17.5676 46.4007 15.37 43.1117C13.1724 39.8227 11.9994 35.9559 11.9994 32.0003C12.0055 26.6978 14.1146 21.6143 17.864 17.8649C21.6134 14.1155 26.6969 12.0064 31.9994 12.0003ZM10.4304 18.4003C11.1764 16.3463 12.0544 13.8223 12.4014 12.4063C13.8174 12.0593 16.3414 11.1813 18.3954 10.4353C19.1632 10.1519 19.9664 9.97589 20.7824 9.91227C20.3339 11.0213 20.1534 12.2204 20.2554 13.4123C17.4973 15.1622 15.1599 17.4999 13.4104 20.2583C12.2185 20.1552 11.0191 20.3358 9.91039 20.7853C9.97307 19.9701 10.1481 19.1675 10.4304 18.4003ZM7.13039 26.3723C8.65439 23.1103 10.8414 22.3413 12.2984 22.2313C10.787 25.2678 10.0004 28.6134 10.0004 32.0053C10.0004 35.3971 10.787 38.7428 12.2984 41.7793C10.8424 41.6693 8.65439 40.9003 7.13039 37.6363C6.20439 35.6533 5.03939 33.2473 4.28339 32.0003C5.03939 30.7533 6.20439 28.3473 7.12939 26.3683L7.13039 26.3723Z" fill="#484B4F" fill-opacity="0.9"/>
<path d="M32 36C32.7911 36 33.5645 35.7654 34.2223 35.3259C34.8801 34.8864 35.3928 34.2616 35.6955 33.5307C35.9983 32.7998 36.0775 31.9956 35.9231 31.2196C35.7688 30.4437 35.3878 29.731 34.8284 29.1716C34.269 28.6122 33.5563 28.2312 32.7804 28.0769C32.0044 27.9225 31.2002 28.0017 30.4693 28.3045C29.7384 28.6072 29.1136 29.1199 28.6741 29.7777C28.2346 30.4355 28 31.2089 28 32C28 33.0609 28.4214 34.0783 29.1716 34.8284C29.9217 35.5786 30.9391 36 32 36ZM32 30C32.3956 30 32.7822 30.1173 33.1111 30.3371C33.44 30.5568 33.6964 30.8692 33.8478 31.2346C33.9991 31.6001 34.0387 32.0022 33.9616 32.3902C33.8844 32.7781 33.6939 33.1345 33.4142 33.4142C33.1345 33.6939 32.7781 33.8844 32.3902 33.9616C32.0022 34.0387 31.6001 33.9991 31.2346 33.8478C30.8692 33.6964 30.5568 33.44 30.3371 33.1111C30.1173 32.7822 30 32.3956 30 32C30 31.4696 30.2107 30.9609 30.5858 30.5858C30.9609 30.2107 31.4696 30 32 30Z" fill="#484B4F" fill-opacity="0.8"/>
<path d="M32 50C35.5601 50 39.0402 48.9443 42.0003 46.9665C44.9603 44.9886 47.2675 42.1774 48.6298 38.8883C49.9922 35.5992 50.3487 31.98 49.6541 28.4884C48.9596 24.9967 47.2453 21.7894 44.7279 19.2721C42.2106 16.7547 39.0033 15.0404 35.5116 14.3459C32.02 13.6513 28.4008 14.0078 25.1117 15.3702C21.8226 16.7326 19.0114 19.0397 17.0335 21.9997C15.0557 24.9598 14 28.4399 14 32C14.0056 36.7722 15.9038 41.3473 19.2782 44.7218C22.6527 48.0962 27.2278 49.9944 32 50ZM18.638 39.821C18.5486 39.6695 18.5015 39.4969 18.5015 39.321C18.5015 39.1451 18.5486 38.9725 18.638 38.821L21.488 33.884L25.205 40.321H19.5C19.3248 40.3223 19.1524 40.2765 19.0008 40.1886C18.8492 40.1007 18.7239 39.9737 18.638 39.821ZM22.644 31.884L27.244 23.911H36.75L41.35 31.884L36.479 40.321H27.509L22.644 31.884ZM19.794 42.321H26.36L29.4 47.589C29.444 47.665 29.507 47.723 29.556 47.789C25.7496 47.2017 22.2832 45.26 19.794 42.321ZM32 47.089C31.8241 47.0909 31.6509 47.0454 31.4986 46.9575C31.3463 46.8695 31.2203 46.7423 31.134 46.589L28.67 42.321H35.33L32.866 46.589C32.7797 46.7423 32.6538 46.8695 32.5014 46.9575C32.3491 47.0454 32.1759 47.0909 32 47.089ZM34.442 47.789C34.491 47.718 34.554 47.66 34.598 47.589L37.64 42.321H44.206C41.7171 45.2623 38.2498 47.2058 34.442 47.794V47.789ZM45.362 39.816C45.2757 39.9693 45.1498 40.0967 44.9975 40.1846C44.8451 40.2726 44.6719 40.318 44.496 40.316H38.796L42.513 33.879L45.363 38.816C45.4532 38.9682 45.5007 39.1418 45.5005 39.3186C45.5003 39.4955 45.4525 39.669 45.362 39.821V39.816ZM46.904 26.216C48.3429 29.8688 48.3657 33.9273 46.968 37.596L43.668 31.877L46.828 26.404C46.86 26.351 46.874 26.284 46.9 26.223L46.904 26.216ZM45.094 24.404C45.1834 24.5555 45.2305 24.7281 45.2305 24.904C45.2305 25.0799 45.1834 25.2525 45.094 25.404L42.512 29.877L39.063 23.904H44.229C44.4055 23.9029 44.5789 23.9494 44.7312 24.0387C44.8834 24.1279 45.0087 24.2565 45.094 24.411V24.404ZM44.422 21.929C44.356 21.929 44.295 21.904 44.228 21.904H37.908L34.631 16.228C38.482 16.8718 41.9644 18.902 44.422 21.936V21.929ZM32 16.679C32.1759 16.6774 32.3489 16.7229 32.5012 16.8108C32.6536 16.8987 32.7795 17.0259 32.866 17.179L35.6 21.911H28.4L31.132 17.179C31.2187 17.0256 31.3449 16.8982 31.4976 16.8103C31.6503 16.7223 31.8238 16.677 32 16.679ZM29.369 16.235L26.092 21.911H19.772C19.705 21.911 19.644 21.932 19.578 21.936C22.0367 18.9047 25.519 16.877 29.369 16.235ZM18.906 24.411C18.9923 24.2577 19.1182 24.1303 19.2705 24.0424C19.4229 23.9544 19.5961 23.909 19.772 23.911H24.938L21.489 29.884L18.907 25.411C18.8175 25.2596 18.7702 25.087 18.77 24.9111C18.7698 24.7353 18.8168 24.5626 18.906 24.411ZM17.174 26.411L20.334 31.884L17.034 37.603C15.6363 33.9343 15.6591 29.8758 17.098 26.223C17.127 26.285 17.14 26.351 17.174 26.411Z" fill="#484B4F" fill-opacity="0.8"/>
</svg>
