<svg width="63" height="63" viewBox="0 0 63 63" fill="none" xmlns="http://www.w3.org/2000/svg">
<path d="M58.8074 38.258C56.5823 37.8035 54.3216 37.545 52.0513 37.4856C55.2441 31.9007 51.6878 22.1502 51.5196 21.6972C51.3232 21.4716 51.0721 21.3004 50.7904 21.1999C50.5088 21.0994 50.206 21.073 49.9112 21.1233C47.0358 22.1394 44.3075 23.5316 41.7974 25.2636C41.151 22.1476 38.9851 15.0387 32.3203 11.6329C32.1938 11.5687 32.0544 11.534 31.9126 11.5314C31.7707 11.5288 31.6301 11.5583 31.5013 11.6178C31.3725 11.5583 31.2319 11.5288 31.0901 11.5314C30.9482 11.534 30.8088 11.5687 30.6823 11.6329C24.0176 15.0387 21.8516 22.1476 21.2052 25.2636C18.6951 23.5321 15.9668 22.1403 13.0915 21.1245C12.9277 21.0747 12.7534 21.0705 12.5875 21.1126C12.3638 21.0585 12.128 21.0882 11.9247 21.1962C11.7214 21.3041 11.5648 21.4828 11.4843 21.6985C11.3161 22.1514 7.75978 31.9045 10.9532 37.4875C8.68239 37.5464 6.42107 37.8042 4.19524 38.258C4.05963 38.2909 3.93293 38.3533 3.82413 38.4407C3.71533 38.528 3.6271 38.6383 3.5657 38.7636C3.50431 38.8889 3.47125 39.0262 3.46889 39.1657C3.46652 39.3053 3.4949 39.4436 3.55201 39.5709C9.10105 52.4796 23.5507 52.7631 31.5013 50.1083C39.4733 52.7612 53.8884 52.4847 59.4506 39.5703C59.5076 39.443 59.5359 39.3047 59.5335 39.1653C59.5311 39.0258 59.498 38.8886 59.4366 38.7634C59.3752 38.6382 59.287 38.528 59.1783 38.4406C59.0696 38.3533 58.9429 38.2909 58.8074 38.258ZM19.5313 46.9539C23.162 47.7357 25.9454 48.5207 27.8328 49.1154C22.5188 50.1379 11.4724 50.727 5.803 39.874C10.0064 39.1671 24.2803 37.599 29.4022 47.6343C26.2926 46.6209 23.1302 45.7778 19.9289 45.1086C19.6896 45.0696 19.4445 45.1239 19.2443 45.2605C19.044 45.397 18.9038 45.6053 18.8528 45.8423C18.8017 46.0792 18.8437 46.3267 18.97 46.5336C19.0963 46.7405 19.2972 46.891 19.5313 46.9539ZM30.5336 45.7978C29.3403 43.8064 27.7035 42.1172 25.7507 40.8618C21.0389 37.5556 19.5401 33.6559 19.6441 33.7006C19.5758 33.4594 19.4146 33.2552 19.1958 33.1329C18.977 33.0106 18.7185 32.9803 18.4773 33.0485C18.2361 33.1168 18.032 33.2781 17.9097 33.4969C17.7874 33.7157 17.757 33.9741 17.8253 34.2153C18.3875 35.7943 19.2537 37.2478 20.3749 38.4936C18.0569 37.8718 15.6723 37.5317 13.2729 37.4806C9.93391 33.7907 12.2069 25.5805 13.007 23.0863C15.9039 24.1384 18.638 25.5933 21.129 27.4081C21.2387 27.5624 21.3924 27.6798 21.57 27.7452C26.2402 31.3022 30.8877 37.0604 30.5336 45.7978ZM31.495 25.9169C31.2444 25.9169 31.004 26.0165 30.8268 26.1937C30.6496 26.3709 30.55 26.6113 30.55 26.8619V35.922C28.8019 32.2083 26.1771 28.9754 22.9018 26.5016C23.2301 24.5259 24.9178 16.7322 31.5013 13.3396C38.0823 16.7322 39.7726 24.5259 40.1008 26.5016C36.8171 28.9821 34.1875 32.2257 32.44 35.9516V26.8619C32.44 26.6113 32.3405 26.3709 32.1632 26.1937C31.986 26.0165 31.7457 25.9169 31.495 25.9169ZM41.4308 27.7439C41.6084 27.6786 41.7621 27.5611 41.8718 27.4069C44.3627 25.5916 47.0971 24.1367 49.9943 23.0851C50.7957 25.578 53.0732 33.7837 49.7279 37.4787C47.3292 37.5306 44.9455 37.8714 42.6284 38.4936C43.7492 37.2474 44.6152 35.7937 45.1774 34.2147C45.2416 33.9749 45.2089 33.7194 45.0863 33.5035C44.9637 33.2876 44.7611 33.1287 44.5222 33.061C44.2834 32.9933 44.0275 33.0223 43.8099 33.1417C43.5922 33.2612 43.4303 33.4615 43.3592 33.6993C43.46 33.6565 41.9795 37.536 37.2532 40.8599C35.2995 42.1153 33.6622 43.805 32.469 45.7972C32.1156 37.0604 36.7631 31.3022 41.4308 27.7465V27.7439ZM35.1793 49.1123C37.0661 48.5188 39.8457 47.7345 43.4713 46.9539C43.5927 46.9278 43.7076 46.8781 43.8098 46.8075C43.9119 46.737 43.9991 46.647 44.0664 46.5427C44.1337 46.4385 44.1799 46.322 44.2022 46.1999C44.2245 46.0778 44.2226 45.9526 44.1965 45.8312C44.1704 45.7099 44.1206 45.5949 44.0501 45.4928C43.9795 45.3907 43.8896 45.3035 43.7853 45.2362C43.6811 45.1688 43.5646 45.1227 43.4425 45.1004C43.3204 45.0781 43.1951 45.08 43.0738 45.1061C39.8724 45.7761 36.71 46.6201 33.6005 47.6343C38.723 37.599 52.9976 39.1671 57.199 39.874C51.541 50.703 40.4984 50.1278 35.1793 49.1123Z" fill="#E86C02" fill-opacity="0.8"/>
</svg>
