<svg width="56" height="56" viewBox="0 0 56 56" fill="none" xmlns="http://www.w3.org/2000/svg">
<path d="M36.0061 22.0544C35.8237 22.0543 35.6474 21.9888 35.5091 21.87C35.3707 21.7512 35.2794 21.5868 35.2518 21.4065C34.1547 14.2755 27.5406 7.9665 27.4745 7.9021C27.327 7.76316 27.2408 7.57132 27.2347 7.36879C27.2287 7.16626 27.3033 6.96962 27.4423 6.82214C27.5812 6.67466 27.7731 6.58841 27.9756 6.58237C28.1781 6.57633 28.3748 6.651 28.5222 6.78994C28.8095 7.06098 35.5838 13.5167 36.7621 21.1747C36.7926 21.375 36.7425 21.5793 36.6226 21.7426C36.5027 21.906 36.3228 22.0151 36.1226 22.046C36.084 22.0516 36.0451 22.0544 36.0061 22.0544Z" fill="#E86C02" fill-opacity="0.8"/>
<path d="M19.9936 22.0544C19.9544 22.0544 19.9153 22.0516 19.8765 22.046C19.6763 22.0151 19.4965 21.906 19.3767 21.7426C19.2569 21.5792 19.2068 21.3749 19.2376 21.1747C20.4136 13.5167 27.1896 7.06266 27.4774 6.78994C27.6249 6.651 27.8215 6.57633 28.0241 6.58237C28.2266 6.58841 28.4184 6.67466 28.5574 6.82214C28.6963 6.96962 28.771 7.16626 28.7649 7.36879C28.7589 7.57132 28.6726 7.76316 28.5252 7.9021C28.4585 7.96482 21.8444 14.2755 20.7479 21.4065C20.7202 21.5868 20.6289 21.7512 20.4906 21.87C20.3522 21.9888 20.1759 22.0543 19.9936 22.0544ZM14.972 19.9645C14.7926 19.9642 14.619 19.9008 14.4816 19.7855C14.3442 19.6701 14.2518 19.51 14.2205 19.3334C13.7333 16.5169 13.9136 13.6255 14.7469 10.8914C14.78 10.7966 14.8315 10.7092 14.8983 10.6343C14.9652 10.5594 15.0461 10.4984 15.1365 10.4548C15.227 10.4111 15.3251 10.3858 15.4253 10.38C15.5256 10.3743 15.626 10.3884 15.7208 10.4215C15.8156 10.4546 15.9029 10.5061 15.9778 10.5729C16.0527 10.6398 16.1137 10.7207 16.1574 10.8112C16.201 10.9016 16.2264 10.9997 16.2321 11.1C16.2378 11.2002 16.2237 11.3006 16.1906 11.3954C15.4522 13.8837 15.2928 16.508 15.7247 19.0674C15.7423 19.1661 15.7402 19.2674 15.7186 19.3654C15.697 19.4634 15.6563 19.5561 15.5988 19.6383C15.5414 19.7206 15.4682 19.7907 15.3837 19.8446C15.2991 19.8986 15.2047 19.9353 15.1059 19.9527C15.0617 19.9605 15.0169 19.9644 14.972 19.9645Z" fill="#E86C02" fill-opacity="0.8"/>
<path d="M21.7936 16.5903C21.6825 16.5905 21.5728 16.5663 21.472 16.5196C21.3712 16.4729 21.2818 16.4047 21.2101 16.3198C19.5612 14.4027 17.5054 12.8775 15.1924 11.8555C15.0074 11.7796 14.8596 11.6341 14.7807 11.4503C14.7018 11.2666 14.6981 11.0593 14.7704 10.8728C14.8427 10.6864 14.9852 10.5358 15.1673 10.4532C15.3495 10.3707 15.5567 10.3629 15.7445 10.4314C18.3006 11.5371 20.5693 13.2137 22.3766 15.3326C22.4706 15.4438 22.5309 15.5796 22.5503 15.724C22.5697 15.8683 22.5475 16.0152 22.4863 16.1474C22.425 16.2795 22.3273 16.3914 22.2046 16.4699C22.0819 16.5484 21.9393 16.5902 21.7936 16.5903ZM41.0313 19.9654C40.9864 19.9652 40.9417 19.9611 40.8975 19.9531C40.698 19.9176 40.5207 19.8044 40.4047 19.6383C40.2887 19.4721 40.2433 19.2667 40.2787 19.0672C40.7106 16.5079 40.5516 13.8837 39.8139 11.3952C39.747 11.2038 39.759 10.9938 39.847 10.8112C39.9351 10.6286 40.0921 10.4885 40.2834 10.4216C40.4748 10.3548 40.6849 10.3667 40.8675 10.4548C41.05 10.5429 41.1902 10.6998 41.257 10.8912C42.0902 13.6255 42.2703 16.5172 41.7828 19.3338C41.7517 19.5105 41.6593 19.6707 41.5219 19.7862C41.3845 19.9017 41.2108 19.9651 41.0313 19.9654Z" fill="#E86C02" fill-opacity="0.8"/>
<path d="M34.2084 16.5896C34.0628 16.5895 33.9202 16.5477 33.7975 16.4692C33.6748 16.3907 33.577 16.2788 33.5158 16.1467C33.4545 16.0145 33.4323 15.8676 33.4518 15.7233C33.4712 15.5789 33.5314 15.4431 33.6255 15.3319C35.4334 13.2132 37.7024 11.5367 40.2587 10.4308C40.4475 10.3574 40.6578 10.362 40.8432 10.4437C41.0286 10.5253 41.174 10.6773 41.2473 10.8662C41.3207 11.055 41.316 11.2653 41.2344 11.4507C41.1527 11.6361 41.0008 11.7815 40.8119 11.8548C38.4979 12.8764 36.441 14.4016 34.7914 16.3192C34.7198 16.404 34.6305 16.4721 34.5298 16.5188C34.4291 16.5656 34.3194 16.5897 34.2084 16.5896ZM26.2648 49.418C8.07882 49.418 6.36858 31.162 5.79402 25.0322C5.73242 24.3742 5.68538 23.8562 5.62994 23.5264C5.12202 20.4867 3.28074 19.4496 3.20234 19.4076C3.05276 19.3268 2.93434 19.1985 2.86578 19.043C2.79721 18.8875 2.7824 18.7135 2.82369 18.5486C2.86498 18.3837 2.96001 18.2373 3.09378 18.1324C3.22755 18.0276 3.39244 17.9702 3.56242 17.9695H11.0328C15.7342 17.9748 20.2416 19.8449 23.5658 23.1695C26.8901 26.4941 28.7598 31.0016 28.7647 35.703V48.5998C28.7647 48.7942 28.6906 48.9814 28.5574 49.123C28.4242 49.2647 28.2419 49.3501 28.0479 49.362C27.4408 49.4 26.8422 49.418 26.2648 49.418ZM5.53194 19.4977C6.38061 20.5991 6.93366 21.8991 7.13858 23.2744C7.20074 23.6462 7.25058 24.1944 7.31722 24.8888C8.27258 35.0758 11.4052 48.4514 27.2364 47.8724V35.703C27.2315 31.4069 25.5229 27.2881 22.4852 24.2501C19.4475 21.2122 15.3289 19.5031 11.0328 19.4977H5.53194Z" fill="#E86C02" fill-opacity="0.8"/>
<path d="M27.999 49.3633C27.9315 49.3634 27.8642 49.3545 27.799 49.337C21.3232 47.5926 17.8557 38.305 15.8111 31.473C12.6751 20.9915 3.82713 19.545 3.44913 19.489C3.24863 19.4593 3.06813 19.3512 2.94736 19.1884C2.82659 19.0256 2.77543 18.8215 2.80513 18.621C2.83483 18.4205 2.94297 18.24 3.10575 18.1192C3.26853 17.9985 3.47263 17.9473 3.67313 17.977C3.77449 17.9916 13.8528 19.5971 17.2755 31.0373C19.2154 37.5199 22.455 46.3158 28.1978 47.8614C28.3763 47.91 28.5311 48.0217 28.6335 48.1758C28.7359 48.3299 28.7789 48.5158 28.7546 48.6992C28.7304 48.8826 28.6404 49.051 28.5015 49.1731C28.3625 49.2952 28.184 49.3628 27.999 49.3633Z" fill="#E86C02" fill-opacity="0.8"/>
<path d="M29.7364 49.4172C29.1596 49.4172 28.5659 49.3986 27.9551 49.3612C27.761 49.3494 27.5788 49.2639 27.4455 49.1223C27.3123 48.9806 27.2382 48.7935 27.2383 48.5991V35.7023C27.2432 31.0011 29.1126 26.4939 32.4365 23.1694C35.7604 19.8448 40.2673 17.9745 44.9684 17.9688H52.4366C52.6076 17.9686 52.7737 18.0257 52.9083 18.1312C53.0429 18.2366 53.1383 18.3841 53.1792 18.5501C53.22 18.7161 53.204 18.8911 53.1336 19.0469C53.0632 19.2027 52.9426 19.3305 52.7911 19.4096C52.7183 19.4494 50.8753 20.486 50.3691 23.5256C50.3131 23.8572 50.266 24.3723 50.205 25.0292C49.6304 31.1562 47.9185 49.4172 29.7364 49.4172ZM28.7665 47.8716C44.6319 48.4641 47.7309 35.0745 48.6863 24.8864C48.7507 24.1932 48.8022 23.6455 48.8644 23.2742C49.0684 21.8985 49.6216 20.5981 50.471 19.497H44.9684C40.6722 19.5022 36.5535 21.2112 33.5157 24.2492C30.4779 27.2872 28.7692 31.4061 28.7643 35.7023L28.7665 47.8716Z" fill="#E86C02" fill-opacity="0.8"/>
<path d="M28 49.3625C27.8151 49.3618 27.6366 49.2942 27.4978 49.172C27.3589 49.0498 27.2691 48.8815 27.2449 48.6981C27.2207 48.5148 27.2638 48.3289 27.3662 48.1748C27.4686 48.0208 27.6233 47.9092 27.8018 47.8606C33.544 46.3144 36.7831 37.519 38.7218 31.0371C42.1456 19.5991 52.2239 17.9913 52.3247 17.9751C52.5252 17.9453 52.7293 17.9965 52.8921 18.1173C53.0549 18.2381 53.163 18.4185 53.1927 18.6191C53.2224 18.8196 53.1713 19.0236 53.0505 19.1864C52.9297 19.3492 52.7492 19.4573 52.5487 19.4871C52.1735 19.5431 43.3216 20.9923 40.1862 31.4739C38.1427 38.3059 34.6758 47.5901 28.1988 49.3379C28.1339 49.3547 28.0671 49.3629 28 49.3625Z" fill="#E86C02" fill-opacity="0.8"/>
</svg>
