<svg width="56" height="47" viewBox="0 0 56 47" fill="none" xmlns="http://www.w3.org/2000/svg">
<path d="M54.7311 33.1611C54.6434 33.0712 52.3631 31.2739 49.4689 29.5664C48.0657 28.6678 46.8378 28.0387 45.6976 27.4995C46.3993 25.7022 46.9255 23.1859 47.1886 19.771C47.4517 16.3561 47.364 13.3905 47.364 13.3007C47.364 13.0311 47.2763 12.8513 47.1009 12.6716C46.9255 12.4919 46.7501 12.4919 46.487 12.4919C46.3993 12.4919 43.505 12.9412 40.26 13.75C38.0674 14.2892 36.3133 14.9183 34.8224 15.5473C34.1207 14.1993 33.2437 12.7615 32.1035 11.054C30.1741 8.26816 28.2446 6.11137 28.1569 6.02151L28.0692 5.93164C28.0692 5.93164 28.0692 5.93164 27.9815 5.93164C27.9815 5.93164 27.9815 5.93164 27.8937 5.93164C27.8937 5.93164 27.8938 5.93164 27.806 5.93164C27.806 5.93164 27.806 5.93164 27.7183 5.93164C27.7183 5.93164 27.7183 5.93164 27.6306 5.93164C27.6306 5.93164 27.6306 5.93164 27.5429 5.93164C27.5429 5.93164 27.5429 5.93164 27.4552 5.93164C27.3675 5.93164 27.3675 6.02151 27.2798 6.11137C27.1921 6.20124 25.2626 8.35803 23.3331 11.1439C22.193 12.7615 21.2283 14.2892 20.6143 15.6372C19.2111 15.0081 17.3693 14.3791 15.1767 13.8399C11.9316 13.0311 9.12511 12.6716 8.94971 12.5817C8.68659 12.5817 8.51119 12.5817 8.33578 12.7615C8.16037 12.9412 8.07267 13.1209 8.07267 13.3905C8.07267 13.4804 7.98496 16.446 8.24807 19.8609C8.51119 23.2758 8.94971 25.8819 9.73904 27.5894C8.59889 28.1286 7.37104 28.8475 5.96777 29.6563C3.07354 31.4536 0.793242 33.251 0.705538 33.251C0.0916102 33.3408 0.00390625 33.6104 0.00390625 33.88C0.00390625 34.1496 0.0916102 34.3293 0.354722 34.5091C0.705538 34.7787 8.24807 40.4403 13.7734 41.0693C15.3521 41.249 16.7554 41.3389 18.1586 41.3389C20.6143 41.3389 22.8069 41.0693 24.4733 40.4402C25.6134 39.9909 26.6659 39.4517 27.5429 38.8227C28.42 39.5416 29.3847 40.0808 30.6126 40.4402C32.3667 41.0693 34.4715 41.3389 36.9273 41.3389C38.2428 41.3389 39.7338 41.249 41.3124 41.0693C46.8378 40.4403 54.3803 34.7787 54.7311 34.5091C54.9066 34.3293 55.082 34.1496 55.082 33.88C54.9943 33.6104 54.9066 33.3408 54.7311 33.1611ZM27.5429 29.5664C28.2446 30.2854 29.297 31.7232 28.8585 33.6104C28.5954 34.7787 28.1569 35.7672 27.5429 36.576C26.8413 35.7672 26.4028 34.7787 26.2274 33.6104C25.7012 31.7232 26.8413 30.2854 27.5429 29.5664ZM41.0493 39.4517C36.8396 39.9011 33.5068 39.7213 31.0511 38.9125C30.0863 38.5531 29.297 38.1936 28.6831 37.6544C29.5601 36.6659 30.0863 35.4077 30.4372 33.9699C31.1388 30.8246 28.9462 28.6678 28.2446 28.0387C28.0692 27.7691 27.806 27.6793 27.5429 27.6793C27.2798 27.6793 27.0167 27.7691 26.8413 28.0387C26.052 28.6678 23.9471 30.8246 24.6487 33.9699C24.9995 35.4077 25.5257 36.6659 26.4028 37.6544C25.7012 38.1936 24.9118 38.5531 24.0348 38.9125C21.5791 39.7213 18.2463 39.9011 14.0365 39.4517C10.0022 39.0024 4.3891 35.3179 2.28421 33.88C4.21369 32.4422 7.37103 30.2854 10.2653 28.9374C10.353 29.0272 10.353 29.1171 10.4407 29.1171C12.107 31.184 14.5628 32.2624 17.0185 32.2624C18.2463 32.2624 19.3865 31.9928 20.5266 31.4536C20.6143 31.4536 20.7897 31.3638 20.8774 31.3638C21.2283 31.0942 21.316 30.6448 21.1406 30.2854C21.1406 30.1955 21.0528 30.1955 21.0528 30.1056C19.5619 27.7691 17.1939 26.3313 14.5628 26.1515C13.598 26.0617 12.3702 26.3313 10.9669 26.8705C9.65134 23.7251 9.38823 17.4345 9.47593 14.1993C12.107 14.6487 16.6677 15.5473 19.7373 16.9852C19.2988 18.0636 19.1234 19.0521 19.1234 19.8609C19.1234 23.0961 20.8774 26.0617 23.684 27.5894C23.684 27.5894 23.684 27.5894 23.7717 27.5894C24.1225 27.7691 24.6487 27.5894 24.8241 27.2299C26.3151 24.0846 25.8766 20.3102 23.684 17.7041C23.2454 17.1649 22.6315 16.7156 21.8422 16.2662C23.3331 13.3007 26.052 9.70602 27.7183 7.81883C29.3847 9.79589 32.1035 13.3007 33.5945 16.2662C32.8052 16.7156 32.1912 17.2548 31.7527 17.7041C29.5601 20.4001 29.1216 24.0846 30.6126 27.2299C30.788 27.5894 31.3142 27.7691 31.665 27.5894C31.665 27.5894 31.665 27.5894 31.7527 27.5894C34.5592 26.0617 36.3133 23.0961 36.3133 19.8609C36.3133 19.0521 36.1379 18.0636 35.6994 16.9852C38.769 15.6372 43.3296 14.6487 45.9608 14.1993C46.0485 17.4345 45.7854 23.7251 44.4698 26.8705C43.0665 26.3313 41.8387 26.0617 40.8739 26.1515C38.2428 26.4211 35.8748 27.7691 34.3838 30.0158C34.2961 30.1056 34.2961 30.1955 34.2084 30.2854C34.1207 30.3752 34.1207 30.555 34.1207 30.6448C34.1207 30.9144 34.2084 31.184 34.4715 31.3638C34.5592 31.4536 34.647 31.4536 34.8224 31.4536C35.9625 31.9928 37.1904 32.2624 38.3305 32.2624C40.7862 32.2624 43.2419 31.184 44.9083 29.1171C44.996 29.0272 44.996 28.9374 45.0837 28.8475C47.8902 30.1955 51.1353 32.3523 53.0648 33.7901C50.6968 35.3179 45.1714 39.0024 41.0493 39.4517ZM11.6685 28.2184C12.721 27.859 13.598 27.6793 14.2996 27.6793C16.1414 27.859 17.8955 28.7576 19.0357 30.1955C16.4045 31.184 13.5103 30.3752 11.6685 28.2184ZM23.5086 25.7022C21.6668 24.3542 20.4389 22.1974 20.4389 19.771C20.4389 19.142 20.6143 18.423 20.8774 17.6142C21.4037 17.9737 21.8422 18.3332 22.193 18.6926C23.8594 20.6697 24.2979 23.3657 23.5086 25.7022ZM34.4715 19.8609C34.4715 22.1974 33.3314 24.4441 31.4019 25.7921C30.7003 23.3657 31.1388 20.6697 32.7175 18.7825C32.9806 18.423 33.4191 18.0636 34.033 17.7041C34.2961 18.5129 34.4715 19.2318 34.4715 19.8609ZM43.3296 28.2184C41.4879 30.3752 38.5059 31.0942 35.9625 30.2854C37.1904 28.8475 38.8567 27.9488 40.7862 27.7691C41.4002 27.6793 42.3649 27.859 43.3296 28.2184Z" fill="#E86C02" fill-opacity="0.8"/>
</svg>
