<svg width="55" height="55" viewBox="0 0 55 55" fill="none" xmlns="http://www.w3.org/2000/svg">
<path d="M42.8781 4.11426C38.8445 4.11426 35.4104 7.58063 35.1231 11.8046C29.3687 12.9266 23.3943 14.314 18.4003 17.3431C17.6642 16.3769 16.7143 15.5944 15.625 15.0569C14.5357 14.5194 13.3367 14.2416 12.1221 14.2453C7.77294 14.2453 4.23438 17.7735 4.23438 22.1103C4.23438 26.4594 7.77294 29.9986 12.1221 29.9986C16.2629 29.9986 19.6687 26.7914 19.9857 22.7304C27.1302 21.882 35.0062 18.2664 37.0426 17.2854C37.7791 18.1018 38.6795 18.7537 39.685 19.1986C40.6905 19.6436 41.7785 19.8715 42.8781 19.8676C47.2272 19.8676 50.7658 16.3291 50.7658 11.9799C50.7658 7.64251 47.2272 4.11426 42.8781 4.11426ZM42.8781 18.4926C41.8923 18.4963 40.9188 18.2742 40.0322 17.8434C39.1456 17.4126 38.3694 16.7845 37.7631 16.0073C37.6648 15.8825 37.5263 15.7955 37.3712 15.761C37.2161 15.7266 37.0538 15.7468 36.9119 15.8183C36.8157 15.8664 27.2546 20.65 19.2563 21.4262C19.0862 21.4426 18.9283 21.5217 18.8134 21.6482C18.6985 21.7747 18.6348 21.9394 18.6347 22.1103C18.6347 25.7018 15.7129 28.6236 12.1221 28.6236C8.53125 28.6236 5.60938 25.7018 5.60938 22.1103C5.60938 18.5318 8.53125 15.6203 12.1221 15.6203C13.2207 15.6169 14.3022 15.8922 15.2655 16.4204C16.2288 16.9485 17.0424 17.7124 17.6303 18.6404C17.7289 18.794 17.8843 18.9022 18.0624 18.9415C18.2406 18.9808 18.4271 18.9479 18.5811 18.8501C23.1599 15.9131 28.4069 14.4996 35.9219 13.0497C36.2451 12.9878 36.4788 12.7046 36.4788 12.3753C36.4788 8.64282 39.4096 5.48926 42.8781 5.48926C46.4696 5.48926 49.3908 8.40151 49.3908 11.9793C49.3908 15.5708 46.4689 18.4926 42.8781 18.4926ZM42.8781 25.0019C38.7187 25.0019 35.2997 28.2297 35.0103 32.3052C28.4344 33.7146 22.8567 35.7111 18.4113 38.2473C17.6759 37.2764 16.7249 36.4898 15.6335 35.9493C14.5421 35.4088 13.34 35.1294 12.1221 35.1329C7.77294 35.1329 4.23438 38.6611 4.23438 42.9986C4.23438 47.3477 7.77294 50.8863 12.1221 50.8863C16.2684 50.8863 19.6777 47.6701 19.9871 43.6022C27.0958 42.5696 35.0048 39.0963 37.035 38.1654C37.7718 38.9843 38.6732 39.6383 39.6802 40.0846C40.6873 40.5309 41.7772 40.7594 42.8787 40.7553C47.2272 40.7553 50.7658 37.2167 50.7658 32.8676C50.7658 28.5301 47.2272 25.0019 42.8781 25.0019ZM42.8781 39.3803C41.8924 39.3839 40.919 39.1619 40.0324 38.7312C39.1458 38.3005 38.3695 37.6726 37.7631 36.8956C37.6667 36.7724 37.5312 36.6858 37.3789 36.6502C37.2266 36.6146 37.0667 36.632 36.9257 36.6997C36.8294 36.7451 27.2113 41.3046 19.2363 42.3166C19.0702 42.3375 18.9174 42.4183 18.8067 42.5439C18.6959 42.6695 18.6348 42.8311 18.6347 42.9986C18.6347 46.5901 15.7129 49.5113 12.1221 49.5113C8.53125 49.5113 5.60938 46.5894 5.60938 42.9986C5.60938 39.4201 8.53125 36.5086 12.1221 36.5086C13.2207 36.5052 14.3022 36.7805 15.2655 37.3087C16.2288 37.8368 17.0424 38.6007 17.6303 39.5288C17.7262 39.6793 17.8769 39.7866 18.0505 39.828C18.2241 39.8695 18.407 39.8418 18.5605 39.7508C23.0781 37.0709 28.884 34.9816 35.8167 33.5406C36.1364 33.4739 36.3654 33.1928 36.3654 32.8669C36.3654 29.2891 39.2873 26.3769 42.8781 26.3769C46.4689 26.3769 49.3908 29.2891 49.3908 32.8669C49.3908 36.4584 46.4689 39.3803 42.8781 39.3803Z" fill="#484B4F"/>
</svg>
