<svg width="26" height="26" viewBox="0 0 26 26" fill="none" xmlns="http://www.w3.org/2000/svg">
<path d="M16.6562 6.90625V2.03125H4.46875V23.9688H21.5312V6.90625H16.6562Z" fill="white"/>
<path d="M21.5312 6.90625H16.6562V2.03125L21.5312 6.90625Z" fill="#C2712B"/>
<path d="M21.5312 24.375H4.46875C4.36101 24.375 4.25767 24.3322 4.18149 24.256C4.1053 24.1798 4.0625 24.0765 4.0625 23.9688V2.03126C4.0625 1.92351 4.1053 1.82018 4.18149 1.74399C4.25767 1.66781 4.36101 1.62501 4.46875 1.62501H16.6562C16.7097 1.6247 16.7627 1.63495 16.8122 1.65516C16.8617 1.67538 16.9067 1.70517 16.9447 1.74282L21.8197 6.61782C21.8573 6.65578 21.8871 6.7008 21.9073 6.75029C21.9276 6.79979 21.9378 6.85279 21.9375 6.90626V23.9688C21.9375 24.0765 21.8947 24.1798 21.8185 24.256C21.7423 24.3322 21.639 24.375 21.5312 24.375ZM4.875 23.5625H21.125V7.07282L16.4897 2.43751H4.875V23.5625Z" fill="#C2712B"/>
<path d="M21.5312 7.3125H16.6562C16.5485 7.3125 16.4452 7.2697 16.369 7.19351C16.2928 7.11733 16.25 7.01399 16.25 6.90625V2.03125C16.25 1.92351 16.2928 1.82017 16.369 1.74399C16.4452 1.6678 16.5485 1.625 16.6562 1.625C16.764 1.625 16.8673 1.6678 16.9435 1.74399C17.0197 1.82017 17.0625 1.92351 17.0625 2.03125V6.5H21.5312C21.639 6.5 21.7423 6.5428 21.8185 6.61899C21.8947 6.69517 21.9375 6.79851 21.9375 6.90625C21.9375 7.01399 21.8947 7.11733 21.8185 7.19351C21.7423 7.2697 21.639 7.3125 21.5312 7.3125ZM15.0312 10.5625H10.9688C10.861 10.5625 10.7577 10.5197 10.6815 10.4435C10.6053 10.3673 10.5625 10.264 10.5625 10.1562C10.5625 10.0485 10.6053 9.94517 10.6815 9.86899C10.7577 9.7928 10.861 9.75 10.9688 9.75H15.0312C15.139 9.75 15.2423 9.7928 15.3185 9.86899C15.3947 9.94517 15.4375 10.0485 15.4375 10.1562C15.4375 10.264 15.3947 10.3673 15.3185 10.4435C15.2423 10.5197 15.139 10.5625 15.0312 10.5625Z" fill="#C2712B"/>
<path d="M13 14.625C12.8923 14.625 12.7889 14.5822 12.7127 14.506C12.6366 14.4298 12.5938 14.3265 12.5938 14.2188V10.1562C12.5938 10.0485 12.6366 9.94517 12.7127 9.86899C12.7889 9.7928 12.8923 9.75 13 9.75C13.1077 9.75 13.2111 9.7928 13.2873 9.86899C13.3634 9.94517 13.4062 10.0485 13.4062 10.1562V14.2188C13.4062 14.3265 13.3634 14.4298 13.2873 14.506C13.2111 14.5822 13.1077 14.625 13 14.625ZM18.2812 17.0625H7.71875C7.61101 17.0625 7.50767 17.0197 7.43149 16.9435C7.3553 16.8673 7.3125 16.764 7.3125 16.6562C7.3125 16.5485 7.3553 16.4452 7.43149 16.369C7.50767 16.2928 7.61101 16.25 7.71875 16.25H18.2812C18.389 16.25 18.4923 16.2928 18.5685 16.369C18.6447 16.4452 18.6875 16.5485 18.6875 16.6562C18.6875 16.764 18.6447 16.8673 18.5685 16.9435C18.4923 17.0197 18.389 17.0625 18.2812 17.0625ZM18.2812 19.5H7.71875C7.61101 19.5 7.50767 19.4572 7.43149 19.381C7.3553 19.3048 7.3125 19.2015 7.3125 19.0938C7.3125 18.986 7.3553 18.8827 7.43149 18.8065C7.50767 18.7303 7.61101 18.6875 7.71875 18.6875H18.2812C18.389 18.6875 18.4923 18.7303 18.5685 18.8065C18.6447 18.8827 18.6875 18.986 18.6875 19.0938C18.6875 19.2015 18.6447 19.3048 18.5685 19.381C18.4923 19.4572 18.389 19.5 18.2812 19.5Z" fill="#C2712B"/>
</svg>
