<svg width="64" height="54" viewBox="0 0 64 54" fill="none" xmlns="http://www.w3.org/2000/svg">
<path d="M57.769 51.4408H48.9922C55.5238 46.7458 55.2176 43.3776 55.2176 42.9694C55.2176 42.7652 55.0135 42.5611 54.9114 42.357C54.8094 42.2549 53.5847 41.3363 51.0333 41.3363C48.6861 41.3363 45.9306 42.0508 42.7669 43.4797C42.6648 43.4797 42.6648 43.3776 42.5627 43.3776C40.0114 42.0508 38.5826 38.9888 37.9702 34.0897C40.6237 36.6413 45.2162 36.9475 47.5635 36.9475C48.3799 36.9475 48.9922 36.9475 48.9922 36.8455C49.5025 36.8455 49.9107 36.4372 49.9107 35.9269C49.9107 35.7228 50.0128 30.8236 46.5429 25.108C44.6038 21.944 41.9504 19.8006 38.1744 18.4738C35.725 17.6572 34.6024 16.1263 34.5004 13.4726C35.0106 13.0643 35.5209 12.554 36.0312 11.8395C36.9497 10.3086 37.562 8.36933 37.562 6.32803C37.562 2.3475 35.5209 0 32.051 0C28.5811 0 26.54 2.3475 26.54 6.32803C26.54 8.36933 27.0503 10.3086 28.0709 11.8395C28.4791 12.554 28.9894 13.0643 29.6017 13.4726C29.4996 16.2283 28.4791 17.6572 25.9277 18.4738C22.1517 19.6985 19.3962 21.8419 17.5592 25.108C14.1913 30.8236 14.1913 35.7228 14.1913 35.9269C14.1913 36.4372 14.5995 36.8455 15.1098 36.8455C15.2119 36.8455 15.7222 36.9475 16.5386 36.9475C18.8859 36.9475 23.4784 36.6413 26.1318 34.0897C25.6215 38.9888 24.0907 42.0508 21.5393 43.3776C21.4373 43.3776 21.4373 43.4797 21.3352 43.4797C18.1715 42.0508 15.416 41.3363 13.0687 41.3363C10.5173 41.3363 9.29266 42.2549 9.19061 42.357C8.9865 42.5611 8.88444 42.7652 8.88444 42.9694C8.78239 43.3776 8.57827 46.7458 15.1098 51.4408H6.33305C5.82278 51.4408 5.3125 51.849 5.3125 52.4614C5.3125 52.9717 5.72072 53.4821 6.33305 53.4821H18.3756H31.5408H32.5613H45.7265H57.769C58.2793 53.4821 58.7896 53.0738 58.7896 52.4614C58.6875 51.849 58.2793 51.4408 57.769 51.4408ZM28.4791 6.32803C28.4791 3.36815 29.7038 1.93924 32.051 1.93924C34.3983 1.93924 35.623 3.47021 35.623 6.32803C35.623 9.59411 33.9901 12.3499 32.051 12.3499C30.112 12.3499 28.4791 9.69618 28.4791 6.32803ZM26.6421 40.1115C27.5606 37.8661 28.0709 35.0083 28.1729 31.334C30.112 28.272 31.0305 25.2101 31.3366 23.475C31.4387 22.9646 31.1325 22.4543 30.5202 22.3522C30.0099 22.2502 29.4996 22.5564 29.3976 23.1688C28.9894 25.108 27.8668 28.9865 25.0092 32.4567C22.866 35.0083 18.0694 35.2124 16.0283 35.2124C16.1304 33.6815 16.7427 30.2112 19.09 26.3328C20.7229 23.577 23.0702 21.7398 26.438 20.6171C29.4996 19.5965 31.0305 17.6572 31.3366 14.4932C31.5408 14.4932 31.7449 14.5953 31.949 14.5953C32.1531 14.5953 32.3572 14.5953 32.5613 14.4932C32.8675 17.6572 34.5004 19.5965 37.46 20.6171C40.7257 21.7398 43.1751 23.577 44.808 26.3328C47.0532 30.2112 47.6655 33.5794 47.8696 35.2124C45.8285 35.2124 41.0319 35.0083 38.8887 32.4567C35.623 28.5782 34.9086 24.5977 34.7045 23.0667C34.6024 22.5564 34.0921 22.1481 33.5819 22.2502C33.0716 22.3522 32.6634 22.8626 32.7654 23.3729C33.0716 25.4142 33.786 28.3741 35.725 31.436C35.8271 35.1104 36.3374 37.9682 37.2559 40.2136C38.0723 42.1529 39.1949 43.6838 40.6237 44.7045C40.6237 44.7045 40.5216 44.7045 40.5216 44.8065C37.1538 46.6437 34.0921 48.685 31.949 50.7263C29.8058 48.7871 26.8462 46.6437 23.3763 44.8065C23.3763 44.8065 23.2743 44.8065 23.2743 44.7045C24.8051 43.5818 25.9277 42.0508 26.6421 40.1115ZM18.5797 51.4408C16.2324 50.0119 13.1708 47.8685 11.6399 45.521C11.1297 44.7045 10.9256 44.0921 10.8235 43.6838C11.2317 43.4797 11.9461 43.2756 13.0687 43.2756C16.2324 43.2756 19.9064 44.9086 22.5599 46.3375C25.5195 47.9706 28.1729 49.7057 30.112 51.4408H18.5797ZM33.888 51.4408C35.8271 49.7057 38.4805 47.9706 41.4401 46.3375C43.9915 44.9086 47.7676 43.2756 50.9313 43.2756C52.0539 43.2756 52.7683 43.4797 53.1765 43.6838C53.0745 44.0921 52.8703 44.7045 52.3601 45.521C50.8292 47.8685 47.7676 50.0119 45.4203 51.4408H33.888Z" fill="#663031" fill-opacity="0.6"/>
</svg>
